{"glyphs":{"0":{"ha":901,"x_min":89,"x_max":813,"o":"m 469 849 q 731 736 650 849 q 813 433 813 624 q 765 199 813 303 q 633 38 717 96 q 447 -19 549 -19 q 244 41 325 -19 q 126 202 164 101 q 89 425 89 303 q 141 649 89 553 q 281 797 193 746 q 469 849 368 849 m 454 782 q 219 435 219 782 q 280 160 219 272 q 457 49 340 49 q 683 417 683 49 q 626 682 683 582 q 454 782 569 782 z "},"1":{"ha":635,"x_min":81,"x_max":588,"o":"m 281 72 l 281 707 q 94 664 221 692 l 82 726 q 242 791 142 744 q 367 857 343 838 l 404 847 l 401 71 l 588 56 l 588 0 l 81 0 l 81 56 l 281 72 z "},"2":{"ha":828,"x_min":90,"x_max":765,"o":"m 90 50 q 417 317 286 174 q 547 583 547 460 q 501 717 547 661 q 363 774 454 774 q 233 742 300 774 q 122 671 165 710 l 92 719 q 222 815 135 772 q 404 858 310 858 q 554 826 493 858 q 645 739 615 793 q 675 624 675 685 q 554 338 675 486 q 244 75 433 189 l 647 103 l 711 206 l 765 188 l 721 0 l 108 0 l 90 50 z "},"3":{"ha":728,"x_min":44,"x_max":653,"o":"m 339 861 q 519 806 444 861 q 594 639 594 750 q 562 531 594 586 q 476 432 529 475 q 367 372 424 389 q 524 346 460 375 q 621 264 589 317 q 653 144 653 211 q 595 -34 653 51 q 433 -172 538 -119 q 197 -225 329 -225 q 85 -215 139 -225 l 85 -146 q 171 -154 129 -154 q 351 -117 269 -154 q 478 -16 432 -79 q 524 121 524 47 q 470 272 524 221 q 293 325 417 324 l 250 317 l 176 301 l 176 386 q 383 469 301 408 q 465 604 465 529 q 419 734 467 692 q 297 776 372 776 q 175 755 225 776 q 79 696 125 733 l 44 753 q 162 828 85 794 q 339 861 239 861 z "},"4":{"ha":851,"x_min":51,"x_max":786,"o":"m 51 60 q 161 257 111 168 q 334 572 261 433 q 478 864 407 710 l 518 864 l 592 808 q 203 136 438 539 l 160 72 l 526 92 l 528 418 l 639 449 l 639 100 l 786 107 l 786 0 l 639 0 l 639 -256 l 524 -256 l 526 0 l 71 0 l 51 60 z "},"5":{"ha":733,"x_min":88,"x_max":651,"o":"m 93 -169 q 138 -172 124 -172 q 322 -128 232 -172 q 467 -7 411 -83 q 522 161 522 69 q 460 340 522 282 q 294 399 399 399 q 113 364 213 399 l 88 383 l 140 839 l 508 839 l 528 851 l 599 851 l 568 735 l 232 735 l 182 433 q 356 472 265 472 q 503 439 436 472 q 611 338 571 406 q 651 175 651 271 q 586 -17 651 79 q 408 -176 521 -114 q 164 -237 296 -237 q 92 -229 119 -237 l 93 -169 z "},"6":{"ha":850,"x_min":86,"x_max":776,"o":"m 697 988 q 442 854 550 942 q 278 660 335 767 q 217 444 221 553 q 265 163 211 275 q 450 51 319 51 q 565 90 518 51 q 635 188 613 129 q 658 310 658 247 q 609 504 658 435 q 486 574 560 574 q 401 563 432 574 q 344 531 369 551 l 317 581 q 397 632 336 607 q 518 657 457 657 q 659 614 600 657 q 747 503 718 571 q 776 360 776 435 q 735 182 776 268 q 614 41 693 96 q 429 -14 535 -14 q 247 40 325 -14 q 128 183 169 93 q 86 382 86 274 q 172 689 86 547 q 393 922 258 831 q 669 1040 528 1014 l 697 988 z "},"7":{"ha":839,"x_min":96,"x_max":758,"o":"m 253 -169 q 436 233 349 28 q 656 765 524 439 l 221 751 l 160 622 l 96 628 l 129 850 l 736 850 l 758 824 l 379 -214 l 253 -169 z "},"8":{"ha":843,"x_min":88,"x_max":768,"o":"m 444 1053 q 586 1023 522 1053 q 687 940 650 993 q 724 818 724 886 q 671 658 724 740 q 532 532 618 575 q 708 406 647 465 q 768 268 768 347 q 719 108 768 172 q 594 12 671 43 q 431 -19 517 -19 q 267 10 346 -19 q 138 102 189 40 q 88 253 88 164 q 144 408 88 333 q 304 533 201 483 q 183 646 226 585 q 140 792 140 707 q 184 935 140 876 q 297 1024 228 994 q 444 1053 367 1053 m 438 992 q 341 969 386 992 q 268 906 296 946 q 240 814 240 865 q 298 689 240 743 q 464 572 356 635 q 570 651 522 588 q 619 779 618 714 q 570 932 622 872 q 438 992 518 992 m 365 496 q 251 407 297 465 q 204 282 204 349 q 234 163 204 217 q 319 77 264 108 q 450 46 375 46 q 552 69 504 46 q 629 135 600 93 q 658 228 658 176 q 628 317 658 278 q 554 385 599 356 q 433 457 510 415 q 365 496 375 490 z "},"9":{"ha":856,"x_min":83,"x_max":761,"o":"m 164 -219 q 413 -74 307 -175 q 574 151 518 26 q 633 392 629 276 q 408 785 644 785 q 293 746 340 785 q 223 648 246 707 q 200 526 200 589 q 249 333 200 403 q 374 263 299 263 q 457 276 418 263 q 515 306 496 289 l 543 256 q 460 201 515 224 q 342 179 404 179 q 201 222 260 179 q 113 333 143 265 q 83 476 83 401 q 125 654 83 568 q 246 795 167 740 q 431 850 325 850 q 610 797 535 850 q 723 653 685 743 q 761 454 761 563 q 677 119 761 278 q 460 -144 593 -39 q 188 -275 328 -249 l 164 -219 z "},"\r":{"ha":0,"x_min":0,"x_max":0,"o":""}," ":{"ha":321,"x_min":0,"x_max":0,"o":""},"A":{"ha":1014,"x_min":1,"x_max":1014,"o":"m 99 74 l 456 1054 l 561 1054 l 904 74 l 1014 56 l 1014 0 l 663 0 l 663 56 l 775 74 l 699 299 l 282 299 l 206 74 l 319 56 l 319 0 l 1 0 l 1 56 l 99 74 m 551 732 l 493 921 l 307 374 l 672 374 l 551 732 z "},"Á":{"ha":1014,"x_min":1,"x_max":1014,"o":"m 675 1303 l 765 1210 q 635 1137 706 1169 q 501 1090 564 1104 l 468 1125 l 675 1303 m 99 74 l 456 1054 l 561 1054 l 904 74 l 1014 56 l 1014 0 l 663 0 l 663 56 l 775 74 l 699 299 l 282 299 l 206 74 l 319 56 l 319 0 l 1 0 l 1 56 l 99 74 m 551 732 l 493 921 l 307 374 l 672 374 l 551 732 z "},"Ă":{"ha":1014,"x_min":1,"x_max":1014,"o":"m 1 0 m 728 1338 q 700 1233 728 1282 q 622 1156 672 1185 q 508 1126 572 1126 q 392 1156 442 1126 q 315 1233 342 1185 q 288 1338 288 1282 l 343 1338 q 393 1254 360 1292 q 510 1217 426 1217 q 603 1239 568 1217 q 651 1283 638 1261 q 676 1338 664 1306 l 728 1338 m 99 74 l 456 1054 l 561 1054 l 904 74 l 1014 56 l 1014 0 l 663 0 l 663 56 l 775 74 l 699 299 l 282 299 l 206 74 l 319 56 l 319 0 l 1 0 l 1 56 l 99 74 m 551 732 l 493 921 l 307 374 l 672 374 l 551 732 z "},"Â":{"ha":1014,"x_min":1,"x_max":1014,"o":"m 447 1303 l 567 1303 l 743 1128 l 689 1096 l 507 1217 l 322 1096 l 272 1126 l 447 1303 m 99 74 l 456 1054 l 561 1054 l 904 74 l 1014 56 l 1014 0 l 663 0 l 663 56 l 775 74 l 699 299 l 282 299 l 206 74 l 319 56 l 319 0 l 1 0 l 1 56 l 99 74 m 551 732 l 493 921 l 307 374 l 672 374 l 551 732 z "},"Ä":{"ha":1014,"x_min":1,"x_max":1014,"o":"m 357 1297 q 416 1276 396 1297 q 436 1219 436 1254 q 408 1153 436 1179 q 342 1128 379 1128 q 285 1149 308 1128 q 263 1206 263 1171 q 292 1270 263 1243 q 357 1297 322 1297 m 671 1297 q 731 1276 711 1297 q 751 1219 751 1254 q 723 1153 751 1179 q 657 1128 694 1128 q 600 1149 624 1128 q 576 1206 576 1171 q 606 1270 576 1243 q 671 1297 636 1297 m 904 74 l 1014 56 l 1014 0 l 663 0 l 663 56 l 775 74 l 699 299 l 282 299 l 206 74 l 319 56 l 319 0 l 1 0 l 1 56 l 99 74 l 456 1054 l 561 1054 l 904 74 m 307 374 l 672 374 l 551 732 l 493 921 l 307 374 z "},"À":{"ha":1014,"x_min":1,"x_max":1014,"o":"m 514 1090 q 381 1137 451 1104 q 250 1210 310 1169 l 342 1303 l 547 1125 l 514 1090 m 99 74 l 456 1054 l 561 1054 l 904 74 l 1014 56 l 1014 0 l 663 0 l 663 56 l 775 74 l 699 299 l 282 299 l 206 74 l 319 56 l 319 0 l 1 0 l 1 56 l 99 74 m 551 732 l 493 921 l 307 374 l 672 374 l 551 732 z "},"Ā":{"ha":1014,"x_min":1,"x_max":1014,"o":"m 1 0 m 688 1261 l 688 1167 l 328 1167 l 328 1261 l 688 1261 m 99 74 l 456 1054 l 561 1054 l 904 74 l 1014 56 l 1014 0 l 663 0 l 663 56 l 775 74 l 699 299 l 282 299 l 206 74 l 319 56 l 319 0 l 1 0 l 1 56 l 99 74 m 551 732 l 493 921 l 307 374 l 672 374 l 551 732 z "},"Ą":{"ha":1014,"x_min":1,"x_max":1014,"o":"m 99 74 l 456 1054 l 561 1054 l 904 74 l 1014 56 l 1014 0 l 889 0 q 801 -49 849 -15 q 722 -122 754 -82 q 689 -193 689 -161 q 710 -256 689 -237 q 779 -276 731 -274 q 849 -265 815 -278 q 925 -228 882 -251 l 940 -283 q 844 -339 897 -317 q 711 -357 792 -361 q 609 -317 643 -354 q 575 -229 575 -281 q 638 -102 575 -168 q 781 0 700 -36 l 663 0 l 663 56 l 775 74 l 699 299 l 282 299 l 206 74 l 319 56 l 319 0 l 1 0 l 1 56 l 99 74 m 551 732 l 493 921 l 307 374 l 672 374 l 551 732 z "},"Å":{"ha":1014,"x_min":1,"x_max":1014,"o":"m 507 1303 q 628 1258 578 1303 q 678 1146 678 1213 q 651 1060 678 1097 q 579 1003 624 1022 l 904 74 l 1014 56 l 1014 0 l 663 0 l 663 56 l 775 74 l 699 299 l 282 299 l 206 74 l 319 56 l 319 0 l 1 0 l 1 56 l 99 74 l 436 1001 q 363 1059 390 1021 q 335 1146 335 1097 q 385 1258 335 1213 q 507 1303 436 1303 m 507 1232 q 439 1207 467 1232 q 411 1144 411 1182 q 439 1081 411 1107 q 507 1056 467 1056 q 574 1081 546 1056 q 603 1144 603 1107 q 574 1207 603 1182 q 507 1232 546 1232 m 307 374 l 672 374 l 551 732 l 493 921 l 307 374 z "},"Ã":{"ha":1014,"x_min":1,"x_max":1014,"o":"m 238 1188 q 317 1269 264 1235 q 424 1303 371 1303 q 477 1290 456 1303 q 526 1253 499 1278 q 567 1222 551 1232 q 604 1213 583 1213 q 731 1272 674 1213 l 764 1225 q 685 1144 739 1178 q 579 1110 632 1110 q 525 1123 547 1110 q 475 1161 503 1136 q 434 1193 450 1183 q 397 1203 418 1203 q 330 1185 364 1203 q 271 1143 296 1168 l 238 1188 m 99 74 l 456 1054 l 561 1054 l 904 74 l 1014 56 l 1014 0 l 663 0 l 663 56 l 775 74 l 699 299 l 282 299 l 206 74 l 319 56 l 319 0 l 1 0 l 1 56 l 99 74 m 551 732 l 493 921 l 307 374 l 672 374 l 551 732 z "},"Æ":{"ha":1315,"x_min":1,"x_max":1268,"o":"m 96 74 l 493 1053 l 1146 1053 l 1167 858 l 1101 857 l 1071 978 l 646 986 l 764 588 l 1036 592 l 1056 699 l 1114 699 l 1114 414 l 1056 414 l 1036 515 l 785 518 l 919 69 l 1146 81 l 1213 225 l 1268 197 l 1238 0 l 667 0 l 667 56 l 781 74 l 708 314 l 293 314 l 203 74 l 319 56 l 319 0 l 1 0 l 1 56 l 96 74 m 553 813 l 529 939 l 321 388 l 685 388 l 553 813 z "},"B":{"ha":963,"x_min":72,"x_max":900,"o":"m 189 74 l 189 979 l 75 990 l 75 1053 l 244 1053 l 307 1057 q 497 1063 435 1064 q 745 999 658 1061 q 832 825 832 936 q 781 656 832 726 q 631 565 731 586 q 767 532 706 564 q 864 442 828 500 q 900 310 900 385 q 788 77 900 164 q 461 -10 676 -10 q 281 -3 410 -10 q 242 0 253 0 l 72 0 l 72 56 l 189 74 m 311 592 q 410 588 338 588 l 486 588 q 653 642 592 588 q 714 803 714 697 q 647 946 714 897 q 472 994 579 994 q 384 993 435 994 q 313 985 333 992 l 311 592 m 311 85 q 387 67 331 75 q 489 60 443 60 q 692 113 614 60 q 769 286 769 167 q 703 457 769 403 q 507 511 636 511 l 404 513 q 311 508 349 513 l 311 85 z "},"C":{"ha":957,"x_min":58,"x_max":890,"o":"m 607 1063 q 732 1052 676 1063 q 850 1024 788 1042 l 889 1014 l 878 819 l 811 819 l 778 936 q 687 976 735 964 q 568 989 639 989 q 380 935 467 989 q 241 776 293 881 q 189 532 189 672 q 233 290 189 400 q 365 114 278 179 q 572 49 451 49 q 799 126 735 49 l 835 235 l 890 235 l 890 43 q 847 35 872 42 q 813 25 822 28 q 690 -8 750 4 q 544 -19 629 -19 q 294 46 406 -19 q 121 228 183 111 q 58 493 58 344 q 133 791 58 661 q 334 992 208 921 q 607 1063 460 1063 z "},"Ć":{"ha":957,"x_min":58,"x_max":890,"o":"m 58 0 m 607 1063 q 732 1052 676 1063 q 850 1024 788 1042 l 889 1014 l 878 819 l 811 819 l 778 936 q 687 976 735 964 q 568 989 639 989 q 380 935 467 989 q 241 776 293 881 q 189 532 189 672 q 233 290 189 400 q 365 114 278 179 q 572 49 451 49 q 799 126 735 49 l 835 235 l 890 235 l 890 43 q 847 35 872 42 q 813 25 822 28 q 690 -8 750 4 q 544 -19 629 -19 q 294 46 406 -19 q 121 228 183 111 q 58 493 58 344 q 133 791 58 661 q 334 992 208 921 q 607 1063 460 1063 m 703 1303 l 794 1210 q 664 1137 735 1169 q 532 1090 593 1104 l 497 1125 l 703 1303 z "},"Č":{"ha":957,"x_min":58,"x_max":890,"o":"m 58 0 m 607 1063 q 732 1052 676 1063 q 850 1024 788 1042 l 889 1014 l 878 819 l 811 819 l 778 936 q 687 976 735 964 q 568 989 639 989 q 380 935 467 989 q 241 776 293 881 q 189 532 189 672 q 233 290 189 400 q 365 114 278 179 q 572 49 451 49 q 799 126 735 49 l 835 235 l 890 235 l 890 43 q 847 35 872 42 q 813 25 822 28 q 690 -8 750 4 q 544 -19 629 -19 q 294 46 406 -19 q 121 228 183 111 q 58 493 58 344 q 133 791 58 661 q 334 992 208 921 q 607 1063 460 1063 m 367 1303 l 538 1185 l 711 1303 l 761 1272 l 596 1099 l 478 1099 l 311 1271 l 367 1303 z "},"Ç":{"ha":957,"x_min":58,"x_max":890,"o":"m 607 1063 q 732 1052 676 1063 q 850 1024 788 1042 l 889 1014 l 878 819 l 811 819 l 778 936 q 687 976 735 964 q 568 989 639 989 q 380 935 467 989 q 241 776 293 881 q 189 532 189 672 q 233 290 189 400 q 365 114 278 179 q 572 49 451 49 q 799 126 735 49 l 835 235 l 890 235 l 890 43 q 814 25 865 42 q 702 -4 756 7 q 575 -18 649 -15 l 574 -51 l 575 -85 q 708 -122 663 -83 q 753 -212 753 -161 q 704 -317 753 -279 q 579 -357 656 -354 l 549 -358 q 481 -351 507 -358 q 446 -343 454 -344 l 446 -279 q 486 -286 461 -283 q 528 -289 511 -289 q 602 -274 575 -289 q 629 -211 629 -258 q 601 -158 629 -176 q 518 -139 572 -139 q 496 -140 506 -139 q 482 -142 486 -142 q 500 -17 482 -83 q 272 60 372 -7 q 115 240 171 128 q 58 493 58 353 q 133 791 58 661 q 334 992 208 921 q 607 1063 460 1063 z "},"D":{"ha":1081,"x_min":72,"x_max":1019,"o":"m 189 74 l 189 979 l 75 990 l 75 1053 l 250 1053 q 401 1058 315 1053 q 452 1061 418 1060 q 514 1063 486 1063 q 893 929 767 1063 q 1019 554 1019 796 q 951 256 1019 383 q 764 61 883 129 q 493 -7 644 -7 q 389 -4 464 -7 q 253 0 324 0 l 72 0 l 72 56 l 189 74 m 313 82 q 483 63 397 63 q 688 113 596 63 q 835 266 781 163 q 890 522 890 369 q 784 872 890 753 q 488 992 678 992 q 313 978 386 992 l 313 82 z "},"Ð":{"ha":1081,"x_min":65,"x_max":1019,"o":"m 188 74 l 188 499 l 65 499 l 65 590 l 188 590 l 188 979 l 75 990 l 75 1053 l 250 1053 q 400 1058 317 1053 q 452 1061 418 1060 q 514 1063 486 1063 q 892 929 765 1063 q 1019 554 1019 796 q 951 256 1019 383 q 764 61 883 129 q 493 -7 644 -7 q 388 -4 463 -7 q 253 0 325 0 l 72 0 l 72 56 l 188 74 m 313 82 q 483 63 397 63 q 688 113 596 63 q 835 266 781 163 q 890 522 890 369 q 784 872 890 753 q 488 992 678 992 q 313 978 386 992 l 313 590 l 490 590 l 490 499 l 313 499 l 313 82 z "},"Ď":{"ha":1081,"x_min":72,"x_max":1019,"o":"m 72 0 m 189 74 l 189 979 l 75 990 l 75 1053 l 250 1053 q 401 1058 315 1053 q 452 1061 418 1060 q 514 1063 486 1063 q 893 929 767 1063 q 1019 554 1019 796 q 951 256 1019 383 q 764 61 883 129 q 493 -7 644 -7 q 389 -4 464 -7 q 253 0 324 0 l 72 0 l 72 56 l 189 74 m 313 82 q 483 63 397 63 q 688 113 596 63 q 835 266 781 163 q 890 522 890 369 q 784 872 890 753 q 488 992 678 992 q 313 978 386 992 l 313 82 m 319 1303 l 490 1185 l 664 1303 l 714 1272 l 549 1099 l 431 1099 l 264 1271 l 319 1303 z "},"Đ":{"ha":1081,"x_min":65,"x_max":1019,"o":"m 65 0 m 188 74 l 188 499 l 65 499 l 65 590 l 188 590 l 188 979 l 75 990 l 75 1053 l 250 1053 q 400 1058 317 1053 q 452 1061 418 1060 q 514 1063 486 1063 q 892 929 765 1063 q 1019 554 1019 796 q 951 256 1019 383 q 764 61 883 129 q 493 -7 644 -7 q 388 -4 463 -7 q 253 0 325 0 l 72 0 l 72 56 l 188 74 m 313 82 q 483 63 397 63 q 688 113 596 63 q 835 266 781 163 q 890 522 890 369 q 784 872 890 753 q 488 992 678 992 q 313 978 386 992 l 313 590 l 490 590 l 490 499 l 313 499 l 313 82 z "},"E":{"ha":896,"x_min":69,"x_max":851,"o":"m 186 74 l 186 979 l 72 990 l 72 1053 l 778 1053 l 797 858 l 726 858 l 694 978 l 308 986 l 308 586 l 568 592 l 588 699 l 653 699 l 653 407 l 588 407 l 568 515 l 308 519 l 308 69 l 724 81 l 790 226 l 851 211 l 821 0 l 69 0 l 69 56 l 186 74 z "},"É":{"ha":896,"x_min":69,"x_max":851,"o":"m 658 1303 l 749 1210 q 620 1137 690 1169 q 488 1090 550 1104 l 453 1125 l 658 1303 m 186 74 l 186 979 l 72 990 l 72 1053 l 778 1053 l 797 858 l 726 858 l 694 978 l 308 986 l 308 586 l 568 592 l 588 699 l 653 699 l 653 407 l 588 407 l 568 515 l 308 519 l 308 69 l 724 81 l 790 226 l 851 211 l 821 0 l 69 0 l 69 56 l 186 74 z "},"Ě":{"ha":896,"x_min":69,"x_max":851,"o":"m 69 0 m 186 74 l 186 979 l 72 990 l 72 1053 l 778 1053 l 797 858 l 726 858 l 694 978 l 308 986 l 308 586 l 568 592 l 588 699 l 653 699 l 653 407 l 588 407 l 568 515 l 308 519 l 308 69 l 724 81 l 790 226 l 851 211 l 821 0 l 69 0 l 69 56 l 186 74 m 283 1303 l 454 1185 l 628 1303 l 678 1272 l 513 1099 l 394 1099 l 228 1271 l 283 1303 z "},"Ê":{"ha":896,"x_min":69,"x_max":851,"o":"m 432 1303 l 551 1303 l 729 1128 l 674 1096 l 492 1217 l 307 1096 l 257 1126 l 432 1303 m 186 74 l 186 979 l 72 990 l 72 1053 l 778 1053 l 797 858 l 726 858 l 694 978 l 308 986 l 308 586 l 568 592 l 588 699 l 653 699 l 653 407 l 588 407 l 568 515 l 308 519 l 308 69 l 724 81 l 790 226 l 851 211 l 821 0 l 69 0 l 69 56 l 186 74 z "},"Ë":{"ha":896,"x_min":69,"x_max":851,"o":"m 340 1297 q 401 1276 381 1297 q 421 1219 421 1254 q 392 1153 421 1179 q 325 1128 363 1128 q 269 1149 293 1128 q 246 1206 246 1171 q 275 1271 246 1244 q 340 1297 304 1297 m 654 1297 q 715 1276 694 1297 q 735 1219 735 1254 q 706 1153 735 1179 q 640 1128 678 1128 q 583 1149 607 1128 q 560 1206 560 1171 q 589 1270 560 1243 q 654 1297 618 1297 m 797 858 l 726 858 l 694 978 l 308 986 l 308 586 l 568 592 l 588 699 l 653 699 l 653 407 l 588 407 l 568 515 l 308 519 l 308 69 l 724 81 l 790 226 l 851 211 l 821 0 l 69 0 l 69 56 l 186 74 l 186 979 l 72 990 l 72 1053 l 778 1053 l 797 858 z "},"Ė":{"ha":896,"x_min":69,"x_max":851,"o":"m 69 0 m 186 74 l 186 979 l 72 990 l 72 1053 l 778 1053 l 797 858 l 726 858 l 694 978 l 308 986 l 308 586 l 568 592 l 588 699 l 653 699 l 653 407 l 588 407 l 568 515 l 308 519 l 308 69 l 724 81 l 790 226 l 851 211 l 821 0 l 69 0 l 69 56 l 186 74 m 494 1251 q 531 1215 531 1251 q 517 1185 531 1197 q 488 1174 504 1174 q 463 1183 475 1174 q 451 1208 451 1193 q 465 1238 451 1225 q 494 1251 478 1251 z "},"È":{"ha":896,"x_min":69,"x_max":851,"o":"m 499 1090 q 367 1137 438 1104 q 236 1210 296 1169 l 326 1303 l 532 1125 l 499 1090 m 186 74 l 186 979 l 72 990 l 72 1053 l 778 1053 l 797 858 l 726 858 l 694 978 l 308 986 l 308 586 l 568 592 l 588 699 l 653 699 l 653 407 l 588 407 l 568 515 l 308 519 l 308 69 l 724 81 l 790 226 l 851 211 l 821 0 l 69 0 l 69 56 l 186 74 z "},"Ē":{"ha":896,"x_min":69,"x_max":851,"o":"m 69 0 m 186 74 l 186 979 l 72 990 l 72 1053 l 778 1053 l 797 858 l 726 858 l 694 978 l 308 986 l 308 586 l 568 592 l 588 699 l 653 699 l 653 407 l 588 407 l 568 515 l 308 519 l 308 69 l 724 81 l 790 226 l 851 211 l 821 0 l 69 0 l 69 56 l 186 74 m 674 1261 l 674 1167 l 314 1167 l 314 1261 l 674 1261 z "},"Ę":{"ha":896,"x_min":69,"x_max":871,"o":"m 186 74 l 186 979 l 72 990 l 72 1053 l 778 1053 l 797 858 l 726 858 l 694 978 l 308 986 l 308 586 l 568 592 l 588 699 l 653 699 l 653 407 l 588 407 l 568 515 l 308 519 l 308 69 l 724 81 l 790 226 l 851 211 l 821 0 l 819 0 q 732 -49 779 -15 q 653 -122 685 -83 q 621 -193 621 -161 q 642 -256 621 -237 q 710 -276 663 -274 q 777 -265 743 -278 q 832 -242 811 -253 q 858 -228 853 -231 l 871 -283 q 777 -339 831 -317 q 642 -357 724 -361 q 542 -317 575 -354 q 508 -229 508 -281 q 570 -102 508 -168 q 713 0 632 -36 l 69 0 l 69 56 l 186 74 z "},"F":{"ha":840,"x_min":71,"x_max":815,"o":"m 190 74 l 190 979 l 76 990 l 76 1053 l 803 1053 l 815 858 l 753 857 l 721 975 l 314 983 l 314 572 l 615 578 l 640 679 l 704 679 l 704 393 l 633 393 l 615 497 l 314 503 l 314 74 l 515 60 l 515 0 l 71 0 l 71 56 l 190 74 z "},"G":{"ha":1042,"x_min":58,"x_max":1001,"o":"m 603 1063 q 763 1051 697 1063 q 865 1031 828 1040 q 913 1018 903 1021 l 901 825 l 835 825 l 801 940 q 722 974 785 958 q 565 989 658 990 q 377 933 464 988 q 239 774 290 878 q 188 532 188 671 q 229 294 188 404 q 355 116 271 183 q 560 49 439 49 q 694 65 631 49 q 792 118 757 81 l 792 407 l 621 418 l 621 481 l 1001 481 l 1001 418 l 915 406 l 915 54 q 865 44 897 53 q 822 32 832 35 q 665 -6 729 7 q 531 -19 600 -19 q 285 47 393 -19 q 118 229 178 113 q 58 493 58 346 q 132 792 58 663 q 330 992 206 921 q 603 1063 454 1063 z "},"Ğ":{"ha":1042,"x_min":58,"x_max":1001,"o":"m 58 0 m 603 1063 q 763 1051 697 1063 q 865 1031 828 1040 q 913 1018 903 1021 l 901 825 l 835 825 l 801 940 q 722 974 785 958 q 565 989 658 990 q 377 933 464 988 q 239 774 290 878 q 188 532 188 671 q 229 294 188 404 q 355 116 271 183 q 560 49 439 49 q 694 65 631 49 q 792 118 757 81 l 792 407 l 621 418 l 621 481 l 1001 481 l 1001 418 l 915 406 l 915 54 q 865 44 897 53 q 822 32 832 35 q 665 -6 729 7 q 531 -19 600 -19 q 285 47 393 -19 q 118 229 178 113 q 58 493 58 346 q 132 792 58 663 q 330 992 206 921 q 603 1063 454 1063 m 786 1303 q 758 1199 786 1247 q 681 1121 731 1150 q 567 1092 631 1092 q 450 1121 500 1092 q 373 1199 400 1150 q 346 1303 346 1247 l 401 1303 q 451 1219 418 1257 q 568 1182 485 1182 q 661 1204 626 1182 q 709 1249 696 1226 q 735 1303 722 1271 l 786 1303 z "},"Ģ":{"ha":1042,"x_min":58,"x_max":1001,"o":"m 58 0 m 603 1063 q 763 1051 697 1063 q 865 1031 828 1040 q 913 1018 903 1021 l 901 825 l 835 825 l 801 940 q 722 974 785 958 q 565 989 658 990 q 377 933 464 988 q 239 774 290 878 q 188 532 188 671 q 229 294 188 404 q 355 116 271 183 q 560 49 439 49 q 694 65 631 49 q 792 118 757 81 l 792 407 l 621 418 l 621 481 l 1001 481 l 1001 418 l 915 406 l 915 54 q 865 44 897 53 q 822 32 832 35 q 665 -6 729 7 q 531 -19 600 -19 q 285 47 393 -19 q 118 229 178 113 q 58 493 58 346 q 132 792 58 663 q 330 992 206 921 q 603 1063 454 1063 m 529 -35 q 631 -99 594 -50 q 668 -201 667 -147 q 641 -308 668 -258 q 575 -390 614 -357 q 501 -435 536 -424 l 467 -403 l 467 -385 q 521 -324 503 -368 q 539 -228 539 -279 q 514 -162 539 -190 q 465 -135 489 -135 l 465 -100 l 529 -35 z "},"H":{"ha":1158,"x_min":72,"x_max":1086,"o":"m 188 74 l 188 979 l 75 990 l 75 1053 l 421 1053 l 421 990 l 311 979 l 311 549 l 844 549 l 844 979 l 733 990 l 733 1053 l 1076 1053 l 1076 990 l 968 979 l 968 74 l 1086 56 l 1086 0 l 728 0 l 728 56 l 844 74 l 844 474 l 311 474 l 311 74 l 426 56 l 426 0 l 72 0 l 72 56 l 188 74 z "},"I":{"ha":519,"x_min":76,"x_max":442,"o":"m 196 74 l 196 979 l 79 990 l 79 1053 l 436 1053 l 436 990 l 319 979 l 319 74 l 442 56 l 442 0 l 76 0 l 76 56 l 196 74 z "},"Ĳ":{"ha":1008,"x_min":76,"x_max":951,"o":"m 196 74 l 196 979 l 79 990 l 79 1053 l 436 1053 l 436 990 l 319 979 l 319 74 l 442 56 l 442 0 l 76 0 l 76 56 l 196 74 m 461 -218 q 600 -148 542 -193 q 683 -40 658 -103 q 707 83 701 14 q 713 272 713 153 l 713 979 l 600 990 l 600 1053 l 951 1053 l 951 990 l 836 979 l 836 357 l 838 219 q 824 29 838 99 q 756 -115 807 -53 q 637 -215 706 -178 q 494 -264 568 -253 l 461 -218 z "},"Í":{"ha":519,"x_min":76,"x_max":518,"o":"m 426 1303 l 518 1210 q 388 1137 458 1169 q 256 1090 317 1104 l 221 1125 l 426 1303 m 196 74 l 196 979 l 79 990 l 79 1053 l 436 1053 l 436 990 l 319 979 l 319 74 l 442 56 l 442 0 l 76 0 l 76 56 l 196 74 z "},"Î":{"ha":519,"x_min":26,"x_max":497,"o":"m 201 1303 l 321 1303 l 497 1128 l 443 1096 l 261 1217 l 76 1096 l 26 1126 l 201 1303 m 196 74 l 196 979 l 79 990 l 79 1053 l 436 1053 l 436 990 l 319 979 l 319 74 l 442 56 l 442 0 l 76 0 l 76 56 l 196 74 z "},"Ï":{"ha":519,"x_min":14,"x_max":504,"o":"m 108 1297 q 169 1276 149 1297 q 189 1219 189 1254 q 160 1153 189 1179 q 93 1128 131 1128 q 38 1149 61 1128 q 14 1206 14 1171 q 44 1270 14 1243 q 108 1297 74 1297 m 425 1297 q 484 1276 464 1297 q 504 1219 504 1254 q 476 1153 504 1179 q 410 1128 447 1128 q 353 1149 376 1128 q 329 1206 329 1171 q 359 1270 329 1243 q 425 1297 389 1297 m 436 990 l 319 979 l 319 74 l 442 56 l 442 0 l 76 0 l 76 56 l 196 74 l 196 979 l 79 990 l 79 1053 l 436 1053 l 436 990 z "},"İ":{"ha":519,"x_min":76,"x_max":442,"o":"m 76 0 m 196 74 l 196 979 l 79 990 l 79 1053 l 436 1053 l 436 990 l 319 979 l 319 74 l 442 56 l 442 0 l 76 0 l 76 56 l 196 74 m 263 1251 q 299 1215 299 1251 q 285 1185 299 1197 q 256 1174 272 1174 q 231 1183 243 1174 q 219 1208 219 1193 q 233 1238 219 1225 q 263 1251 246 1251 z "},"Ì":{"ha":519,"x_min":4,"x_max":442,"o":"m 267 1090 q 135 1137 206 1104 q 4 1210 64 1169 l 94 1303 l 300 1125 l 267 1090 m 196 74 l 196 979 l 79 990 l 79 1053 l 436 1053 l 436 990 l 319 979 l 319 74 l 442 56 l 442 0 l 76 0 l 76 56 l 196 74 z "},"Ī":{"ha":503,"x_min":72,"x_max":442,"o":"m 72 0 m 432 1289 l 432 1194 l 72 1194 l 72 1289 l 432 1289 m 196 74 l 196 979 l 79 990 l 79 1053 l 436 1053 l 436 990 l 319 979 l 319 74 l 442 56 l 442 0 l 76 0 l 76 56 l 196 74 z "},"Į":{"ha":519,"x_min":76,"x_max":442,"o":"m 442 56 l 442 0 l 404 0 q 315 -47 361 -14 q 238 -120 268 -81 q 207 -190 207 -160 q 226 -254 207 -232 q 293 -276 246 -276 q 341 -269 313 -276 q 389 -251 369 -261 l 403 -308 q 326 -343 374 -329 q 225 -357 278 -357 q 129 -321 168 -357 q 90 -226 90 -285 q 121 -142 90 -187 q 201 -59 151 -97 q 304 0 250 -21 l 76 0 l 76 56 l 196 74 l 196 979 l 79 990 l 79 1053 l 436 1053 l 436 990 l 319 979 l 319 74 l 442 56 z "},"Ĩ":{"ha":519,"x_min":-7,"x_max":519,"o":"m -7 1188 q 72 1269 19 1236 q 178 1303 125 1303 q 232 1290 208 1303 q 281 1253 256 1276 q 322 1222 306 1232 q 360 1213 339 1213 q 485 1272 428 1213 l 519 1225 q 440 1143 493 1176 q 335 1110 388 1110 q 280 1123 303 1110 q 229 1161 257 1136 q 190 1192 207 1182 q 153 1203 174 1203 q 85 1185 119 1203 q 26 1143 50 1167 l -7 1188 m 196 74 l 196 979 l 79 990 l 79 1053 l 436 1053 l 436 990 l 319 979 l 319 74 l 442 56 l 442 0 l 76 0 l 76 56 l 196 74 z "},"J":{"ha":490,"x_min":-58,"x_max":431,"o":"m 431 990 l 318 979 l 318 357 l 318 265 q 304 29 318 104 q 237 -115 288 -53 q 117 -215 186 -178 q -26 -264 47 -253 l -58 -218 q 80 -148 22 -193 q 163 -40 138 -103 q 188 85 182 15 q 194 272 194 156 l 194 979 l 79 990 l 79 1053 l 431 1053 l 431 990 z "},"Ĵ":{"ha":490,"x_min":-58,"x_max":493,"o":"m 493 1128 l 439 1096 l 257 1217 l 72 1096 l 22 1126 l 199 1303 l 317 1303 l 493 1128 m 431 990 l 318 979 l 318 357 l 318 265 q 304 29 318 104 q 237 -115 288 -53 q 117 -215 186 -178 q -26 -264 47 -253 l -58 -218 q 80 -148 22 -193 q 163 -40 138 -103 q 188 85 182 15 q 194 272 194 156 l 194 979 l 79 990 l 79 1053 l 431 1053 l 431 990 z "},"K":{"ha":964,"x_min":71,"x_max":976,"o":"m 183 74 l 183 979 l 74 990 l 74 1053 l 418 1053 l 418 990 l 307 979 l 307 501 l 708 979 l 601 990 l 601 1053 l 932 1053 l 932 990 l 822 979 l 497 608 q 669 353 539 563 q 801 149 753 219 q 868 78 850 79 l 976 56 l 976 0 l 775 0 q 722 56 758 0 q 613 238 686 111 q 503 424 547 353 q 426 525 458 494 l 307 390 l 307 72 l 431 56 l 431 0 l 71 0 l 71 56 l 183 74 z "},"Ķ":{"ha":964,"x_min":71,"x_max":976,"o":"m 71 0 m 183 74 l 183 979 l 74 990 l 74 1053 l 418 1053 l 418 990 l 307 979 l 307 501 l 708 979 l 601 990 l 601 1053 l 932 1053 l 932 990 l 822 979 l 497 608 q 669 353 539 563 q 801 149 753 219 q 868 78 850 79 l 976 56 l 976 0 l 775 0 q 722 56 758 0 q 613 238 686 111 q 503 424 547 353 q 426 525 458 494 l 307 390 l 307 72 l 431 56 l 431 0 l 71 0 l 71 56 l 183 74 m 540 -35 q 642 -99 606 -50 q 679 -201 678 -147 q 652 -308 679 -258 q 586 -390 625 -357 q 513 -435 547 -424 l 478 -403 l 478 -385 q 532 -324 514 -368 q 550 -228 550 -279 q 525 -162 550 -190 q 476 -135 500 -135 l 476 -100 l 540 -35 z "},"L":{"ha":843,"x_min":72,"x_max":825,"o":"m 189 74 l 189 974 l 75 983 l 75 1053 l 436 1053 l 436 983 l 313 974 l 311 71 l 688 86 l 768 250 l 825 222 l 781 0 l 72 0 l 72 56 l 189 74 z "},"Ĺ":{"ha":843,"x_min":72,"x_max":825,"o":"m 72 0 m 189 74 l 189 974 l 75 983 l 75 1053 l 436 1053 l 436 983 l 313 974 l 311 71 l 688 86 l 768 250 l 825 222 l 781 0 l 72 0 l 72 56 l 189 74 m 418 1303 l 510 1210 q 379 1137 450 1169 q 247 1090 308 1104 l 213 1125 l 418 1303 z "},"Ľ":{"ha":843,"x_min":72,"x_max":825,"o":"m 72 0 m 189 74 l 189 974 l 75 983 l 75 1053 l 436 1053 l 436 983 l 313 974 l 311 71 l 688 86 l 768 250 l 825 222 l 781 0 l 72 0 l 72 56 l 189 74 m 567 746 q 590 913 590 829 q 580 1021 590 971 q 556 1086 569 1071 l 565 1115 l 663 1142 q 694 1077 682 1122 q 706 982 706 1032 q 681 818 706 900 q 621 704 656 736 l 568 729 l 567 746 z "},"Ļ":{"ha":843,"x_min":72,"x_max":825,"o":"m 72 0 m 189 74 l 189 974 l 75 983 l 75 1053 l 436 1053 l 436 983 l 313 974 l 311 71 l 688 86 l 768 250 l 825 222 l 781 0 l 72 0 l 72 56 l 189 74 m 407 -35 q 508 -99 472 -50 q 546 -201 544 -147 q 519 -308 546 -258 q 453 -390 492 -357 q 379 -435 414 -424 l 344 -403 l 344 -385 q 399 -324 381 -368 q 417 -228 417 -279 q 392 -162 417 -190 q 343 -135 367 -135 l 343 -100 l 407 -35 z "},"Ŀ":{"ha":944,"x_min":72,"x_max":901,"o":"m 436 983 l 313 974 l 311 71 l 688 86 l 768 250 l 825 222 l 781 0 l 72 0 l 72 56 l 189 74 l 189 974 l 75 983 l 75 1053 l 436 1053 l 436 983 m 825 657 q 882 636 863 657 q 901 582 901 615 q 874 518 901 543 q 811 493 847 493 q 756 513 779 493 q 732 568 732 533 q 761 631 732 606 q 825 657 790 657 z "},"Ł":{"ha":843,"x_min":63,"x_max":824,"o":"m 436 983 l 313 974 l 311 531 l 354 549 q 557 631 496 607 l 679 679 l 679 578 l 311 435 l 311 71 l 688 86 l 768 250 l 824 222 l 779 0 l 71 0 l 71 56 l 188 74 l 188 388 l 63 339 l 63 385 l 63 431 l 188 482 l 188 974 l 74 983 l 74 1053 l 436 1053 l 436 983 z "},"M":{"ha":1342,"x_min":53,"x_max":1315,"o":"m 172 74 l 239 974 l 106 985 l 106 1053 l 411 1053 l 663 299 l 693 199 l 724 300 l 963 1053 l 1244 1053 l 1244 985 l 1115 974 l 1193 74 l 1315 56 l 1315 0 l 958 0 l 958 56 l 1078 74 l 1019 726 l 1013 961 l 982 843 l 696 -10 l 653 -10 l 386 749 q 313 965 363 815 l 306 722 l 271 74 l 406 56 l 406 0 l 53 0 l 53 56 l 172 74 z "},"N":{"ha":1128,"x_min":71,"x_max":1076,"o":"m 1076 985 l 963 974 l 963 0 l 831 0 l 374 719 l 278 910 l 278 74 l 413 56 l 413 0 l 71 0 l 71 56 l 188 74 l 188 974 l 75 983 l 75 1053 l 311 1053 l 775 299 l 872 114 l 872 972 l 758 985 l 758 1053 l 1076 1053 l 1076 985 z "},"Ń":{"ha":1128,"x_min":71,"x_max":1076,"o":"m 71 0 m 1076 985 l 963 974 l 963 0 l 831 0 l 374 719 l 278 910 l 278 74 l 413 56 l 413 0 l 71 0 l 71 56 l 188 74 l 188 974 l 75 983 l 75 1053 l 311 1053 l 775 299 l 872 114 l 872 972 l 758 985 l 758 1053 l 1076 1053 l 1076 985 m 732 1303 l 824 1210 q 693 1137 764 1169 q 561 1090 622 1104 l 526 1125 l 732 1303 z "},"Ň":{"ha":1128,"x_min":71,"x_max":1076,"o":"m 71 0 m 1076 985 l 963 974 l 963 0 l 831 0 l 374 719 l 278 910 l 278 74 l 413 56 l 413 0 l 71 0 l 71 56 l 188 74 l 188 974 l 75 983 l 75 1053 l 311 1053 l 775 299 l 872 114 l 872 972 l 758 985 l 758 1053 l 1076 1053 l 1076 985 m 410 1303 l 581 1185 l 754 1303 l 804 1272 l 639 1099 l 521 1099 l 354 1271 l 410 1303 z "},"Ņ":{"ha":1128,"x_min":71,"x_max":1076,"o":"m 71 0 m 1076 985 l 963 974 l 963 0 l 831 0 l 374 719 l 278 910 l 278 74 l 413 56 l 413 0 l 71 0 l 71 56 l 188 74 l 188 974 l 75 983 l 75 1053 l 311 1053 l 775 299 l 872 114 l 872 972 l 758 985 l 758 1053 l 1076 1053 l 1076 985 m 571 -35 q 672 -99 636 -50 q 710 -201 708 -147 q 683 -308 710 -258 q 617 -390 656 -357 q 543 -435 578 -424 l 508 -403 l 508 -385 q 563 -324 544 -368 q 581 -228 581 -279 q 556 -162 581 -190 q 507 -135 531 -135 l 507 -100 l 571 -35 z "},"Ñ":{"ha":1128,"x_min":71,"x_max":1076,"o":"m 71 0 m 1076 985 l 963 974 l 963 0 l 831 0 l 374 719 l 278 910 l 278 74 l 413 56 l 413 0 l 71 0 l 71 56 l 188 74 l 188 974 l 75 983 l 75 1053 l 311 1053 l 775 299 l 872 114 l 872 972 l 758 985 l 758 1053 l 1076 1053 l 1076 985 m 296 1188 q 375 1269 322 1236 q 481 1303 428 1303 q 535 1290 513 1303 q 586 1253 557 1278 q 626 1222 610 1232 q 663 1213 642 1213 q 788 1272 731 1213 l 822 1225 q 743 1143 796 1176 q 638 1110 690 1110 q 583 1123 606 1110 q 532 1161 560 1136 q 493 1192 510 1182 q 456 1203 476 1203 q 388 1185 422 1203 q 329 1143 354 1168 l 296 1188 z "},"O":{"ha":1054,"x_min":61,"x_max":997,"o":"m 560 1063 q 791 997 692 1063 q 944 815 890 931 q 997 551 997 699 q 933 246 997 375 q 760 49 869 117 q 517 -19 650 -19 q 277 47 381 -19 q 117 231 174 114 q 61 497 61 349 q 131 806 61 675 q 318 1001 201 936 q 560 1063 429 1063 m 535 994 q 358 937 433 994 q 240 770 282 879 q 199 511 199 661 q 240 281 199 386 q 358 112 281 175 q 538 49 435 49 q 710 107 638 49 q 822 275 783 165 q 861 535 861 385 q 823 764 861 658 q 710 932 785 869 q 535 994 636 994 z "},"Ó":{"ha":1054,"x_min":61,"x_max":996,"o":"m 794 1210 q 665 1137 736 1169 q 532 1090 594 1104 l 497 1125 l 704 1303 l 794 1210 m 558 1063 q 790 997 690 1063 q 942 814 889 931 q 996 549 996 697 q 932 245 996 374 q 758 49 868 117 q 515 -19 649 -19 q 277 47 381 -19 q 117 231 174 114 q 61 497 61 349 q 128 800 61 672 q 308 995 194 928 q 558 1063 421 1063 m 535 994 q 358 937 433 994 q 240 770 282 879 q 199 511 199 661 q 240 281 199 386 q 358 112 281 175 q 538 49 435 49 q 710 107 638 49 q 822 275 783 165 q 861 535 861 385 q 823 764 861 658 q 710 932 785 869 q 535 994 636 994 z "},"Ô":{"ha":1054,"x_min":61,"x_max":996,"o":"m 774 1128 l 718 1096 l 538 1217 l 353 1096 l 303 1126 l 478 1303 l 597 1303 l 774 1128 m 558 1063 q 790 997 690 1063 q 942 814 889 931 q 996 549 996 697 q 932 245 996 374 q 758 49 868 117 q 515 -19 649 -19 q 277 47 381 -19 q 117 231 174 114 q 61 497 61 349 q 128 800 61 672 q 308 995 194 928 q 558 1063 421 1063 m 535 994 q 358 937 433 994 q 240 770 282 879 q 199 511 199 661 q 240 281 199 386 q 358 112 281 175 q 538 49 435 49 q 710 107 638 49 q 822 275 783 165 q 861 535 861 385 q 823 764 861 658 q 710 932 785 869 q 535 994 636 994 z "},"Ö":{"ha":1054,"x_min":61,"x_max":997,"o":"m 61 0 m 560 1063 q 791 997 692 1063 q 944 815 890 931 q 997 551 997 699 q 933 246 997 375 q 760 49 869 117 q 517 -19 650 -19 q 277 47 381 -19 q 117 231 174 114 q 61 497 61 349 q 131 806 61 675 q 318 1001 201 936 q 560 1063 429 1063 m 535 994 q 358 937 433 994 q 240 770 282 879 q 199 511 199 661 q 240 281 199 386 q 358 112 281 175 q 538 49 435 49 q 710 107 638 49 q 822 275 783 165 q 861 535 861 385 q 823 764 861 658 q 710 932 785 869 q 535 994 636 994 m 603 1297 q 663 1276 643 1297 q 683 1219 683 1254 q 654 1153 683 1179 q 588 1128 625 1128 q 535 1147 557 1128 q 476 1128 508 1128 q 419 1149 443 1128 q 396 1204 396 1169 q 426 1270 396 1243 q 492 1297 456 1297 q 546 1279 525 1297 q 600 1297 572 1297 l 603 1297 z "},"Ò":{"ha":1054,"x_min":61,"x_max":997,"o":"m 61 0 m 560 1063 q 791 997 692 1063 q 944 815 890 931 q 997 551 997 699 q 933 246 997 375 q 760 49 869 117 q 517 -19 650 -19 q 277 47 381 -19 q 117 231 174 114 q 61 497 61 349 q 131 806 61 675 q 318 1001 201 936 q 560 1063 429 1063 m 535 994 q 358 937 433 994 q 240 770 282 879 q 199 511 199 661 q 240 281 199 386 q 358 112 281 175 q 538 49 435 49 q 710 107 638 49 q 822 275 783 165 q 861 535 861 385 q 823 764 861 658 q 710 932 785 869 q 535 994 636 994 m 543 1090 q 411 1137 482 1104 q 281 1210 340 1169 l 371 1303 l 578 1125 l 543 1090 z "},"Ő":{"ha":1054,"x_min":61,"x_max":997,"o":"m 61 0 m 560 1063 q 791 997 692 1063 q 944 815 890 931 q 997 551 997 699 q 933 246 997 375 q 760 49 869 117 q 517 -19 650 -19 q 277 47 381 -19 q 117 231 174 114 q 61 497 61 349 q 131 806 61 675 q 318 1001 201 936 q 560 1063 429 1063 m 535 994 q 358 937 433 994 q 240 770 282 879 q 199 511 199 661 q 240 281 199 386 q 358 112 281 175 q 538 49 435 49 q 710 107 638 49 q 822 275 783 165 q 861 535 861 385 q 823 764 861 658 q 710 932 785 869 q 535 994 636 994 m 558 1386 l 638 1311 q 517 1188 597 1258 q 372 1072 436 1117 l 338 1107 l 558 1386 m 889 1386 l 969 1311 q 847 1188 928 1258 q 703 1072 765 1117 l 668 1107 l 889 1386 z "},"Ō":{"ha":1057,"x_min":61,"x_max":997,"o":"m 61 0 m 708 1289 l 708 1194 l 349 1194 l 349 1289 l 708 1289 m 560 1063 q 791 997 692 1063 q 944 815 890 931 q 997 551 997 699 q 933 246 997 375 q 760 49 869 117 q 517 -19 650 -19 q 277 47 381 -19 q 117 231 174 114 q 61 497 61 349 q 131 806 61 675 q 318 1001 201 936 q 560 1063 429 1063 m 535 994 q 358 937 433 994 q 240 770 282 879 q 199 511 199 661 q 240 281 199 386 q 358 112 281 175 q 538 49 435 49 q 710 107 638 49 q 822 275 783 165 q 861 535 861 385 q 823 764 861 658 q 710 932 785 869 q 535 994 636 994 z "},"Ø":{"ha":1054,"x_min":61,"x_max":996,"o":"m 343 13 q 136 194 211 67 q 61 493 61 322 q 127 798 61 669 q 306 994 193 926 q 558 1063 419 1063 q 700 1040 629 1063 l 739 1147 l 792 1126 l 754 1017 q 932 834 868 957 q 996 550 996 711 q 933 249 996 376 q 764 52 871 121 q 525 -19 657 -17 q 400 -6 456 -19 l 356 -133 l 299 -112 l 343 13 m 672 958 q 535 994 607 994 q 358 937 433 994 q 240 770 282 879 q 199 511 199 661 q 245 266 199 378 q 375 97 292 154 l 672 958 m 429 68 q 536 49 476 49 q 710 107 636 49 q 822 275 783 165 q 861 535 861 385 q 825 758 861 654 q 721 922 789 861 l 429 68 z "},"Õ":{"ha":1054,"x_min":61,"x_max":997,"o":"m 61 0 m 560 1063 q 791 997 692 1063 q 944 815 890 931 q 997 551 997 699 q 933 246 997 375 q 760 49 869 117 q 517 -19 650 -19 q 277 47 381 -19 q 117 231 174 114 q 61 497 61 349 q 131 806 61 675 q 318 1001 201 936 q 560 1063 429 1063 m 535 994 q 358 937 433 994 q 240 770 282 879 q 199 511 199 661 q 240 281 199 386 q 358 112 281 175 q 538 49 435 49 q 710 107 638 49 q 822 275 783 165 q 861 535 861 385 q 823 764 861 658 q 710 932 785 869 q 535 994 636 994 m 267 1188 q 346 1269 293 1236 q 451 1303 399 1303 q 506 1290 483 1303 q 557 1253 528 1278 q 597 1222 581 1232 q 633 1213 613 1213 q 758 1272 701 1213 l 793 1225 q 714 1143 767 1176 q 608 1110 661 1110 q 553 1123 576 1110 q 503 1161 531 1136 q 464 1192 481 1182 q 426 1203 447 1203 q 359 1185 393 1203 q 300 1143 325 1168 l 267 1188 z "},"Œ":{"ha":1407,"x_min":58,"x_max":1365,"o":"m 560 1063 q 653 1053 600 1063 l 1296 1053 l 1315 858 l 1246 858 l 1214 978 l 843 986 l 843 588 l 1099 593 l 1119 700 l 1183 700 l 1183 408 l 1119 408 l 1099 515 l 843 519 l 843 69 l 1238 81 l 1304 226 l 1365 211 l 1335 0 l 653 0 q 525 -19 599 -15 q 278 47 385 -21 q 115 235 172 114 q 61 511 58 357 q 131 807 64 682 q 310 997 199 932 q 560 1063 422 1063 m 535 994 q 357 937 433 994 q 240 770 281 879 q 199 513 199 661 q 240 281 199 388 q 358 112 281 175 q 538 49 435 49 q 722 119 647 49 l 722 915 q 535 994 643 994 z "},"P":{"ha":881,"x_min":58,"x_max":847,"o":"m 189 74 l 189 974 l 74 983 l 74 1053 l 250 1053 q 335 1057 282 1053 q 492 1063 432 1063 q 755 991 663 1063 q 847 747 847 919 q 793 565 847 643 q 651 446 739 488 q 464 404 563 404 l 397 404 q 313 400 333 404 l 313 74 l 496 56 l 496 0 l 58 0 l 58 56 l 189 74 m 311 476 q 451 468 363 468 q 647 531 574 469 q 721 746 721 592 q 654 930 721 868 q 460 992 588 992 q 311 979 363 992 l 311 476 z "},"Þ":{"ha":881,"x_min":58,"x_max":847,"o":"m 189 74 l 189 979 l 72 990 l 72 1053 l 429 1053 l 429 990 l 313 979 l 313 833 l 358 839 q 490 850 442 850 q 751 776 654 850 q 847 557 847 701 q 794 376 847 453 q 652 260 740 300 q 464 221 564 221 l 356 222 q 313 224 339 224 l 313 74 l 496 56 l 496 0 l 58 0 l 58 56 l 189 74 m 313 293 q 451 285 364 285 q 647 347 571 285 q 722 554 722 408 q 655 719 722 660 q 463 779 588 779 q 313 760 393 779 l 313 293 z "},"Q":{"ha":1054,"x_min":60,"x_max":996,"o":"m 558 1063 q 790 997 690 1063 q 942 815 889 931 q 996 551 996 699 q 947 280 996 399 q 811 88 897 161 q 614 -8 725 15 q 714 -108 642 -79 q 875 -136 786 -136 q 976 -112 943 -136 l 988 -192 q 933 -227 975 -212 q 835 -242 890 -242 q 649 -191 725 -242 q 543 -19 574 -140 l 525 -19 q 280 47 386 -19 q 117 232 174 114 q 61 497 60 350 q 126 797 61 669 q 301 992 192 924 q 558 1063 418 1063 m 533 994 q 357 937 433 994 q 239 770 281 879 q 197 511 197 661 q 238 281 197 386 q 356 112 279 175 q 536 49 433 49 q 709 107 636 49 q 821 275 782 165 q 860 535 860 385 q 822 764 860 658 q 710 932 783 869 q 533 994 636 994 z "},"R":{"ha":964,"x_min":58,"x_max":972,"o":"m 457 1063 q 720 999 628 1063 q 813 781 813 936 q 750 596 813 675 q 582 483 688 517 l 593 478 q 686 393 642 457 q 788 225 731 329 q 853 113 831 149 q 896 74 876 78 l 972 56 l 972 0 l 782 0 q 742 37 764 0 q 678 160 719 74 q 553 385 608 304 q 435 460 497 465 q 313 458 397 458 l 313 74 l 456 56 l 456 0 l 58 0 l 58 56 l 189 74 l 189 974 l 75 983 l 75 1053 l 250 1053 q 319 1057 278 1053 q 457 1063 397 1063 m 439 994 q 403 993 428 993 q 313 983 338 990 l 313 531 q 444 526 350 526 q 622 587 560 526 q 685 767 685 647 q 628 940 685 881 q 439 994 571 1000 z "},"Ŕ":{"ha":964,"x_min":58,"x_max":972,"o":"m 58 0 m 457 1063 q 720 999 628 1063 q 813 781 813 936 q 750 596 813 675 q 582 483 688 517 l 593 478 q 686 393 642 457 q 788 225 731 329 q 853 113 831 149 q 896 74 876 78 l 972 56 l 972 0 l 782 0 q 742 37 764 0 q 678 160 719 74 q 553 385 608 304 q 435 460 497 465 q 313 458 397 458 l 313 74 l 456 56 l 456 0 l 58 0 l 58 56 l 189 74 l 189 974 l 75 983 l 75 1053 l 250 1053 q 319 1057 278 1053 q 457 1063 397 1063 m 439 994 q 403 993 428 993 q 313 983 338 990 l 313 531 q 444 526 350 526 q 622 587 560 526 q 685 767 685 647 q 628 940 685 881 q 439 994 571 1000 m 638 1303 l 729 1210 q 599 1137 669 1169 q 467 1090 528 1104 l 432 1125 l 638 1303 z "},"Ř":{"ha":964,"x_min":58,"x_max":972,"o":"m 58 0 m 457 1063 q 720 999 628 1063 q 813 781 813 936 q 750 596 813 675 q 582 483 688 517 l 593 478 q 686 393 642 457 q 788 225 731 329 q 853 113 831 149 q 896 74 876 78 l 972 56 l 972 0 l 782 0 q 742 37 764 0 q 678 160 719 74 q 553 385 608 304 q 435 460 497 465 q 313 458 397 458 l 313 74 l 456 56 l 456 0 l 58 0 l 58 56 l 189 74 l 189 974 l 75 983 l 75 1053 l 250 1053 q 319 1057 278 1053 q 457 1063 397 1063 m 439 994 q 403 993 428 993 q 313 983 338 990 l 313 531 q 444 526 350 526 q 622 587 560 526 q 685 767 685 647 q 628 940 685 881 q 439 994 571 1000 m 303 1303 l 474 1185 l 647 1303 l 697 1272 l 532 1099 l 414 1099 l 247 1271 l 303 1303 z "},"Ŗ":{"ha":964,"x_min":58,"x_max":972,"o":"m 58 0 m 457 1063 q 720 999 628 1063 q 813 781 813 936 q 750 596 813 675 q 582 483 688 517 l 593 478 q 686 393 642 457 q 788 225 731 329 q 853 113 831 149 q 896 74 876 78 l 972 56 l 972 0 l 782 0 q 742 37 764 0 q 678 160 719 74 q 553 385 608 304 q 435 460 497 465 q 313 458 397 458 l 313 74 l 456 56 l 456 0 l 58 0 l 58 56 l 189 74 l 189 974 l 75 983 l 75 1053 l 250 1053 q 319 1057 278 1053 q 457 1063 397 1063 m 439 994 q 403 993 428 993 q 313 983 338 990 l 313 531 q 444 526 350 526 q 622 587 560 526 q 685 767 685 647 q 628 940 685 881 q 439 994 571 1000 m 514 -35 q 615 -99 579 -50 q 653 -201 651 -147 q 626 -308 653 -258 q 560 -390 599 -357 q 486 -435 521 -424 l 451 -403 l 451 -385 q 506 -324 488 -368 q 524 -228 524 -279 q 499 -162 524 -190 q 450 -135 474 -135 l 450 -100 l 514 -35 z "},"S":{"ha":835,"x_min":104,"x_max":765,"o":"m 415 -15 q 229 3 321 -15 q 104 42 138 22 l 104 256 l 161 256 l 201 119 q 300 65 239 81 q 431 49 361 49 q 584 95 519 49 q 649 235 649 142 q 615 334 649 290 q 531 411 581 378 q 396 490 481 444 q 247 577 306 538 q 150 672 189 617 q 111 800 111 728 q 162 948 111 889 q 288 1035 213 1007 q 439 1063 363 1063 q 599 1047 531 1063 q 703 1010 667 1031 l 703 824 l 647 824 l 599 956 q 528 989 574 978 q 431 1000 483 1000 q 338 982 385 1000 q 258 924 290 964 q 225 821 225 883 q 285 697 225 749 q 461 586 346 644 q 621 494 561 533 q 723 399 681 456 q 765 269 765 343 q 667 56 765 126 q 415 -15 568 -15 z "},"Ś":{"ha":835,"x_min":104,"x_max":765,"o":"m 104 0 m 415 -15 q 229 3 321 -15 q 104 42 138 22 l 104 256 l 161 256 l 201 119 q 300 65 239 81 q 431 49 361 49 q 584 95 519 49 q 649 235 649 142 q 615 334 649 290 q 531 411 581 378 q 396 490 481 444 q 247 577 306 538 q 150 672 189 617 q 111 800 111 728 q 162 948 111 889 q 288 1035 213 1007 q 439 1063 363 1063 q 599 1047 531 1063 q 703 1010 667 1031 l 703 824 l 647 824 l 599 956 q 528 989 574 978 q 431 1000 483 1000 q 338 982 385 1000 q 258 924 290 964 q 225 821 225 883 q 285 697 225 749 q 461 586 346 644 q 621 494 561 533 q 723 399 681 456 q 765 269 765 343 q 667 56 765 126 q 415 -15 568 -15 m 521 1303 l 613 1210 q 482 1137 553 1169 q 350 1090 411 1104 l 315 1125 l 521 1303 z "},"Š":{"ha":835,"x_min":104,"x_max":765,"o":"m 104 0 m 415 -15 q 229 3 321 -15 q 104 42 138 22 l 104 256 l 161 256 l 201 119 q 300 65 239 81 q 431 49 361 49 q 584 95 519 49 q 649 235 649 142 q 615 334 649 290 q 531 411 581 378 q 396 490 481 444 q 247 577 306 538 q 150 672 189 617 q 111 800 111 728 q 162 948 111 889 q 288 1035 213 1007 q 439 1063 363 1063 q 599 1047 531 1063 q 703 1010 667 1031 l 703 824 l 647 824 l 599 956 q 528 989 574 978 q 431 1000 483 1000 q 338 982 385 1000 q 258 924 290 964 q 225 821 225 883 q 285 697 225 749 q 461 586 346 644 q 621 494 561 533 q 723 399 681 456 q 765 269 765 343 q 667 56 765 126 q 415 -15 568 -15 m 268 1303 l 439 1185 l 613 1303 l 663 1272 l 497 1099 l 379 1099 l 213 1271 l 268 1303 z "},"Ş":{"ha":835,"x_min":104,"x_max":765,"o":"m 765 269 q 674 61 765 132 q 438 -15 582 -10 q 436 -50 436 -26 q 438 -85 436 -75 q 569 -122 524 -83 q 614 -212 614 -161 q 566 -317 614 -279 q 442 -357 518 -354 l 410 -358 q 342 -351 368 -358 q 307 -343 315 -344 l 308 -279 q 348 -286 324 -283 q 389 -289 372 -289 q 463 -274 436 -289 q 490 -211 490 -258 q 463 -158 490 -176 q 381 -139 435 -139 q 358 -140 368 -139 q 344 -142 349 -142 q 363 -14 344 -82 q 205 8 279 -8 q 104 42 131 25 l 104 256 l 161 256 l 201 119 q 300 65 239 81 q 431 49 361 49 q 584 95 519 49 q 649 235 649 142 q 615 334 649 290 q 531 411 581 378 q 396 490 481 444 q 247 577 306 538 q 150 672 189 617 q 111 800 111 728 q 162 948 111 889 q 288 1035 213 1007 q 439 1063 363 1063 q 599 1047 531 1063 q 703 1010 667 1031 l 703 824 l 647 824 l 599 956 q 528 989 574 978 q 431 1000 483 1000 q 338 982 385 1000 q 258 924 290 964 q 225 821 225 883 q 285 697 225 749 q 461 586 346 644 q 621 494 561 533 q 723 399 681 456 q 765 269 765 343 z "},"Ș":{"ha":835,"x_min":104,"x_max":765,"o":"m 104 0 m 415 -15 q 229 3 321 -15 q 104 42 138 22 l 104 256 l 161 256 l 201 119 q 300 65 239 81 q 431 49 361 49 q 584 95 519 49 q 649 235 649 142 q 615 334 649 290 q 531 411 581 378 q 396 490 481 444 q 247 577 306 538 q 150 672 189 617 q 111 800 111 728 q 162 948 111 889 q 288 1035 213 1007 q 439 1063 363 1063 q 599 1047 531 1063 q 703 1010 667 1031 l 703 824 l 647 824 l 599 956 q 528 989 574 978 q 431 1000 483 1000 q 338 982 385 1000 q 258 924 290 964 q 225 821 225 883 q 285 697 225 749 q 461 586 346 644 q 621 494 561 533 q 723 399 681 456 q 765 269 765 343 q 667 56 765 126 q 415 -15 568 -15 m 393 -50 q 494 -114 458 -65 q 532 -217 531 -162 q 505 -323 532 -274 q 439 -406 478 -372 q 365 -450 400 -439 l 331 -418 l 331 -400 q 385 -339 367 -383 q 403 -243 403 -294 q 378 -178 403 -206 q 329 -150 353 -150 l 329 -115 l 393 -50 z "},"T":{"ha":864,"x_min":21,"x_max":846,"o":"m 382 74 l 382 983 l 124 969 l 79 847 l 21 846 l 38 1053 l 846 1053 l 844 843 l 793 838 l 760 971 l 506 983 l 506 74 l 685 56 l 685 0 l 211 0 l 211 56 l 382 74 z "},"Ť":{"ha":846,"x_min":21,"x_max":846,"o":"m 21 0 m 269 1303 l 440 1185 l 614 1303 l 664 1272 l 499 1099 l 381 1099 l 214 1271 l 269 1303 m 382 74 l 382 983 l 124 969 l 79 847 l 21 846 l 38 1053 l 846 1053 l 844 843 l 793 838 l 760 971 l 506 983 l 506 74 l 685 56 l 685 0 l 211 0 l 211 56 l 382 74 z "},"Ț":{"ha":864,"x_min":21,"x_max":846,"o":"m 21 0 m 382 74 l 382 983 l 124 969 l 79 847 l 21 846 l 38 1053 l 846 1053 l 844 843 l 793 838 l 760 971 l 506 983 l 506 74 l 685 56 l 685 0 l 211 0 l 211 56 l 382 74 m 422 -35 q 524 -99 488 -50 q 561 -201 560 -147 q 534 -308 561 -258 q 468 -390 507 -357 q 394 -435 429 -424 l 360 -403 l 360 -385 q 414 -324 396 -368 q 432 -228 432 -279 q 407 -162 432 -190 q 358 -135 382 -135 l 358 -100 l 422 -35 z "},"U":{"ha":1069,"x_min":22,"x_max":1040,"o":"m 1040 990 l 935 978 l 935 460 q 830 99 935 217 q 542 -19 725 -19 q 224 94 321 -19 q 128 444 128 208 l 129 979 l 22 990 l 22 1053 l 372 1053 l 372 990 l 253 978 l 253 440 q 334 136 253 225 q 564 47 415 47 q 839 460 839 47 l 839 978 l 718 990 l 718 1053 l 1040 1053 l 1040 990 z "},"Ú":{"ha":1069,"x_min":22,"x_max":1040,"o":"m 22 0 m 1040 990 l 935 978 l 935 460 q 830 99 935 217 q 542 -19 725 -19 q 224 94 321 -19 q 128 444 128 208 l 129 979 l 22 990 l 22 1053 l 372 1053 l 372 990 l 253 978 l 253 440 q 334 136 253 225 q 564 47 415 47 q 839 460 839 47 l 839 978 l 718 990 l 718 1053 l 1040 1053 l 1040 990 m 718 1303 l 810 1210 q 679 1137 750 1169 q 547 1090 608 1104 l 513 1125 l 718 1303 z "},"Û":{"ha":1069,"x_min":22,"x_max":1040,"o":"m 789 1128 l 733 1096 l 551 1217 l 367 1096 l 317 1126 l 493 1303 l 611 1303 l 789 1128 m 1040 990 l 935 978 l 935 460 q 830 99 935 217 q 542 -19 725 -19 q 224 94 321 -19 q 128 444 128 208 l 129 979 l 22 990 l 22 1053 l 372 1053 l 372 990 l 253 978 l 253 440 q 334 136 253 225 q 564 47 415 47 q 839 460 839 47 l 839 978 l 718 990 l 718 1053 l 1040 1053 l 1040 990 z "},"Ü":{"ha":1069,"x_min":22,"x_max":1040,"o":"m 22 0 m 1040 990 l 935 978 l 935 460 q 830 99 935 217 q 542 -19 725 -19 q 224 94 321 -19 q 128 444 128 208 l 129 979 l 22 990 l 22 1053 l 372 1053 l 372 990 l 253 978 l 253 440 q 334 136 253 225 q 564 47 415 47 q 839 460 839 47 l 839 978 l 718 990 l 718 1053 l 1040 1053 l 1040 990 m 617 1297 q 677 1276 657 1297 q 697 1219 697 1254 q 668 1153 697 1179 q 601 1128 639 1128 q 549 1147 571 1128 q 490 1128 522 1128 q 433 1149 457 1128 q 410 1204 410 1169 q 440 1270 410 1243 q 506 1297 469 1297 q 560 1279 539 1297 q 614 1297 586 1297 l 617 1297 z "},"Ù":{"ha":1069,"x_min":22,"x_max":1040,"o":"m 22 0 m 1040 990 l 935 978 l 935 460 q 830 99 935 217 q 542 -19 725 -19 q 224 94 321 -19 q 128 444 128 208 l 129 979 l 22 990 l 22 1053 l 372 1053 l 372 990 l 253 978 l 253 440 q 334 136 253 225 q 564 47 415 47 q 839 460 839 47 l 839 978 l 718 990 l 718 1053 l 1040 1053 l 1040 990 m 558 1090 q 426 1137 497 1104 q 296 1210 356 1169 l 386 1303 l 593 1125 l 558 1090 z "},"Ű":{"ha":1069,"x_min":22,"x_max":1040,"o":"m 22 0 m 1040 990 l 935 978 l 935 460 q 830 99 935 217 q 542 -19 725 -19 q 224 94 321 -19 q 128 444 128 208 l 129 979 l 22 990 l 22 1053 l 372 1053 l 372 990 l 253 978 l 253 440 q 334 136 253 225 q 564 47 415 47 q 839 460 839 47 l 839 978 l 718 990 l 718 1053 l 1040 1053 l 1040 990 m 558 1386 l 638 1311 q 517 1188 597 1258 q 372 1072 436 1117 l 338 1107 l 558 1386 m 889 1386 l 969 1311 q 847 1188 928 1258 q 703 1072 765 1117 l 668 1107 l 889 1386 z "},"Ū":{"ha":1069,"x_min":22,"x_max":1040,"o":"m 22 0 m 1040 990 l 935 978 l 935 460 q 830 99 935 217 q 542 -19 725 -19 q 224 94 321 -19 q 128 444 128 208 l 129 979 l 22 990 l 22 1053 l 372 1053 l 372 990 l 253 978 l 253 440 q 334 136 253 225 q 564 47 415 47 q 839 460 839 47 l 839 978 l 718 990 l 718 1053 l 1040 1053 l 1040 990 m 729 1261 l 729 1167 l 369 1167 l 369 1261 l 729 1261 z "},"Ų":{"ha":1069,"x_min":22,"x_max":1040,"o":"m 1040 1053 l 1040 990 l 935 978 l 935 460 q 853 128 935 246 q 625 -14 771 11 q 511 -97 563 -43 q 460 -192 460 -150 q 479 -256 460 -233 q 546 -278 499 -278 q 594 -270 565 -278 q 642 -253 622 -262 l 656 -310 q 578 -344 626 -331 q 478 -358 531 -358 q 382 -322 421 -358 q 343 -228 343 -286 q 393 -117 343 -176 q 515 -19 443 -58 q 218 102 308 -12 q 128 444 128 217 l 129 979 l 22 990 l 22 1053 l 372 1053 l 372 990 l 253 978 l 253 440 q 334 136 253 225 q 564 47 415 47 q 839 460 839 47 l 839 978 l 718 990 l 718 1053 l 1040 1053 z "},"Ů":{"ha":1069,"x_min":22,"x_max":1040,"o":"m 22 0 m 1040 990 l 935 978 l 935 460 q 830 99 935 217 q 542 -19 725 -19 q 224 94 321 -19 q 128 444 128 208 l 129 979 l 22 990 l 22 1053 l 372 1053 l 372 990 l 253 978 l 253 440 q 334 136 253 225 q 564 47 415 47 q 839 460 839 47 l 839 978 l 718 990 l 718 1053 l 1040 1053 l 1040 990 m 546 1303 q 667 1258 617 1303 q 718 1146 718 1213 q 668 1034 718 1079 q 546 989 618 989 q 425 1034 475 989 q 375 1146 375 1079 q 425 1258 375 1213 q 546 1303 475 1303 m 546 1232 q 478 1207 506 1232 q 450 1144 450 1182 q 478 1081 450 1107 q 546 1056 506 1056 q 613 1081 585 1056 q 642 1144 642 1107 q 613 1207 642 1182 q 546 1232 585 1232 z "},"V":{"ha":968,"x_min":3,"x_max":965,"o":"m 3 990 l 3 1053 l 363 1053 l 363 990 l 236 979 l 476 267 l 521 124 l 560 268 l 771 979 l 658 990 l 658 1053 l 965 1053 l 965 990 l 878 981 l 549 -14 l 454 -14 l 94 981 l 3 990 z "},"W":{"ha":1428,"x_min":3,"x_max":1421,"o":"m 3 990 l 3 1053 l 360 1053 l 360 990 l 229 979 l 450 263 l 490 132 l 531 256 l 681 857 l 643 979 l 532 990 l 532 1053 l 896 1053 l 896 990 l 775 979 l 965 250 l 997 124 l 1032 274 l 1215 979 l 1096 990 l 1096 1053 l 1421 1053 l 1421 990 l 1318 979 l 1029 -14 l 926 -14 l 726 692 l 532 -14 l 426 -14 l 93 979 l 3 990 z "},"X":{"ha":964,"x_min":10,"x_max":964,"o":"m 131 74 l 424 531 l 139 979 l 35 990 l 35 1053 l 410 1053 l 410 990 l 286 979 l 504 606 l 722 979 l 615 990 l 615 1053 l 936 1053 l 936 990 l 838 981 l 550 554 l 849 74 l 964 56 l 964 0 l 578 0 l 578 56 l 707 74 l 465 468 l 246 74 l 376 56 l 376 0 l 10 0 l 10 56 l 131 74 z "},"Y":{"ha":918,"x_min":8,"x_max":910,"o":"m 415 75 l 415 432 l 88 979 l 8 990 l 8 1053 l 336 1053 l 336 990 l 229 979 l 451 569 l 486 500 l 517 571 l 718 978 l 603 990 l 603 1053 l 910 1053 l 910 990 l 819 974 l 539 431 l 539 75 l 685 56 l 685 0 l 276 0 l 276 56 l 415 75 z "},"Ý":{"ha":918,"x_min":8,"x_max":910,"o":"m 8 0 m 415 75 l 415 432 l 88 979 l 8 990 l 8 1053 l 336 1053 l 336 990 l 229 979 l 451 569 l 486 500 l 517 571 l 718 978 l 603 990 l 603 1053 l 910 1053 l 910 990 l 819 974 l 539 431 l 539 75 l 685 56 l 685 0 l 276 0 l 276 56 l 415 75 m 646 1303 l 738 1210 q 607 1137 678 1169 q 475 1090 536 1104 l 440 1125 l 646 1303 z "},"Ÿ":{"ha":918,"x_min":8,"x_max":910,"o":"m 8 0 m 415 75 l 415 432 l 88 979 l 8 990 l 8 1053 l 336 1053 l 336 990 l 229 979 l 451 569 l 486 500 l 517 571 l 718 978 l 603 990 l 603 1053 l 910 1053 l 910 990 l 819 974 l 539 431 l 539 75 l 685 56 l 685 0 l 276 0 l 276 56 l 415 75 m 546 1297 q 606 1276 586 1297 q 626 1219 626 1254 q 597 1153 626 1179 q 531 1128 568 1128 q 478 1147 500 1128 q 419 1128 451 1128 q 363 1149 386 1128 q 339 1204 339 1169 q 369 1270 339 1243 q 435 1297 399 1297 q 489 1279 468 1297 q 543 1297 515 1297 l 546 1297 z "},"Z":{"ha":917,"x_min":64,"x_max":881,"o":"m 868 999 l 282 163 l 208 71 l 732 94 l 817 267 l 881 251 l 832 0 l 82 0 l 64 57 l 656 896 l 729 985 l 232 969 l 171 817 l 104 828 l 125 1053 l 849 1053 l 868 999 z "},"Ź":{"ha":917,"x_min":64,"x_max":881,"o":"m 64 0 m 868 999 l 282 163 l 208 71 l 732 94 l 817 267 l 881 251 l 832 0 l 82 0 l 64 57 l 656 896 l 729 985 l 232 969 l 171 817 l 104 828 l 125 1053 l 849 1053 l 868 999 m 665 1303 l 757 1210 q 626 1137 697 1169 q 494 1090 556 1104 l 460 1125 l 665 1303 z "},"Ž":{"ha":917,"x_min":64,"x_max":881,"o":"m 64 0 m 868 999 l 282 163 l 208 71 l 732 94 l 817 267 l 881 251 l 832 0 l 82 0 l 64 57 l 656 896 l 729 985 l 232 969 l 171 817 l 104 828 l 125 1053 l 849 1053 l 868 999 m 329 1303 l 500 1185 l 674 1303 l 724 1272 l 558 1099 l 440 1099 l 274 1271 l 329 1303 z "},"Ż":{"ha":917,"x_min":64,"x_max":881,"o":"m 64 0 m 868 999 l 282 163 l 208 71 l 732 94 l 817 267 l 881 251 l 832 0 l 82 0 l 64 57 l 656 896 l 729 985 l 232 969 l 171 817 l 104 828 l 125 1053 l 849 1053 l 868 999 m 501 1251 q 538 1215 538 1251 q 524 1185 538 1197 q 494 1174 511 1174 q 470 1183 482 1174 q 458 1208 458 1193 q 472 1238 458 1225 q 501 1251 485 1251 z "},"a":{"ha":778,"x_min":79,"x_max":735,"o":"m 382 772 q 578 717 506 772 q 650 524 650 661 l 649 56 l 735 56 l 735 13 q 678 -8 711 0 q 610 -15 644 -15 q 549 4 564 -15 q 535 76 535 24 q 303 -17 457 -17 q 189 10 240 -17 q 108 85 138 38 q 79 193 79 133 q 151 344 79 286 q 326 426 224 401 q 528 451 429 451 l 528 510 q 479 651 528 613 q 338 689 431 689 q 235 673 293 689 q 133 633 176 657 l 110 692 q 238 751 156 729 q 382 772 321 772 m 528 386 q 303 346 406 386 q 201 214 201 306 q 368 64 201 64 q 458 84 414 64 q 526 126 503 104 l 528 386 z "},"á":{"ha":778,"x_min":79,"x_max":735,"o":"m 79 0 m 382 772 q 578 717 506 772 q 650 524 650 661 l 649 56 l 735 56 l 735 13 q 678 -8 711 0 q 610 -15 644 -15 q 549 4 564 -15 q 535 76 535 24 q 303 -17 457 -17 q 189 10 240 -17 q 108 85 138 38 q 79 193 79 133 q 151 344 79 286 q 326 426 224 401 q 528 451 429 451 l 528 510 q 479 651 528 613 q 338 689 431 689 q 235 673 293 689 q 133 633 176 657 l 110 692 q 238 751 156 729 q 382 772 321 772 m 528 386 q 303 346 406 386 q 201 214 201 306 q 368 64 201 64 q 458 84 414 64 q 526 126 503 104 l 528 386 m 508 1206 l 600 1113 q 491 1006 567 1061 q 339 910 415 950 l 304 944 l 508 1206 z "},"ă":{"ha":778,"x_min":79,"x_max":735,"o":"m 79 0 m 382 772 q 578 717 506 772 q 650 524 650 661 l 649 56 l 735 56 l 735 13 q 678 -8 711 0 q 610 -15 644 -15 q 549 4 564 -15 q 535 76 535 24 q 303 -17 457 -17 q 189 10 240 -17 q 108 85 138 38 q 79 193 79 133 q 151 344 79 286 q 326 426 224 401 q 528 451 429 451 l 528 510 q 479 651 528 613 q 338 689 431 689 q 235 673 293 689 q 133 633 176 657 l 110 692 q 238 751 156 729 q 382 772 321 772 m 528 386 q 303 346 406 386 q 201 214 201 306 q 368 64 201 64 q 458 84 414 64 q 526 126 503 104 l 528 386 m 615 1154 q 585 1049 615 1099 q 503 968 556 999 q 388 938 451 938 q 269 968 321 938 q 190 1048 218 999 q 163 1153 163 1097 l 224 1153 q 238 1117 225 1150 q 292 1056 251 1083 q 390 1029 333 1029 q 483 1052 449 1029 q 527 1092 518 1075 q 557 1154 536 1108 l 615 1154 z "},"â":{"ha":778,"x_min":79,"x_max":735,"o":"m 79 0 m 382 772 q 578 717 506 772 q 650 524 650 661 l 649 56 l 735 56 l 735 13 q 678 -8 711 0 q 610 -15 644 -15 q 549 4 564 -15 q 535 76 535 24 q 303 -17 457 -17 q 189 10 240 -17 q 108 85 138 38 q 79 193 79 133 q 151 344 79 286 q 326 426 224 401 q 528 451 429 451 l 528 510 q 479 651 528 613 q 338 689 431 689 q 235 673 293 689 q 133 633 176 657 l 110 692 q 238 751 156 729 q 382 772 321 772 m 528 386 q 303 346 406 386 q 201 214 201 306 q 368 64 201 64 q 458 84 414 64 q 526 126 503 104 l 528 386 m 335 1203 l 454 1203 l 635 936 l 581 906 l 394 1096 l 197 906 l 149 935 l 335 1203 z "},"ä":{"ha":778,"x_min":79,"x_max":735,"o":"m 79 0 m 382 772 q 578 717 506 772 q 650 524 650 661 l 649 56 l 735 56 l 735 13 q 678 -8 711 0 q 610 -15 644 -15 q 549 4 564 -15 q 535 76 535 24 q 303 -17 457 -17 q 189 10 240 -17 q 108 85 138 38 q 79 193 79 133 q 151 344 79 286 q 326 426 224 401 q 528 451 429 451 l 528 510 q 479 651 528 613 q 338 689 431 689 q 235 673 293 689 q 133 633 176 657 l 110 692 q 238 751 156 729 q 382 772 321 772 m 528 386 q 303 346 406 386 q 201 214 201 306 q 368 64 201 64 q 458 84 414 64 q 526 126 503 104 l 528 386 m 229 947 q 173 967 196 947 q 150 1022 150 988 q 178 1086 150 1060 q 243 1113 207 1113 q 303 1091 283 1113 q 324 1036 324 1069 q 295 972 324 996 q 229 947 267 947 m 543 947 q 487 967 510 947 q 464 1022 464 988 q 493 1086 464 1060 q 557 1113 522 1113 q 617 1091 597 1113 q 638 1036 638 1069 q 609 972 638 996 q 543 947 581 947 z "},"à":{"ha":778,"x_min":79,"x_max":735,"o":"m 79 0 m 382 772 q 578 717 506 772 q 650 524 650 661 l 649 56 l 735 56 l 735 13 q 678 -8 711 0 q 610 -15 644 -15 q 549 4 564 -15 q 535 76 535 24 q 303 -17 457 -17 q 189 10 240 -17 q 108 85 138 38 q 79 193 79 133 q 151 344 79 286 q 326 426 224 401 q 528 451 429 451 l 528 510 q 479 651 528 613 q 338 689 431 689 q 235 673 293 689 q 133 633 176 657 l 110 692 q 238 751 156 729 q 382 772 321 772 m 528 386 q 303 346 406 386 q 201 214 201 306 q 368 64 201 64 q 458 84 414 64 q 526 126 503 104 l 528 386 m 474 910 q 324 1004 401 949 q 213 1113 247 1060 l 304 1206 l 508 944 l 474 910 z "},"ā":{"ha":778,"x_min":79,"x_max":735,"o":"m 79 0 m 382 772 q 578 717 506 772 q 650 524 650 661 l 649 56 l 735 56 l 735 13 q 678 -8 711 0 q 610 -15 644 -15 q 549 4 564 -15 q 535 76 535 24 q 303 -17 457 -17 q 189 10 240 -17 q 108 85 138 38 q 79 193 79 133 q 151 344 79 286 q 326 426 224 401 q 528 451 429 451 l 528 510 q 479 651 528 613 q 338 689 431 689 q 235 673 293 689 q 133 633 176 657 l 110 692 q 238 751 156 729 q 382 772 321 772 m 528 386 q 303 346 406 386 q 201 214 201 306 q 368 64 201 64 q 458 84 414 64 q 526 126 503 104 l 528 386 m 563 1079 l 563 985 l 203 985 l 203 1079 l 563 1079 z "},"ą":{"ha":778,"x_min":79,"x_max":743,"o":"m 382 772 q 576 717 504 772 q 649 524 649 661 l 647 56 l 735 56 l 735 7 q 599 -82 654 -31 q 544 -183 544 -133 q 571 -250 544 -229 q 639 -271 597 -271 q 743 -246 688 -271 l 743 -303 q 672 -338 714 -325 q 588 -351 629 -351 q 475 -319 519 -351 q 431 -218 431 -286 q 483 -101 431 -158 q 600 -15 536 -43 q 547 6 560 -14 q 533 76 533 26 q 301 -17 456 -17 q 188 11 239 -17 q 108 88 138 39 q 79 197 79 136 q 151 344 79 288 q 326 426 224 401 q 526 451 429 451 l 526 510 q 478 650 526 611 q 338 689 429 689 q 234 673 293 689 q 132 633 175 657 l 108 692 q 238 751 154 729 q 382 772 321 772 m 528 386 q 303 346 406 386 q 201 214 201 306 q 368 64 201 64 q 458 84 414 64 q 526 126 503 104 l 528 386 z "},"å":{"ha":778,"x_min":79,"x_max":735,"o":"m 79 0 m 382 772 q 578 717 506 772 q 650 524 650 661 l 649 56 l 735 56 l 735 13 q 678 -8 711 0 q 610 -15 644 -15 q 549 4 564 -15 q 535 76 535 24 q 303 -17 457 -17 q 189 10 240 -17 q 108 85 138 38 q 79 193 79 133 q 151 344 79 286 q 326 426 224 401 q 528 451 429 451 l 528 510 q 479 651 528 613 q 338 689 431 689 q 235 673 293 689 q 133 633 176 657 l 110 692 q 238 751 156 729 q 382 772 321 772 m 528 386 q 303 346 406 386 q 201 214 201 306 q 368 64 201 64 q 458 84 414 64 q 526 126 503 104 l 528 386 m 375 1221 q 495 1173 446 1221 q 544 1057 544 1125 q 495 942 544 989 q 375 896 446 896 q 256 942 306 896 q 206 1057 206 989 q 256 1173 206 1125 q 375 1221 306 1221 m 375 1150 q 308 1122 336 1150 q 281 1056 281 1094 q 308 989 281 1017 q 375 961 336 961 q 442 989 415 961 q 469 1056 469 1017 q 442 1123 469 1096 q 375 1150 415 1150 z "},"ã":{"ha":778,"x_min":79,"x_max":735,"o":"m 79 0 m 382 772 q 578 717 506 772 q 650 524 650 661 l 649 56 l 735 56 l 735 13 q 678 -8 711 0 q 610 -15 644 -15 q 549 4 564 -15 q 535 76 535 24 q 303 -17 457 -17 q 189 10 240 -17 q 108 85 138 38 q 79 193 79 133 q 151 344 79 286 q 326 426 224 401 q 528 451 429 451 l 528 510 q 479 651 528 613 q 338 689 431 689 q 235 673 293 689 q 133 633 176 657 l 110 692 q 238 751 156 729 q 382 772 321 772 m 528 386 q 303 346 406 386 q 201 214 201 306 q 368 64 201 64 q 458 84 414 64 q 526 126 503 104 l 528 386 m 126 1013 q 206 1094 153 1060 q 313 1129 260 1129 q 366 1116 344 1129 q 415 1076 388 1103 q 456 1044 440 1054 q 493 1033 472 1033 q 560 1052 529 1033 q 619 1100 590 1071 l 653 1054 q 574 972 626 1006 q 468 938 521 938 q 414 951 436 938 q 364 989 392 964 q 324 1022 340 1011 q 286 1032 307 1032 q 160 965 226 1032 l 126 1013 z "},"æ":{"ha":1224,"x_min":78,"x_max":1160,"o":"m 904 782 q 1092 701 1024 782 q 1160 478 1160 621 q 1153 375 1160 421 l 647 375 q 726 142 649 214 q 915 69 803 69 q 1030 83 968 69 q 1122 114 1092 97 l 1146 60 q 1027 4 1108 25 q 868 -17 946 -17 q 594 119 685 -17 q 478 21 557 58 q 300 -17 399 -17 q 187 10 238 -17 q 107 85 136 38 q 78 193 78 133 q 79 215 78 208 q 165 356 88 303 q 344 431 243 408 q 526 451 444 453 l 526 510 q 478 650 526 613 q 339 688 429 688 q 237 672 296 688 q 132 632 178 657 l 110 692 q 239 750 156 728 q 385 772 322 772 q 531 745 471 772 q 621 650 592 718 q 743 747 671 713 q 904 782 815 782 m 865 714 q 718 647 778 714 q 649 450 658 581 l 1031 450 q 1032 494 1032 465 q 954 690 1032 643 q 865 714 919 714 m 526 386 q 383 370 457 386 q 255 316 308 354 q 201 214 201 278 q 365 64 201 64 q 460 89 414 64 q 525 147 506 114 l 526 386 z "},"b":{"ha":858,"x_min":25,"x_max":789,"o":"m 25 1022 l 25 1079 l 235 1101 l 261 1090 l 261 694 q 364 758 310 733 q 489 782 418 782 q 638 744 569 782 q 747 622 706 706 q 789 410 789 538 q 740 194 789 293 q 604 38 692 96 q 406 -19 517 -19 q 236 -1 317 -19 q 140 33 156 17 l 140 1001 l 25 1022 m 261 101 q 314 62 271 75 q 419 49 357 49 q 542 88 485 49 q 633 205 599 126 q 668 397 668 283 q 601 621 668 547 q 438 694 535 694 q 338 675 383 694 q 261 628 292 656 l 261 101 z "},"c":{"ha":711,"x_min":71,"x_max":661,"o":"m 463 779 q 565 770 517 779 q 638 746 613 761 l 638 588 l 578 588 l 544 674 q 492 698 524 690 q 429 706 461 706 q 308 672 363 706 q 222 573 254 639 q 189 413 189 507 q 226 221 189 297 q 320 108 263 144 q 442 72 378 72 q 551 85 493 72 q 639 117 610 99 l 661 60 q 550 6 622 25 q 399 -14 478 -14 q 222 35 296 -14 q 109 172 147 85 q 71 368 71 258 q 123 586 71 493 q 264 729 175 679 q 463 779 353 779 z "},"ć":{"ha":711,"x_min":71,"x_max":661,"o":"m 71 0 m 463 779 q 565 770 517 779 q 638 746 613 761 l 638 588 l 578 588 l 544 674 q 492 698 524 690 q 429 706 461 706 q 308 672 363 706 q 222 573 254 639 q 189 413 189 507 q 226 221 189 297 q 320 108 263 144 q 442 72 378 72 q 551 85 493 72 q 639 117 610 99 l 661 60 q 550 6 622 25 q 399 -14 478 -14 q 222 35 296 -14 q 109 172 147 85 q 71 368 71 258 q 123 586 71 493 q 264 729 175 679 q 463 779 353 779 m 540 1206 l 632 1113 q 523 1006 599 1061 q 371 910 447 950 l 336 944 l 540 1206 z "},"č":{"ha":711,"x_min":71,"x_max":669,"o":"m 71 0 m 463 779 q 565 770 517 779 q 638 746 613 761 l 638 588 l 578 588 l 544 674 q 492 698 524 690 q 429 706 461 706 q 308 672 363 706 q 222 573 254 639 q 189 413 189 507 q 226 221 189 297 q 320 108 263 144 q 442 72 378 72 q 551 85 493 72 q 639 117 610 99 l 661 60 q 550 6 622 25 q 399 -14 478 -14 q 222 35 296 -14 q 109 172 147 85 q 71 368 71 258 q 123 586 71 493 q 264 729 175 679 q 463 779 353 779 m 238 1203 l 429 1014 l 621 1203 l 669 1174 l 488 906 l 369 906 l 183 1174 l 238 1203 z "},"ç":{"ha":711,"x_min":69,"x_max":660,"o":"m 428 -83 q 559 -121 514 -82 q 604 -211 604 -160 q 556 -315 604 -278 q 432 -356 508 -353 l 400 -357 q 332 -350 358 -357 q 297 -342 306 -343 l 299 -278 q 338 -285 314 -282 q 379 -287 363 -287 q 453 -272 426 -287 q 481 -210 481 -257 q 453 -156 481 -175 q 371 -137 425 -137 q 349 -139 358 -137 q 335 -140 339 -140 q 353 -10 335 -78 q 144 109 218 6 q 69 368 69 213 q 122 586 69 493 q 263 729 174 679 q 461 779 351 779 q 563 770 515 779 q 636 746 611 761 l 636 588 l 576 588 l 543 674 q 491 698 522 690 q 428 706 460 706 q 307 672 361 706 q 220 573 253 639 q 188 413 188 507 q 224 221 188 297 q 319 108 261 144 q 440 72 376 72 q 550 85 492 72 q 638 117 608 99 l 660 60 q 563 10 625 29 q 428 -12 500 -10 q 426 -49 426 -24 q 428 -85 426 -74 l 428 -83 z "},"d":{"ha":863,"x_min":69,"x_max":810,"o":"m 718 1086 l 718 56 l 810 56 l 810 7 q 748 -12 789 -4 q 672 -19 707 -19 q 616 -2 631 -19 q 601 64 601 15 q 510 8 571 33 q 367 -17 450 -17 q 219 26 286 -17 q 110 154 151 68 q 69 367 69 240 q 122 580 69 485 q 263 728 174 675 q 461 782 353 782 q 596 761 531 782 l 596 997 l 454 1019 l 454 1075 l 689 1101 l 718 1086 m 446 714 q 325 681 383 714 q 228 574 267 647 q 190 389 190 501 q 221 213 190 285 q 303 105 251 140 q 415 69 354 69 q 516 85 467 69 q 596 132 565 101 l 596 660 q 542 698 575 682 q 446 714 508 714 z "},"ð":{"ha":836,"x_min":68,"x_max":768,"o":"m 588 1114 l 476 1017 q 694 751 619 908 q 768 418 768 593 q 720 181 768 279 q 590 32 672 82 q 406 -18 507 -18 q 229 28 306 -18 q 110 156 153 74 q 68 340 68 238 q 115 537 68 456 q 242 659 163 618 q 418 700 321 700 q 538 674 475 700 q 633 607 600 647 q 553 801 611 711 q 415 958 494 890 l 300 857 l 238 906 l 350 1008 q 219 1074 281 1054 l 235 1143 q 407 1065 321 1115 l 481 1129 l 522 1168 l 588 1114 m 417 632 q 253 557 307 632 q 199 347 199 482 q 225 199 199 267 q 303 90 251 131 q 426 49 354 49 q 538 95 490 49 q 611 216 586 142 q 638 371 636 290 q 633 457 638 438 q 597 536 624 496 q 524 604 569 576 q 417 632 478 632 z "},"ď":{"ha":985,"x_min":69,"x_max":949,"o":"m 69 0 m 718 1086 l 718 56 l 810 56 l 810 7 q 748 -12 789 -4 q 672 -19 707 -19 q 616 -2 631 -19 q 601 64 601 15 q 510 8 571 33 q 367 -17 450 -17 q 219 26 286 -17 q 110 154 151 68 q 69 367 69 240 q 122 580 69 485 q 263 728 174 675 q 461 782 353 782 q 596 761 531 782 l 596 997 l 454 1019 l 454 1075 l 689 1101 l 718 1086 m 446 714 q 325 681 383 714 q 228 574 267 647 q 190 389 190 501 q 221 213 190 285 q 303 105 251 140 q 415 69 354 69 q 516 85 467 69 q 596 132 565 101 l 596 660 q 542 698 575 682 q 446 714 508 714 m 810 746 q 833 913 833 829 q 823 1021 833 971 q 799 1086 813 1071 l 808 1115 l 906 1142 q 937 1077 925 1122 q 949 982 949 1032 q 924 818 949 900 q 864 704 899 736 l 811 729 l 810 746 z "},"đ":{"ha":863,"x_min":69,"x_max":832,"o":"m 718 828 l 718 56 l 810 56 l 810 7 q 748 -12 789 -4 q 672 -19 707 -19 q 616 -2 631 -19 q 601 64 601 15 q 510 8 571 33 q 367 -17 450 -17 q 219 24 288 -17 q 110 144 151 65 q 69 329 69 222 q 121 551 69 461 q 260 683 172 640 q 461 726 349 726 q 596 706 531 726 l 596 828 l 329 828 l 329 901 l 596 901 l 596 997 l 454 1019 l 454 1075 l 689 1101 l 718 1086 l 718 901 l 832 901 l 832 828 l 718 828 m 596 604 q 541 642 575 626 q 446 658 507 658 q 325 628 383 658 q 228 531 267 599 q 190 356 190 463 q 221 197 190 261 q 303 101 251 133 q 415 69 354 69 q 515 85 467 69 q 596 132 564 101 l 596 604 z "},"e":{"ha":778,"x_min":68,"x_max":708,"o":"m 443 782 q 638 704 567 785 q 708 482 708 624 q 700 375 708 433 l 190 375 q 259 151 190 233 q 456 69 328 69 q 572 83 511 69 q 664 114 633 96 l 688 60 q 569 4 649 25 q 408 -17 489 -17 q 158 90 247 -17 q 68 376 68 196 q 116 583 68 492 q 249 726 164 674 q 443 782 335 779 m 411 714 q 263 648 324 714 q 192 450 203 582 l 579 450 q 581 492 581 464 q 503 690 581 643 q 411 714 467 714 z "},"é":{"ha":778,"x_min":68,"x_max":708,"o":"m 68 0 m 443 782 q 638 704 567 785 q 708 482 708 624 q 700 375 708 433 l 190 375 q 259 151 190 233 q 456 69 328 69 q 572 83 511 69 q 664 114 633 96 l 688 60 q 569 4 649 25 q 408 -17 489 -17 q 158 90 247 -17 q 68 376 68 196 q 116 583 68 492 q 249 726 164 674 q 443 782 335 779 m 411 714 q 263 648 324 714 q 192 450 203 582 l 579 450 q 581 492 581 464 q 503 690 581 643 q 411 714 467 714 m 528 1206 l 619 1113 q 510 1006 586 1061 q 358 910 435 950 l 324 944 l 528 1206 z "},"ě":{"ha":778,"x_min":68,"x_max":708,"o":"m 68 0 m 443 782 q 638 704 567 785 q 708 482 708 624 q 700 375 708 433 l 190 375 q 259 151 190 233 q 456 69 328 69 q 572 83 511 69 q 664 114 633 96 l 688 60 q 569 4 649 25 q 408 -17 489 -17 q 158 90 247 -17 q 68 376 68 196 q 116 583 68 492 q 249 726 164 674 q 443 782 335 779 m 411 714 q 263 648 324 714 q 192 450 203 582 l 579 450 q 581 492 581 464 q 503 690 581 643 q 411 714 467 714 m 224 1203 l 415 1014 l 607 1203 l 656 1174 l 474 906 l 356 906 l 169 1174 l 224 1203 z "},"ê":{"ha":778,"x_min":68,"x_max":708,"o":"m 68 0 m 443 782 q 638 704 567 785 q 708 482 708 624 q 700 375 708 433 l 190 375 q 259 151 190 233 q 456 69 328 69 q 572 83 511 69 q 664 114 633 96 l 688 60 q 569 4 649 25 q 408 -17 489 -17 q 158 90 247 -17 q 68 376 68 196 q 116 583 68 492 q 249 726 164 674 q 443 782 335 779 m 411 714 q 263 648 324 714 q 192 450 203 582 l 579 450 q 581 492 581 464 q 503 690 581 643 q 411 714 467 714 m 356 1203 l 475 1203 l 656 936 l 601 906 l 415 1096 l 218 906 l 169 935 l 356 1203 z "},"ë":{"ha":778,"x_min":68,"x_max":708,"o":"m 68 0 m 443 782 q 638 704 567 785 q 708 482 708 624 q 700 375 708 433 l 190 375 q 259 151 190 233 q 456 69 328 69 q 572 83 511 69 q 664 114 633 96 l 688 60 q 569 4 649 25 q 408 -17 489 -17 q 158 90 247 -17 q 68 376 68 196 q 116 583 68 492 q 249 726 164 674 q 443 782 335 779 m 411 714 q 263 648 324 714 q 192 450 203 582 l 579 450 q 581 492 581 464 q 503 690 581 643 q 411 714 467 714 m 249 947 q 192 967 215 947 q 169 1022 169 988 q 198 1086 169 1060 q 263 1113 226 1113 q 323 1091 303 1113 q 343 1036 343 1069 q 315 972 343 996 q 249 947 286 947 m 563 947 q 506 967 529 947 q 483 1022 483 988 q 513 1086 483 1060 q 576 1113 542 1113 q 637 1091 617 1113 q 657 1036 657 1069 q 628 972 657 996 q 563 947 600 947 z "},"ė":{"ha":778,"x_min":68,"x_max":708,"o":"m 68 0 m 443 782 q 638 704 567 785 q 708 482 708 624 q 700 375 708 433 l 190 375 q 259 151 190 233 q 456 69 328 69 q 572 83 511 69 q 664 114 633 96 l 688 60 q 569 4 649 25 q 408 -17 489 -17 q 158 90 247 -17 q 68 376 68 196 q 116 583 68 492 q 249 726 164 674 q 443 782 335 779 m 411 714 q 263 648 324 714 q 192 450 203 582 l 579 450 q 581 492 581 464 q 503 690 581 643 q 411 714 467 714 m 429 1101 q 490 1080 469 1101 q 510 1024 510 1058 q 481 959 510 985 q 415 933 453 933 q 358 954 382 933 q 335 1010 335 975 q 365 1074 335 1047 q 429 1101 394 1101 z "},"è":{"ha":778,"x_min":68,"x_max":708,"o":"m 68 0 m 443 782 q 638 704 567 785 q 708 482 708 624 q 700 375 708 433 l 190 375 q 259 151 190 233 q 456 69 328 69 q 572 83 511 69 q 664 114 633 96 l 688 60 q 569 4 649 25 q 408 -17 489 -17 q 158 90 247 -17 q 68 376 68 196 q 116 583 68 492 q 249 726 164 674 q 443 782 335 779 m 411 714 q 263 648 324 714 q 192 450 203 582 l 579 450 q 581 492 581 464 q 503 690 581 643 q 411 714 467 714 m 492 910 q 342 1004 419 949 q 231 1113 265 1060 l 322 1206 l 526 944 l 492 910 z "},"ē":{"ha":778,"x_min":68,"x_max":708,"o":"m 68 0 m 443 782 q 638 704 567 785 q 708 482 708 624 q 700 375 708 433 l 190 375 q 259 151 190 233 q 456 69 328 69 q 572 83 511 69 q 664 114 633 96 l 688 60 q 569 4 649 25 q 408 -17 489 -17 q 158 90 247 -17 q 68 376 68 196 q 116 583 68 492 q 249 726 164 674 q 443 782 335 779 m 411 714 q 263 648 324 714 q 192 450 203 582 l 579 450 q 581 492 581 464 q 503 690 581 643 q 411 714 467 714 m 590 1079 l 590 985 l 231 985 l 231 1079 l 590 1079 z "},"ę":{"ha":778,"x_min":68,"x_max":708,"o":"m 447 782 q 638 703 568 782 q 708 486 707 625 q 700 375 708 436 l 190 375 q 259 151 190 233 q 456 69 328 69 q 572 83 511 69 q 664 114 633 96 l 688 60 q 535 -73 582 -19 q 489 -171 489 -126 q 519 -242 489 -219 q 597 -265 550 -265 q 692 -244 650 -265 l 692 -303 q 626 -335 665 -324 q 544 -346 586 -346 q 425 -311 474 -346 q 376 -206 376 -276 q 414 -101 376 -156 q 514 -7 451 -46 q 408 -17 464 -17 q 158 90 247 -17 q 68 376 68 196 q 117 584 68 492 q 252 729 165 676 q 447 782 339 782 m 411 714 q 263 648 324 714 q 192 450 203 582 l 579 450 q 581 494 581 465 q 541 657 581 600 q 411 714 501 714 z "},"f":{"ha":569,"x_min":63,"x_max":588,"o":"m 214 68 l 214 668 l 63 668 l 63 718 l 214 754 l 214 815 q 257 986 214 911 q 364 1103 300 1061 q 489 1144 428 1144 q 588 1132 565 1144 l 588 1025 q 542 1040 575 1033 q 465 1047 508 1047 q 396 1034 424 1047 q 352 981 368 1021 q 336 867 336 942 l 336 754 l 544 754 l 544 668 l 336 668 l 336 67 l 493 54 l 493 0 l 76 0 l 76 54 l 214 68 z "},"g":{"ha":817,"x_min":85,"x_max":799,"o":"m 415 788 q 603 735 529 788 q 717 768 636 768 l 799 768 l 799 672 l 658 672 q 694 536 694 615 q 653 387 694 450 q 542 291 611 324 q 390 258 472 258 q 249 283 310 258 q 238 242 240 264 q 236 190 236 221 q 257 130 236 150 q 328 107 278 110 q 421 104 350 104 l 500 104 q 678 72 618 104 q 754 -3 738 40 q 771 -104 771 -47 q 727 -240 771 -182 q 603 -328 683 -297 q 414 -360 522 -360 q 178 -313 272 -360 q 85 -160 85 -267 q 121 -51 85 -101 q 200 26 157 0 q 149 59 165 40 q 129 96 132 78 q 126 143 126 114 q 149 221 126 172 q 210 303 172 269 q 96 511 96 369 q 142 664 96 601 q 260 757 188 726 q 415 788 333 788 m 390 721 q 265 676 313 721 q 218 535 218 632 q 266 384 218 442 q 410 326 314 326 q 533 374 493 326 q 574 518 574 421 q 528 672 574 622 q 390 721 482 721 m 250 14 q 203 -119 203 -36 q 268 -249 203 -208 q 431 -289 333 -289 q 608 -250 543 -289 q 672 -135 672 -211 q 656 -58 672 -87 q 596 -13 640 -29 q 469 3 551 3 l 374 4 q 250 14 294 4 z "},"ğ":{"ha":817,"x_min":85,"x_max":799,"o":"m 85 0 m 415 788 q 603 735 529 788 q 717 768 636 768 l 799 768 l 799 672 l 658 672 q 694 536 694 615 q 653 387 694 450 q 542 291 611 324 q 390 258 472 258 q 249 283 310 258 q 238 242 240 264 q 236 190 236 221 q 257 130 236 150 q 328 107 278 110 q 421 104 350 104 l 500 104 q 678 72 618 104 q 754 -3 738 40 q 771 -104 771 -47 q 727 -240 771 -182 q 603 -328 683 -297 q 414 -360 522 -360 q 178 -313 272 -360 q 85 -160 85 -267 q 121 -51 85 -101 q 200 26 157 0 q 149 59 165 40 q 129 96 132 78 q 126 143 126 114 q 149 221 126 172 q 210 303 172 269 q 96 511 96 369 q 142 664 96 601 q 260 757 188 726 q 415 788 333 788 m 390 721 q 265 676 313 721 q 218 535 218 632 q 266 384 218 442 q 410 326 314 326 q 533 374 493 326 q 574 518 574 421 q 528 672 574 622 q 390 721 482 721 m 250 14 q 203 -119 203 -36 q 268 -249 203 -208 q 431 -289 333 -289 q 608 -250 543 -289 q 672 -135 672 -211 q 656 -58 672 -87 q 596 -13 640 -29 q 469 3 551 3 l 374 4 q 250 14 294 4 m 628 1154 q 598 1049 628 1099 q 516 968 568 999 q 400 938 464 938 q 282 968 333 938 q 203 1048 231 999 q 175 1153 175 1097 l 236 1153 q 251 1117 238 1150 q 305 1056 264 1083 q 403 1029 346 1029 q 496 1052 461 1029 q 540 1092 531 1075 q 569 1154 549 1108 l 628 1154 z "},"ģ":{"ha":817,"x_min":85,"x_max":799,"o":"m 85 0 m 415 788 q 603 735 529 788 q 717 768 636 768 l 799 768 l 799 672 l 658 672 q 694 536 694 615 q 653 387 694 450 q 542 291 611 324 q 390 258 472 258 q 249 283 310 258 q 238 242 240 264 q 236 190 236 221 q 257 130 236 150 q 328 107 278 110 q 421 104 350 104 l 500 104 q 678 72 618 104 q 754 -3 738 40 q 771 -104 771 -47 q 727 -240 771 -182 q 603 -328 683 -297 q 414 -360 522 -360 q 178 -313 272 -360 q 85 -160 85 -267 q 121 -51 85 -101 q 200 26 157 0 q 149 59 165 40 q 129 96 132 78 q 126 143 126 114 q 149 221 126 172 q 210 303 172 269 q 96 511 96 369 q 142 664 96 601 q 260 757 188 726 q 415 788 333 788 m 390 721 q 265 676 313 721 q 218 535 218 632 q 266 384 218 442 q 410 326 314 326 q 533 374 493 326 q 574 518 574 421 q 528 672 574 622 q 390 721 482 721 m 250 14 q 203 -119 203 -36 q 268 -249 203 -208 q 431 -289 333 -289 q 608 -250 543 -289 q 672 -135 672 -211 q 656 -58 672 -87 q 596 -13 640 -29 q 469 3 551 3 l 374 4 q 250 14 294 4 m 419 894 q 318 958 354 910 q 281 1061 282 1007 q 308 1167 281 1118 q 374 1250 335 1217 q 447 1294 413 1283 l 482 1263 l 482 1244 q 428 1183 446 1228 q 410 1088 410 1139 q 435 1022 410 1050 q 483 994 460 994 l 483 960 l 419 894 z "},"h":{"ha":953,"x_min":71,"x_max":904,"o":"m 186 68 l 186 997 l 71 1018 l 71 1075 l 278 1101 l 308 1086 l 307 779 l 304 669 q 440 744 363 715 q 575 774 518 774 q 716 737 667 774 q 785 622 765 700 q 803 411 804 544 l 803 68 l 904 54 l 904 0 l 567 0 l 567 54 l 681 68 l 681 361 q 669 548 681 482 q 624 647 658 614 q 515 681 589 681 q 409 665 465 681 q 308 618 353 650 l 308 68 l 408 54 l 408 0 l 85 0 l 85 54 l 186 68 z "},"ħ":{"ha":953,"x_min":71,"x_max":904,"o":"m 186 68 l 186 828 l 71 828 l 71 901 l 186 901 l 186 997 l 71 1018 l 71 1075 l 278 1101 l 308 1086 l 307 901 l 435 901 l 435 828 l 307 828 l 307 779 l 304 669 q 440 744 363 715 q 575 774 518 774 q 716 737 667 774 q 785 622 765 700 q 803 411 804 544 l 803 68 l 904 54 l 904 0 l 567 0 l 567 54 l 681 68 l 681 361 q 669 548 681 482 q 624 647 658 614 q 515 681 589 681 q 409 665 465 681 q 308 618 353 650 l 308 68 l 408 54 l 408 0 l 85 0 l 85 54 l 186 68 z "},"i":{"ha":464,"x_min":82,"x_max":424,"o":"m 243 1113 q 303 1090 283 1113 q 324 1033 324 1068 q 294 967 324 993 q 228 940 265 940 q 172 962 196 940 q 147 1018 147 983 q 177 1085 147 1057 q 243 1113 207 1113 m 313 757 l 313 68 l 424 54 l 424 0 l 82 0 l 82 54 l 196 68 l 196 636 l 100 681 l 100 721 l 283 771 l 313 757 z "},"ı":{"ha":464,"x_min":82,"x_max":424,"o":"m 196 68 l 196 636 l 100 681 l 100 721 l 283 771 l 313 757 l 313 68 l 424 54 l 424 0 l 82 0 l 82 54 l 196 68 z "},"í":{"ha":464,"x_min":82,"x_max":447,"o":"m 82 0 m 196 68 l 196 636 l 100 681 l 100 721 l 283 771 l 313 757 l 313 68 l 424 54 l 424 0 l 82 0 l 82 54 l 196 68 m 356 1206 l 447 1113 q 338 1006 414 1061 q 186 910 263 950 l 151 944 l 356 1206 z "},"î":{"ha":464,"x_min":-4,"x_max":482,"o":"m 183 1203 l 303 1203 l 482 936 l 428 906 l 242 1096 l 46 906 l -4 935 l 183 1203 m 196 68 l 196 636 l 100 681 l 100 721 l 283 771 l 313 757 l 313 68 l 424 54 l 424 0 l 82 0 l 82 54 l 196 68 z "},"ï":{"ha":464,"x_min":-3,"x_max":485,"o":"m 0 0 m 196 68 l 196 636 l 100 681 l 100 721 l 283 771 l 313 757 l 313 68 l 424 54 l 424 0 l 82 0 l 82 54 l 196 68 m 76 947 q 20 967 43 947 q -3 1022 -3 988 q 26 1086 -3 1060 q 90 1113 54 1113 q 151 1091 131 1113 q 171 1036 171 1069 q 142 972 171 996 q 76 947 114 947 m 390 947 q 334 967 357 947 q 311 1022 311 988 q 340 1086 311 1060 q 404 1113 369 1113 q 465 1091 444 1113 q 485 1036 485 1069 q 456 972 485 996 q 390 947 428 947 z "},"ì":{"ha":464,"x_min":60,"x_max":424,"o":"m 321 910 q 172 1004 249 949 q 60 1113 94 1060 l 151 1206 l 356 944 l 321 910 m 196 68 l 196 636 l 100 681 l 100 721 l 283 771 l 313 757 l 313 68 l 424 54 l 424 0 l 82 0 l 82 54 l 196 68 z "},"ĳ":{"ha":904,"x_min":82,"x_max":782,"o":"m 82 0 m 243 1113 q 303 1090 283 1113 q 324 1033 324 1068 q 294 967 324 993 q 228 940 265 940 q 172 962 196 940 q 147 1018 147 983 q 177 1085 147 1057 q 243 1113 207 1113 m 313 757 l 313 68 l 424 54 l 424 0 l 82 0 l 82 54 l 196 68 l 196 636 l 100 681 l 100 721 l 283 771 l 313 757 m 701 1124 q 762 1102 742 1124 q 782 1044 782 1081 q 754 978 782 1003 q 688 953 726 953 q 631 974 654 953 q 607 1031 607 996 q 637 1097 607 1069 q 701 1124 667 1124 m 775 757 l 775 -11 q 710 -259 775 -169 q 533 -349 646 -349 q 488 -346 514 -349 q 458 -339 463 -343 l 458 -253 q 532 -260 476 -260 q 603 -236 576 -260 q 643 -156 631 -212 q 656 -1 656 -100 l 656 636 l 560 682 l 560 721 l 746 771 l 775 757 z "},"ī":{"ha":464,"x_min":50,"x_max":424,"o":"m 50 0 m 196 68 l 196 636 l 100 681 l 100 721 l 283 771 l 313 757 l 313 68 l 424 54 l 424 0 l 82 0 l 82 54 l 196 68 m 410 1079 l 410 985 l 50 985 l 50 1079 l 410 1079 z "},"į":{"ha":464,"x_min":61,"x_max":425,"o":"m 228 940 q 172 962 196 940 q 147 1018 147 983 q 177 1085 147 1057 q 243 1113 207 1113 q 303 1090 283 1113 q 324 1033 324 1068 q 294 967 324 993 q 228 940 265 940 m 425 -283 q 329 -339 382 -317 q 196 -357 276 -361 q 94 -317 128 -354 q 61 -229 61 -281 q 124 -102 61 -168 q 265 0 186 -36 l 82 0 l 82 54 l 196 68 l 196 636 l 100 681 l 100 721 l 283 771 l 313 757 l 313 68 l 424 54 l 424 0 l 375 0 q 286 -49 333 -15 q 207 -122 239 -82 q 175 -193 175 -161 q 196 -256 175 -237 q 264 -276 217 -274 q 335 -264 301 -278 q 411 -228 368 -250 l 425 -283 z "},"ĩ":{"ha":464,"x_min":-28,"x_max":499,"o":"m 0 0 m 196 68 l 196 636 l 100 681 l 100 721 l 283 771 l 313 757 l 313 68 l 424 54 l 424 0 l 82 0 l 82 54 l 196 68 m -28 1013 q 52 1094 -1 1060 q 158 1129 106 1129 q 212 1116 190 1129 q 261 1076 233 1103 q 302 1044 286 1054 q 339 1033 318 1033 q 406 1052 375 1033 q 465 1100 436 1071 l 499 1054 q 419 972 472 1006 q 314 938 367 938 q 260 951 282 938 q 210 989 238 964 q 169 1022 186 1011 q 132 1032 153 1032 q 6 965 72 1032 l -28 1013 z "},"j":{"ha":440,"x_min":-6,"x_max":318,"o":"m 238 1124 q 298 1102 278 1124 q 318 1044 318 1081 q 290 978 318 1003 q 224 953 263 953 q 167 974 190 953 q 143 1031 143 996 q 173 1097 143 1069 q 238 1124 203 1124 m 311 757 l 311 -11 q 247 -259 311 -169 q 69 -349 182 -349 q 24 -346 50 -349 q -6 -339 -1 -343 l -6 -253 q 68 -260 13 -260 q 140 -236 113 -260 q 179 -156 167 -212 q 192 -1 192 -100 l 192 636 l 96 682 l 96 721 l 282 771 l 311 757 z "},"ȷ":{"ha":440,"x_min":-6,"x_max":311,"o":"m 96 682 l 96 721 l 282 771 l 311 757 l 311 -11 q 247 -259 311 -169 q 69 -349 182 -349 q 24 -346 50 -349 q -6 -339 -1 -343 l -6 -253 q 68 -260 13 -260 q 140 -236 113 -260 q 179 -156 167 -212 q 192 -1 192 -100 l 192 636 l 96 682 z "},"ĵ":{"ha":440,"x_min":-6,"x_max":490,"o":"m 192 1204 l 310 1204 l 490 936 l 436 907 l 250 1096 l 53 907 l 4 935 l 192 1204 m 96 682 l 96 721 l 282 771 l 311 757 l 311 -11 q 247 -259 311 -169 q 69 -349 182 -349 q 24 -346 50 -349 q -6 -339 -1 -343 l -6 -253 q 68 -260 13 -260 q 140 -236 113 -260 q 179 -156 167 -212 q 192 -1 192 -100 l 192 636 l 96 682 z "},"k":{"ha":865,"x_min":67,"x_max":878,"o":"m 188 68 l 188 997 l 67 1018 l 67 1075 l 283 1101 l 310 1086 l 310 492 l 306 372 l 619 689 l 518 699 l 518 765 l 832 765 l 832 699 l 729 688 l 492 454 l 783 68 l 878 56 l 878 0 l 554 0 l 554 56 l 650 69 l 418 393 l 306 283 l 310 143 l 310 68 l 410 54 l 410 0 l 78 0 l 78 54 l 188 68 z "},"ķ":{"ha":865,"x_min":67,"x_max":878,"o":"m 67 0 m 188 68 l 188 997 l 67 1018 l 67 1075 l 283 1101 l 310 1086 l 310 492 l 306 372 l 619 689 l 518 699 l 518 765 l 832 765 l 832 699 l 729 688 l 492 454 l 783 68 l 878 56 l 878 0 l 554 0 l 554 56 l 650 69 l 418 393 l 306 283 l 310 143 l 310 68 l 410 54 l 410 0 l 78 0 l 78 54 l 188 68 m 467 -35 q 568 -99 532 -50 q 606 -201 604 -147 q 578 -308 606 -258 q 513 -390 551 -357 q 439 -435 474 -424 l 404 -403 l 404 -385 q 458 -324 440 -368 q 476 -228 476 -279 q 451 -162 476 -190 q 403 -135 426 -135 l 403 -100 l 467 -35 z "},"ĸ":{"ha":865,"x_min":67,"x_max":878,"o":"m 188 68 l 188 671 l 67 693 l 67 750 l 282 776 l 310 761 l 310 478 l 306 372 l 619 689 l 518 699 l 518 765 l 832 765 l 832 699 l 728 688 l 492 454 l 783 68 l 878 56 l 878 0 l 554 0 l 554 56 l 649 69 l 418 393 l 306 283 l 310 143 l 310 68 l 410 54 l 410 0 l 78 0 l 78 54 l 188 68 z "},"l":{"ha":474,"x_min":79,"x_max":435,"o":"m 193 68 l 193 997 l 85 1018 l 85 1075 l 289 1101 l 315 1086 l 315 68 l 435 54 l 435 0 l 79 0 l 79 54 l 193 68 z "},"ĺ":{"ha":474,"x_min":79,"x_max":458,"o":"m 79 0 m 193 68 l 193 997 l 85 1018 l 85 1075 l 289 1101 l 315 1086 l 315 68 l 435 54 l 435 0 l 79 0 l 79 54 l 193 68 m 367 1457 l 458 1364 q 349 1257 425 1313 q 197 1161 274 1201 l 163 1196 l 367 1457 z "},"ľ":{"ha":474,"x_min":79,"x_max":547,"o":"m 79 0 m 193 68 l 193 997 l 85 1018 l 85 1075 l 289 1101 l 315 1086 l 315 68 l 435 54 l 435 0 l 79 0 l 79 54 l 193 68 m 408 746 q 432 913 432 829 q 422 1021 432 971 q 397 1086 411 1071 l 407 1115 l 504 1142 q 535 1077 524 1122 q 547 982 547 1032 q 522 818 547 900 q 463 704 497 736 l 410 729 l 408 746 z "},"ļ":{"ha":474,"x_min":79,"x_max":435,"o":"m 79 0 m 193 68 l 193 997 l 85 1018 l 85 1075 l 289 1101 l 315 1086 l 315 68 l 435 54 l 435 0 l 79 0 l 79 54 l 193 68 m 231 -35 q 332 -99 296 -50 q 369 -201 368 -147 q 342 -308 369 -258 q 276 -390 315 -357 q 203 -435 238 -424 l 168 -403 l 168 -385 q 222 -324 204 -368 q 240 -228 240 -279 q 215 -162 240 -190 q 167 -135 190 -135 l 167 -100 l 231 -35 z "},"ŀ":{"ha":714,"x_min":79,"x_max":681,"o":"m 315 1086 l 315 68 l 435 54 l 435 0 l 79 0 l 79 54 l 193 68 l 193 997 l 85 1018 l 85 1075 l 289 1101 l 315 1086 m 604 631 q 661 610 642 631 q 681 556 681 589 q 653 492 681 517 q 590 467 625 467 q 535 488 558 467 q 511 542 511 508 q 540 605 511 579 q 604 631 569 631 z "},"ł":{"ha":474,"x_min":79,"x_max":443,"o":"m 193 68 l 193 525 l 82 481 l 82 568 l 193 614 l 193 997 l 85 1018 l 85 1075 l 289 1101 l 315 1086 l 315 663 l 443 717 l 443 624 l 315 572 l 315 68 l 435 54 l 435 0 l 79 0 l 79 54 l 193 68 z "},"m":{"ha":1406,"x_min":89,"x_max":1369,"o":"m 188 68 l 188 633 l 89 681 l 89 722 l 265 771 l 293 757 l 293 663 q 422 738 343 704 q 568 772 501 771 q 687 753 642 775 q 757 676 732 731 q 891 744 806 715 q 1043 772 976 772 q 1169 739 1122 772 q 1235 635 1215 706 q 1256 449 1256 565 l 1256 68 l 1369 54 l 1369 0 l 1040 0 l 1040 54 l 1133 68 l 1133 428 q 1122 573 1133 519 q 1076 653 1110 626 q 979 681 1043 681 q 776 621 883 681 q 792 456 792 561 l 792 68 l 897 54 l 897 0 l 568 0 l 568 54 l 671 68 l 671 438 q 659 579 671 528 q 615 656 647 631 q 519 681 582 681 q 420 662 476 681 q 310 607 364 643 l 310 68 l 413 54 l 413 0 l 93 0 l 93 54 l 188 68 z "},"n":{"ha":949,"x_min":89,"x_max":907,"o":"m 188 68 l 188 633 l 89 681 l 89 721 l 264 771 l 293 757 l 293 663 q 431 740 344 706 q 585 774 517 774 q 750 699 701 774 q 799 453 799 624 l 799 68 l 907 54 l 907 0 l 574 0 l 574 54 l 676 68 l 676 433 q 663 576 676 522 q 617 655 650 629 q 524 681 585 681 q 418 662 475 681 q 310 607 361 643 l 310 68 l 413 54 l 413 0 l 93 0 l 93 54 l 188 68 z "},"ń":{"ha":949,"x_min":89,"x_max":907,"o":"m 618 1206 l 710 1113 q 599 1005 675 1060 q 449 910 524 950 l 414 944 l 618 1206 m 188 68 l 188 633 l 89 681 l 89 721 l 264 771 l 293 757 l 293 663 q 431 740 344 706 q 585 774 517 774 q 750 699 701 774 q 799 453 799 624 l 799 68 l 907 54 l 907 0 l 574 0 l 574 54 l 676 68 l 676 433 q 663 576 676 522 q 617 655 650 629 q 524 681 585 681 q 418 662 475 681 q 310 607 361 643 l 310 68 l 413 54 l 413 0 l 93 0 l 93 54 l 188 68 z "},"ň":{"ha":949,"x_min":89,"x_max":907,"o":"m 89 0 m 188 68 l 188 633 l 89 681 l 89 721 l 264 771 l 293 757 l 293 663 q 431 740 344 706 q 585 774 517 774 q 750 699 701 774 q 799 453 799 624 l 799 68 l 907 54 l 907 0 l 574 0 l 574 54 l 676 68 l 676 433 q 663 576 676 522 q 617 655 650 629 q 524 681 585 681 q 418 662 475 681 q 310 607 361 643 l 310 68 l 413 54 l 413 0 l 93 0 l 93 54 l 188 68 m 297 1203 l 489 1014 l 681 1203 l 729 1174 l 547 906 l 429 906 l 243 1174 l 297 1203 z "},"ņ":{"ha":949,"x_min":89,"x_max":907,"o":"m 89 0 m 188 68 l 188 633 l 89 681 l 89 721 l 264 771 l 293 757 l 293 663 q 431 740 344 706 q 585 774 517 774 q 750 699 701 774 q 799 453 799 624 l 799 68 l 907 54 l 907 0 l 574 0 l 574 54 l 676 68 l 676 433 q 663 576 676 522 q 617 655 650 629 q 524 681 585 681 q 418 662 475 681 q 310 607 361 643 l 310 68 l 413 54 l 413 0 l 93 0 l 93 54 l 188 68 m 471 -35 q 572 -99 536 -50 q 610 -201 608 -147 q 583 -308 610 -258 q 517 -390 556 -357 q 443 -435 478 -424 l 408 -403 l 408 -385 q 463 -324 444 -368 q 481 -228 481 -279 q 456 -162 481 -190 q 407 -135 431 -135 l 407 -100 l 471 -35 z "},"ñ":{"ha":949,"x_min":89,"x_max":907,"o":"m 89 0 m 188 68 l 188 633 l 89 681 l 89 721 l 264 771 l 293 757 l 293 663 q 431 740 344 706 q 585 774 517 774 q 750 699 701 774 q 799 453 799 624 l 799 68 l 907 54 l 907 0 l 574 0 l 574 54 l 676 68 l 676 433 q 663 576 676 522 q 617 655 650 629 q 524 681 585 681 q 418 662 475 681 q 310 607 361 643 l 310 68 l 413 54 l 413 0 l 93 0 l 93 54 l 188 68 m 238 1013 q 317 1094 264 1060 q 424 1129 371 1129 q 477 1116 456 1129 q 526 1076 499 1103 q 567 1044 551 1054 q 604 1033 583 1033 q 671 1052 640 1033 q 731 1100 701 1071 l 764 1054 q 685 972 738 1006 q 579 938 632 938 q 525 951 547 938 q 475 989 503 964 q 435 1022 451 1011 q 397 1032 418 1032 q 271 965 338 1032 l 238 1013 z "},"o":{"ha":836,"x_min":69,"x_max":769,"o":"m 435 782 q 622 730 546 782 q 733 589 697 678 q 769 390 769 500 q 721 179 768 272 q 593 35 674 86 q 414 -17 513 -17 q 219 38 296 -17 q 106 185 142 93 q 69 388 69 276 q 120 596 69 506 q 254 734 171 686 q 435 782 338 782 m 415 714 q 253 632 307 714 q 199 401 199 550 q 256 153 199 253 q 425 54 314 54 q 588 138 536 54 q 639 383 639 222 q 583 623 639 532 q 415 714 528 714 z "},"ó":{"ha":836,"x_min":69,"x_max":769,"o":"m 69 0 m 435 782 q 622 730 546 782 q 733 589 697 678 q 769 390 769 500 q 721 179 768 272 q 593 35 674 86 q 414 -17 513 -17 q 219 38 296 -17 q 106 185 142 93 q 69 388 69 276 q 120 596 69 506 q 254 734 171 686 q 435 782 338 782 m 415 714 q 253 632 307 714 q 199 401 199 550 q 256 153 199 253 q 425 54 314 54 q 588 138 536 54 q 639 383 639 222 q 583 623 639 532 q 415 714 528 714 m 540 1206 l 632 1113 q 523 1006 599 1061 q 371 910 447 950 l 336 944 l 540 1206 z "},"ô":{"ha":836,"x_min":69,"x_max":769,"o":"m 69 0 m 435 782 q 622 730 546 782 q 733 589 697 678 q 769 390 769 500 q 721 179 768 272 q 593 35 674 86 q 414 -17 513 -17 q 219 38 296 -17 q 106 185 142 93 q 69 388 69 276 q 120 596 69 506 q 254 734 171 686 q 435 782 338 782 m 415 714 q 253 632 307 714 q 199 401 199 550 q 256 153 199 253 q 425 54 314 54 q 588 138 536 54 q 639 383 639 222 q 583 623 639 532 q 415 714 528 714 m 368 1203 l 488 1203 l 668 936 l 614 906 l 428 1096 l 231 906 l 182 935 l 368 1203 z "},"ö":{"ha":836,"x_min":69,"x_max":769,"o":"m 69 0 m 435 782 q 622 730 546 782 q 733 589 697 678 q 769 390 769 500 q 721 179 768 272 q 593 35 674 86 q 414 -17 513 -17 q 219 38 296 -17 q 106 185 142 93 q 69 388 69 276 q 120 596 69 506 q 254 734 171 686 q 435 782 338 782 m 415 714 q 253 632 307 714 q 199 401 199 550 q 256 153 199 253 q 425 54 314 54 q 588 138 536 54 q 639 383 639 222 q 583 623 639 532 q 415 714 528 714 m 263 947 q 206 967 229 947 q 183 1022 183 988 q 212 1086 183 1060 q 276 1113 240 1113 q 337 1091 317 1113 q 357 1036 357 1069 q 328 972 357 996 q 263 947 300 947 m 576 947 q 520 967 543 947 q 497 1022 497 988 q 526 1086 497 1060 q 590 1113 556 1113 q 651 1091 631 1113 q 671 1036 671 1069 q 642 972 671 996 q 576 947 614 947 z "},"ò":{"ha":836,"x_min":69,"x_max":769,"o":"m 69 0 m 435 782 q 622 730 546 782 q 733 589 697 678 q 769 390 769 500 q 721 179 768 272 q 593 35 674 86 q 414 -17 513 -17 q 219 38 296 -17 q 106 185 142 93 q 69 388 69 276 q 120 596 69 506 q 254 734 171 686 q 435 782 338 782 m 415 714 q 253 632 307 714 q 199 401 199 550 q 256 153 199 253 q 425 54 314 54 q 588 138 536 54 q 639 383 639 222 q 583 623 639 532 q 415 714 528 714 m 508 910 q 359 1004 436 949 q 247 1113 282 1060 l 339 1206 l 543 944 l 508 910 z "},"ő":{"ha":836,"x_min":69,"x_max":813,"o":"m 69 0 m 435 782 q 622 730 546 782 q 733 589 697 678 q 769 390 769 500 q 721 179 768 272 q 593 35 674 86 q 414 -17 513 -17 q 219 38 296 -17 q 106 185 142 93 q 69 388 69 276 q 120 596 69 506 q 254 734 171 686 q 435 782 338 782 m 415 714 q 253 632 307 714 q 199 401 199 550 q 256 153 199 253 q 425 54 314 54 q 588 138 536 54 q 639 383 639 222 q 583 623 639 532 q 415 714 528 714 m 401 1224 l 481 1149 q 360 1025 440 1096 q 215 910 279 954 l 181 944 l 401 1224 m 732 1224 l 813 1149 q 690 1025 771 1096 q 546 910 608 954 l 511 944 l 732 1224 z "},"ō":{"ha":835,"x_min":69,"x_max":769,"o":"m 69 0 m 579 1079 l 579 985 l 219 985 l 219 1079 l 579 1079 m 435 782 q 622 730 546 782 q 733 589 697 678 q 769 390 769 500 q 721 179 768 272 q 593 35 674 86 q 414 -17 513 -17 q 219 38 296 -17 q 106 185 142 93 q 69 388 69 276 q 120 596 69 506 q 254 734 171 686 q 435 782 338 782 m 415 714 q 253 632 307 714 q 199 401 199 550 q 256 153 199 253 q 425 54 314 54 q 588 138 536 54 q 639 383 639 222 q 583 623 639 532 q 415 714 528 714 z "},"ø":{"ha":836,"x_min":69,"x_max":767,"o":"m 267 11 q 118 154 167 54 q 69 383 69 254 q 119 592 69 503 q 251 731 168 682 q 431 782 333 781 q 528 769 483 782 l 567 883 l 618 864 l 581 751 q 719 614 671 708 q 767 400 767 519 q 720 184 767 279 q 593 36 674 89 q 413 -17 513 -17 q 321 -6 368 -17 l 279 -132 l 225 -111 l 267 11 m 500 697 q 417 714 463 714 q 253 633 307 714 q 199 401 199 551 q 224 225 199 304 q 300 101 249 146 l 500 697 m 349 69 q 425 54 383 54 q 638 383 638 54 q 616 549 638 476 q 549 664 594 622 l 349 69 z "},"õ":{"ha":836,"x_min":69,"x_max":769,"o":"m 69 0 m 435 782 q 622 730 546 782 q 733 589 697 678 q 769 390 769 500 q 721 179 768 272 q 593 35 674 86 q 414 -17 513 -17 q 219 38 296 -17 q 106 185 142 93 q 69 388 69 276 q 120 596 69 506 q 254 734 171 686 q 435 782 338 782 m 415 714 q 253 632 307 714 q 199 401 199 550 q 256 153 199 253 q 425 54 314 54 q 588 138 536 54 q 639 383 639 222 q 583 623 639 532 q 415 714 528 714 m 158 1013 q 238 1094 185 1060 q 344 1129 292 1129 q 398 1116 376 1129 q 447 1076 419 1103 q 488 1044 472 1054 q 525 1033 504 1033 q 592 1052 561 1033 q 651 1100 622 1071 l 685 1054 q 606 972 658 1006 q 500 938 553 938 q 446 951 468 938 q 396 989 424 964 q 356 1022 372 1011 q 318 1032 339 1032 q 192 965 258 1032 l 158 1013 z "},"œ":{"ha":1385,"x_min":69,"x_max":1317,"o":"m 1057 782 q 1242 706 1174 782 q 1315 499 1311 631 q 1315 433 1317 464 q 1308 375 1313 401 l 799 375 q 867 151 799 233 q 1064 69 936 69 q 1181 83 1119 69 q 1271 114 1242 96 l 1296 60 q 1177 4 1257 25 q 1017 -17 1097 -17 q 831 33 908 -17 q 715 172 754 82 q 590 33 669 83 q 414 -17 511 -17 q 219 38 296 -17 q 106 184 142 93 q 69 386 69 275 q 119 595 69 506 q 253 733 169 685 q 435 782 338 782 q 617 732 543 782 q 729 594 690 682 q 864 732 779 682 q 1057 782 949 782 m 417 714 q 253 633 307 714 q 199 401 199 551 q 256 153 199 253 q 425 54 314 54 q 639 383 639 54 q 584 623 639 532 q 417 714 529 714 m 1019 714 q 872 648 932 714 q 800 450 811 582 l 1188 450 q 1189 492 1189 464 q 1111 690 1189 643 q 1019 714 1075 714 z "},"p":{"ha":897,"x_min":83,"x_max":829,"o":"m 531 782 q 680 743 613 782 q 788 619 747 704 q 829 404 829 535 q 780 193 829 289 q 643 41 731 97 q 443 -15 556 -15 q 299 8 374 -15 l 303 -175 l 303 -279 l 443 -292 l 443 -347 l 83 -347 l 83 -292 l 181 -278 l 181 633 l 85 681 l 85 721 l 258 771 l 288 757 l 288 679 q 389 751 324 719 q 531 782 454 782 m 481 700 q 379 678 422 700 q 301 626 336 657 l 303 113 q 359 68 319 85 q 457 51 399 51 q 581 88 524 51 q 673 202 638 125 q 708 396 708 279 q 643 626 708 551 q 481 700 578 700 z "},"þ":{"ha":860,"x_min":26,"x_max":790,"o":"m 263 1090 l 263 694 q 489 782 368 782 q 639 744 571 782 q 749 622 707 706 q 790 410 790 538 q 742 194 790 293 q 606 38 693 96 q 407 -19 518 -19 q 258 -4 340 -19 l 263 -69 l 263 -279 l 404 -292 l 404 -347 l 43 -347 l 43 -292 l 142 -278 l 142 1001 l 26 1022 l 26 1079 l 236 1101 l 263 1090 m 439 694 q 338 675 385 694 q 263 628 290 656 l 263 101 q 315 62 272 75 q 419 49 358 49 q 543 87 486 49 q 635 203 600 125 q 669 394 669 281 q 603 620 669 546 q 439 694 536 694 z "},"q":{"ha":843,"x_min":68,"x_max":811,"o":"m 468 782 q 550 774 510 782 q 618 754 590 767 l 692 772 l 718 760 l 718 -274 l 811 -286 l 811 -347 l 453 -347 l 453 -286 l 596 -272 l 596 -32 l 600 71 q 365 -19 501 -19 q 233 12 300 -19 q 117 130 167 43 q 68 369 68 217 q 119 579 68 485 q 262 728 171 674 q 468 782 353 782 m 449 714 q 317 676 376 714 q 224 564 258 639 q 189 381 189 489 q 249 149 189 231 q 410 68 308 68 q 521 88 474 68 q 596 135 568 107 l 596 660 q 449 714 551 714 z "},"r":{"ha":626,"x_min":75,"x_max":599,"o":"m 188 68 l 188 633 l 89 681 l 89 721 l 264 771 l 294 757 l 294 656 q 397 734 322 696 q 532 772 471 772 q 599 768 582 772 l 599 639 q 545 655 568 650 q 483 660 522 660 q 310 608 388 660 l 310 69 l 507 54 l 507 0 l 75 0 l 75 54 l 188 68 z "},"ŕ":{"ha":626,"x_min":75,"x_max":599,"o":"m 75 0 m 188 68 l 188 633 l 89 681 l 89 721 l 264 771 l 294 757 l 294 656 q 397 734 322 696 q 532 772 471 772 q 599 768 582 772 l 599 639 q 545 655 568 650 q 483 660 522 660 q 310 608 388 660 l 310 69 l 507 54 l 507 0 l 75 0 l 75 54 l 188 68 m 411 1206 l 503 1113 q 394 1006 469 1061 q 242 910 318 950 l 207 944 l 411 1206 z "},"ř":{"ha":626,"x_min":75,"x_max":626,"o":"m 75 0 m 188 68 l 188 633 l 89 681 l 89 721 l 264 771 l 294 757 l 294 656 q 397 734 322 696 q 532 772 471 772 q 599 768 582 772 l 599 639 q 545 655 568 650 q 483 660 522 660 q 310 608 388 660 l 310 69 l 507 54 l 507 0 l 75 0 l 75 54 l 188 68 m 194 1203 l 386 1014 l 578 1203 l 626 1174 l 444 906 l 326 906 l 140 1174 l 194 1203 z "},"ŗ":{"ha":626,"x_min":75,"x_max":599,"o":"m 75 0 m 188 68 l 188 633 l 89 681 l 89 721 l 264 771 l 294 757 l 294 656 q 397 734 322 696 q 532 772 471 772 q 599 768 582 772 l 599 639 q 545 655 568 650 q 483 660 522 660 q 310 608 388 660 l 310 69 l 507 54 l 507 0 l 75 0 l 75 54 l 188 68 m 242 -35 q 343 -99 307 -50 q 381 -201 379 -147 q 353 -308 381 -258 q 288 -390 326 -357 q 214 -435 249 -424 l 179 -403 l 179 -385 q 233 -324 215 -368 q 251 -228 251 -279 q 226 -162 251 -190 q 178 -135 201 -135 l 178 -100 l 242 -35 z "},"s":{"ha":711,"x_min":111,"x_max":643,"o":"m 168 194 l 194 110 q 269 66 229 79 q 361 53 308 53 q 481 86 436 53 q 526 183 526 119 q 507 241 526 217 q 459 282 488 265 q 378 322 431 299 l 329 344 q 175 442 232 389 q 118 574 118 494 q 159 689 118 642 q 264 759 200 736 q 394 782 328 782 q 512 767 456 782 q 600 733 568 753 l 600 590 l 546 590 l 518 669 q 394 718 472 718 q 278 687 321 718 q 235 596 235 656 q 272 519 235 549 q 389 451 310 489 l 424 435 q 503 398 435 429 q 607 319 571 367 q 643 211 643 272 q 560 42 643 101 q 347 -17 478 -17 q 223 -2 285 -17 q 111 42 161 13 l 111 194 l 168 194 z "},"š":{"ha":693,"x_min":108,"x_max":639,"o":"m 165 1203 l 357 1014 l 549 1203 l 597 1174 l 415 906 l 297 906 l 111 1174 l 165 1203 m 165 194 l 190 110 q 265 66 226 79 q 357 53 304 53 q 478 86 433 53 q 524 183 524 119 q 488 259 524 231 q 375 322 451 288 q 325 344 342 336 q 171 442 228 389 q 114 575 114 494 q 156 690 114 643 q 261 759 197 736 q 390 782 325 782 q 508 768 453 782 q 597 733 564 754 l 597 590 l 542 590 l 514 669 q 390 718 469 718 q 274 687 317 718 q 232 594 232 656 q 272 517 232 547 q 392 449 311 486 l 421 435 q 538 375 500 397 q 608 312 576 353 q 639 211 639 271 q 557 42 639 101 q 344 -17 475 -17 q 220 -2 282 -17 q 108 42 158 13 l 108 194 l 165 194 z "},"ş":{"ha":711,"x_min":111,"x_max":643,"o":"m 643 213 q 565 47 643 106 q 361 -15 486 -12 q 360 -50 360 -26 q 361 -83 360 -74 q 492 -121 447 -82 q 538 -211 538 -160 q 490 -315 538 -278 q 365 -356 442 -353 l 333 -357 q 265 -350 292 -357 q 231 -342 239 -343 l 232 -278 q 272 -285 247 -282 q 313 -287 296 -287 q 387 -272 360 -287 q 414 -210 414 -257 q 386 -156 414 -175 q 304 -137 358 -137 q 282 -139 292 -137 q 268 -140 272 -140 q 286 -12 268 -81 q 111 42 188 -1 l 111 194 l 168 194 l 194 110 q 269 66 229 79 q 361 53 308 53 q 481 86 436 53 q 526 183 526 119 q 507 241 526 217 q 459 282 488 265 q 378 322 431 299 l 329 344 q 175 442 232 389 q 118 574 118 494 q 159 689 118 642 q 264 759 200 736 q 394 782 328 782 q 512 767 456 782 q 600 733 568 753 l 600 590 l 546 590 l 518 669 q 394 718 472 718 q 278 687 321 718 q 235 596 235 656 q 272 519 235 549 q 389 451 310 489 l 424 435 q 503 398 435 429 q 607 319 571 367 q 643 211 643 272 l 643 213 z "},"ș":{"ha":711,"x_min":111,"x_max":643,"o":"m 111 0 m 168 194 l 194 110 q 269 66 229 79 q 361 53 308 53 q 481 86 436 53 q 526 183 526 119 q 507 241 526 217 q 459 282 488 265 q 378 322 431 299 l 329 344 q 175 442 232 389 q 118 574 118 494 q 159 689 118 642 q 264 759 200 736 q 394 782 328 782 q 512 767 456 782 q 600 733 568 753 l 600 590 l 546 590 l 518 669 q 394 718 472 718 q 278 687 321 718 q 235 596 235 656 q 272 519 235 549 q 389 451 310 489 l 424 435 q 503 398 435 429 q 607 319 571 367 q 643 211 643 272 q 560 42 643 101 q 347 -17 478 -17 q 223 -2 285 -17 q 111 42 161 13 l 111 194 l 168 194 m 333 -51 q 435 -115 399 -67 q 472 -218 471 -164 q 445 -324 472 -275 q 379 -407 418 -374 q 306 -451 340 -440 l 271 -419 l 271 -401 q 325 -340 307 -385 q 343 -244 343 -296 q 318 -179 343 -207 q 269 -151 293 -151 l 269 -117 l 333 -51 z "},"ß":{"ha":906,"x_min":46,"x_max":889,"o":"m 153 75 l 153 594 q 203 860 153 753 q 338 1021 254 968 q 521 1074 421 1074 q 672 1027 611 1074 q 733 875 733 981 q 714 776 733 817 q 658 686 694 736 q 613 616 628 646 q 597 547 597 586 q 627 478 597 504 q 719 419 657 451 q 808 368 774 392 q 865 306 842 344 q 889 211 889 267 q 809 42 889 99 q 608 -14 729 -14 q 457 -1 511 -14 l 457 107 q 537 73 492 89 q 617 57 582 57 q 730 88 686 57 q 774 189 774 118 q 740 267 774 238 q 635 333 706 296 q 519 407 558 372 q 481 500 481 442 q 495 559 481 529 q 543 640 510 589 q 603 742 583 700 q 624 833 624 785 q 590 953 624 907 q 488 999 556 999 q 365 960 411 999 q 297 835 319 922 q 275 596 275 747 l 275 0 l 46 0 l 46 56 l 153 75 z "},"t":{"ha":586,"x_min":75,"x_max":544,"o":"m 299 758 l 535 758 l 535 679 l 299 679 l 299 317 q 304 160 299 208 q 326 92 310 111 q 382 72 343 72 q 462 84 418 72 q 525 108 506 96 l 544 53 q 452 3 517 22 q 335 -17 388 -17 q 218 30 257 -17 q 179 178 179 76 l 179 679 l 75 679 l 75 726 l 106 733 q 167 751 150 743 q 196 783 183 758 q 219 860 204 804 q 236 940 233 917 l 299 940 l 299 758 z "},"ť":{"ha":586,"x_min":75,"x_max":547,"o":"m 75 0 m 299 758 l 535 758 l 535 679 l 299 679 l 299 317 q 304 160 299 208 q 326 92 310 111 q 382 72 343 72 q 462 84 418 72 q 525 108 506 96 l 544 53 q 452 3 517 22 q 335 -17 388 -17 q 218 30 257 -17 q 179 178 179 76 l 179 679 l 75 679 l 75 726 l 106 733 q 167 751 150 743 q 196 783 183 758 q 219 860 204 804 q 236 940 233 917 l 299 940 l 299 758 m 408 928 q 432 1094 432 1011 q 422 1203 432 1153 q 397 1268 411 1253 l 407 1297 l 504 1324 q 535 1259 524 1304 q 547 1164 547 1214 q 522 1000 547 1082 q 463 886 497 918 l 410 911 l 408 928 z "},"ț":{"ha":586,"x_min":75,"x_max":544,"o":"m 75 0 m 299 758 l 535 758 l 535 679 l 299 679 l 299 317 q 304 160 299 208 q 326 92 310 111 q 382 72 343 72 q 462 84 418 72 q 525 108 506 96 l 544 53 q 452 3 517 22 q 335 -17 388 -17 q 218 30 257 -17 q 179 178 179 76 l 179 679 l 75 679 l 75 726 l 106 733 q 167 751 150 743 q 196 783 183 758 q 219 860 204 804 q 236 940 233 917 l 299 940 l 299 758 m 304 -35 q 406 -99 369 -50 q 443 -201 442 -147 q 416 -308 443 -258 q 350 -390 389 -357 q 276 -435 311 -424 l 242 -403 l 242 -385 q 296 -324 278 -368 q 314 -228 314 -279 q 289 -162 314 -190 q 240 -135 264 -135 l 240 -100 l 304 -35 z "},"u":{"ha":876,"x_min":74,"x_max":815,"o":"m 74 689 l 74 738 l 240 772 l 264 760 l 264 293 q 276 165 264 211 q 320 95 288 118 q 414 72 353 72 q 530 100 472 72 q 613 153 588 128 l 613 664 l 528 683 l 528 736 l 714 772 l 732 761 l 732 56 l 815 56 l 815 7 q 758 -12 794 -4 q 693 -21 722 -21 q 625 35 625 -21 l 625 92 q 498 13 564 40 q 367 -14 432 -14 q 218 26 267 -14 q 157 131 169 65 q 143 311 144 197 l 143 671 l 74 689 z "},"ú":{"ha":876,"x_min":74,"x_max":815,"o":"m 532 1206 l 624 1113 q 513 1005 589 1060 q 363 910 438 950 l 328 944 l 532 1206 m 74 689 l 74 738 l 240 772 l 264 760 l 264 293 q 276 165 264 211 q 320 95 288 118 q 414 72 353 72 q 530 100 472 72 q 613 153 588 128 l 613 664 l 528 683 l 528 736 l 714 772 l 732 761 l 732 56 l 815 56 l 815 7 q 758 -12 794 -4 q 693 -21 722 -21 q 625 35 625 -21 l 625 92 q 498 13 564 40 q 367 -14 432 -14 q 218 26 267 -14 q 157 131 169 65 q 143 311 144 197 l 143 671 l 74 689 z "},"û":{"ha":876,"x_min":74,"x_max":815,"o":"m 363 1203 l 481 1203 l 661 936 l 607 906 l 421 1096 l 224 906 l 175 935 l 363 1203 m 74 689 l 74 738 l 240 772 l 264 760 l 264 293 q 276 165 264 211 q 320 95 288 118 q 414 72 353 72 q 530 100 472 72 q 613 153 588 128 l 613 664 l 528 683 l 528 736 l 714 772 l 732 761 l 732 56 l 815 56 l 815 7 q 758 -12 794 -4 q 693 -21 722 -21 q 625 35 625 -21 l 625 92 q 498 13 564 40 q 367 -14 432 -14 q 218 26 267 -14 q 157 131 169 65 q 143 311 144 197 l 143 671 l 74 689 z "},"ü":{"ha":876,"x_min":74,"x_max":815,"o":"m 74 0 m 74 689 l 74 738 l 240 772 l 264 760 l 264 293 q 276 165 264 211 q 320 95 288 118 q 414 72 353 72 q 530 100 472 72 q 613 153 588 128 l 613 664 l 528 683 l 528 736 l 714 772 l 732 761 l 732 56 l 815 56 l 815 7 q 758 -12 794 -4 q 693 -21 722 -21 q 625 35 625 -21 l 625 92 q 498 13 564 40 q 367 -14 432 -14 q 218 26 267 -14 q 157 131 169 65 q 143 311 144 197 l 143 671 l 74 689 m 256 947 q 199 967 222 947 q 176 1022 176 988 q 205 1086 176 1060 q 269 1113 233 1113 q 330 1091 310 1113 q 350 1036 350 1069 q 322 972 350 996 q 256 947 293 947 m 569 947 q 513 967 536 947 q 490 1022 490 988 q 519 1086 490 1060 q 583 1113 549 1113 q 644 1091 624 1113 q 664 1036 664 1069 q 635 972 664 996 q 569 947 607 947 z "},"ù":{"ha":876,"x_min":74,"x_max":815,"o":"m 499 910 q 349 1004 426 949 q 238 1113 272 1060 l 329 1206 l 533 944 l 499 910 m 74 689 l 74 738 l 240 772 l 264 760 l 264 293 q 276 165 264 211 q 320 95 288 118 q 414 72 353 72 q 530 100 472 72 q 613 153 588 128 l 613 664 l 528 683 l 528 736 l 714 772 l 732 761 l 732 56 l 815 56 l 815 7 q 758 -12 794 -4 q 693 -21 722 -21 q 625 35 625 -21 l 625 92 q 498 13 564 40 q 367 -14 432 -14 q 218 26 267 -14 q 157 131 169 65 q 143 311 144 197 l 143 671 l 74 689 z "},"ű":{"ha":876,"x_min":74,"x_max":854,"o":"m 74 0 m 74 689 l 74 738 l 240 772 l 264 760 l 264 293 q 276 165 264 211 q 320 95 288 118 q 414 72 353 72 q 530 100 472 72 q 613 153 588 128 l 613 664 l 528 683 l 528 736 l 714 772 l 732 761 l 732 56 l 815 56 l 815 7 q 758 -12 794 -4 q 693 -21 722 -21 q 625 35 625 -21 l 625 92 q 498 13 564 40 q 367 -14 432 -14 q 218 26 267 -14 q 157 131 169 65 q 143 311 144 197 l 143 671 l 74 689 m 443 1224 l 522 1149 q 401 1025 482 1096 q 257 910 321 954 l 222 944 l 443 1224 m 774 1224 l 854 1149 q 731 1025 813 1096 q 588 910 650 954 l 553 944 l 774 1224 z "},"ū":{"ha":876,"x_min":74,"x_max":815,"o":"m 74 0 m 74 689 l 74 738 l 240 772 l 264 760 l 264 293 q 276 165 264 211 q 320 95 288 118 q 414 72 353 72 q 530 100 472 72 q 613 153 588 128 l 613 664 l 528 683 l 528 736 l 714 772 l 732 761 l 732 56 l 815 56 l 815 7 q 758 -12 794 -4 q 693 -21 722 -21 q 625 35 625 -21 l 625 92 q 498 13 564 40 q 367 -14 432 -14 q 218 26 267 -14 q 157 131 169 65 q 143 311 144 197 l 143 671 l 74 689 m 617 1079 l 617 985 l 257 985 l 257 1079 l 617 1079 z "},"ų":{"ha":876,"x_min":74,"x_max":815,"o":"m 708 -18 q 601 -101 649 -51 q 553 -192 553 -151 q 574 -254 553 -236 q 642 -275 594 -272 q 713 -262 679 -276 q 789 -226 746 -249 l 803 -282 q 707 -337 760 -315 q 574 -356 654 -360 q 472 -316 506 -353 q 439 -228 439 -279 q 499 -103 439 -168 q 638 -1 560 -39 q 625 36 625 11 l 625 93 q 498 15 564 42 q 367 -12 432 -12 q 218 27 267 -12 q 157 133 169 67 q 143 313 144 199 l 143 672 l 74 690 l 74 739 l 240 774 l 264 761 l 264 294 q 276 166 264 213 q 320 97 288 119 q 414 74 353 74 q 530 101 472 74 q 613 154 588 129 l 613 665 l 528 685 l 528 738 l 714 774 l 732 763 l 732 57 l 815 57 l 815 8 q 769 -10 799 -1 q 711 -19 739 -18 l 708 -18 z "},"ů":{"ha":876,"x_min":74,"x_max":815,"o":"m 74 0 m 74 689 l 74 738 l 240 772 l 264 760 l 264 293 q 276 165 264 211 q 320 95 288 118 q 414 72 353 72 q 530 100 472 72 q 613 153 588 128 l 613 664 l 528 683 l 528 736 l 714 772 l 732 761 l 732 56 l 815 56 l 815 7 q 758 -12 794 -4 q 693 -21 722 -21 q 625 35 625 -21 l 625 92 q 498 13 564 40 q 367 -14 432 -14 q 218 26 267 -14 q 157 131 169 65 q 143 311 144 197 l 143 671 l 74 689 m 429 1221 q 549 1173 500 1221 q 599 1057 599 1125 q 549 942 599 989 q 429 896 500 896 q 310 942 360 896 q 260 1057 260 989 q 310 1173 260 1125 q 429 1221 360 1221 m 429 1150 q 363 1122 390 1150 q 335 1056 335 1094 q 363 989 335 1017 q 429 961 390 961 q 497 989 469 961 q 524 1056 524 1017 q 497 1123 524 1096 q 429 1150 469 1150 z "},"v":{"ha":807,"x_min":1,"x_max":807,"o":"m 1 692 l 1 758 l 297 758 l 297 692 l 208 679 l 365 297 l 429 107 l 490 289 l 628 679 l 538 692 l 538 758 l 807 758 l 807 692 l 731 678 l 456 -17 l 369 -17 l 69 681 l 1 692 z "},"w":{"ha":1149,"x_min":1,"x_max":1147,"o":"m 1 692 l 1 758 l 296 758 l 296 692 l 197 678 l 333 238 l 367 104 l 396 238 l 532 758 l 640 758 l 781 238 l 815 103 l 850 233 l 964 679 l 876 692 l 876 758 l 1147 758 l 1147 692 l 1063 678 l 860 -17 l 747 -17 l 597 508 l 578 613 l 551 508 l 410 -17 l 306 -17 l 74 681 l 1 692 z "},"x":{"ha":793,"x_min":3,"x_max":790,"o":"m 108 68 l 336 368 l 100 681 l 3 692 l 3 758 l 340 758 l 340 692 l 242 681 l 378 481 l 413 428 l 443 476 l 582 682 l 485 692 l 485 758 l 783 758 l 783 692 l 681 679 l 456 383 l 697 68 l 790 54 l 790 0 l 457 0 l 457 54 l 554 68 l 378 318 l 349 267 l 210 68 l 333 54 l 333 0 l 7 0 l 7 54 l 108 68 z "},"y":{"ha":782,"x_min":1,"x_max":790,"o":"m 101 -237 q 157 -246 125 -246 q 278 -193 218 -246 q 379 -6 338 -140 l 353 -6 l 76 681 l 1 692 l 1 758 l 314 758 l 314 692 l 213 679 l 375 219 l 425 71 l 467 215 l 608 681 l 500 692 l 500 758 l 790 758 l 790 692 l 713 682 l 682 592 q 535 163 588 314 q 467 -25 482 11 q 353 -245 411 -168 q 218 -342 296 -322 q 157 -349 196 -349 q 124 -346 142 -349 q 101 -339 107 -343 l 101 -237 z "},"ý":{"ha":782,"x_min":1,"x_max":790,"o":"m 1 0 m 101 -237 q 157 -246 125 -246 q 278 -193 218 -246 q 379 -6 338 -140 l 353 -6 l 76 681 l 1 692 l 1 758 l 314 758 l 314 692 l 213 679 l 375 219 l 425 71 l 467 215 l 608 681 l 500 692 l 500 758 l 790 758 l 790 692 l 713 682 l 682 592 q 535 163 588 314 q 467 -25 482 11 q 353 -245 411 -168 q 218 -342 296 -322 q 157 -349 196 -349 q 124 -346 142 -349 q 101 -339 107 -343 l 101 -237 m 528 1206 l 619 1113 q 510 1006 586 1061 q 358 910 435 950 l 324 944 l 528 1206 z "},"ÿ":{"ha":782,"x_min":1,"x_max":790,"o":"m 1 0 m 101 -237 q 157 -246 125 -246 q 278 -193 218 -246 q 379 -6 338 -140 l 353 -6 l 76 681 l 1 692 l 1 758 l 314 758 l 314 692 l 213 679 l 375 219 l 425 71 l 467 215 l 608 681 l 500 692 l 500 758 l 790 758 l 790 692 l 713 682 l 682 592 q 535 163 588 314 q 467 -25 482 11 q 353 -245 411 -168 q 218 -342 296 -322 q 157 -349 196 -349 q 124 -346 142 -349 q 101 -339 107 -343 l 101 -237 m 250 947 q 194 967 217 947 q 171 1022 171 988 q 199 1086 171 1060 q 264 1113 228 1113 q 324 1091 304 1113 q 344 1036 344 1069 q 316 972 344 996 q 250 947 288 947 m 564 947 q 508 967 531 947 q 485 1022 485 988 q 514 1086 485 1060 q 578 1113 543 1113 q 638 1091 618 1113 q 658 1036 658 1069 q 630 972 658 996 q 564 947 601 947 z "},"z":{"ha":732,"x_min":60,"x_max":693,"o":"m 685 706 l 276 150 l 208 63 l 586 78 l 628 194 l 693 193 l 682 0 l 81 0 l 60 53 l 110 119 l 482 632 l 539 699 l 190 689 l 151 563 l 92 563 l 92 758 l 667 758 l 685 706 z "},"ź":{"ha":732,"x_min":60,"x_max":693,"o":"m 60 0 m 685 706 l 276 150 l 208 63 l 586 78 l 628 194 l 693 193 l 682 0 l 81 0 l 60 53 l 110 119 l 482 632 l 539 699 l 190 689 l 151 563 l 92 563 l 92 758 l 667 758 l 685 706 m 468 1206 l 560 1113 q 451 1006 526 1061 q 299 910 375 950 l 264 944 l 468 1206 z "},"ž":{"ha":732,"x_min":60,"x_max":693,"o":"m 60 0 m 685 706 l 276 150 l 208 63 l 586 78 l 628 194 l 693 193 l 682 0 l 81 0 l 60 53 l 110 119 l 482 632 l 539 699 l 190 689 l 151 563 l 92 563 l 92 758 l 667 758 l 685 706 m 190 1203 l 382 1014 l 574 1203 l 622 1174 l 440 906 l 322 906 l 136 1174 l 190 1203 z "},"ż":{"ha":732,"x_min":60,"x_max":693,"o":"m 60 0 m 685 706 l 276 150 l 208 63 l 586 78 l 628 194 l 693 193 l 682 0 l 81 0 l 60 53 l 110 119 l 482 632 l 539 699 l 190 689 l 151 563 l 92 563 l 92 758 l 667 758 l 685 706 m 378 1101 q 438 1080 418 1101 q 458 1024 458 1058 q 430 959 458 985 q 364 933 401 933 q 307 954 331 933 q 283 1010 283 975 q 313 1074 283 1047 q 378 1101 343 1101 z "},"ﬁ":{"ha":1033,"x_min":63,"x_max":992,"o":"m 489 1144 q 588 1132 565 1144 l 588 1025 q 542 1040 575 1033 q 465 1047 508 1047 q 396 1034 424 1047 q 352 981 368 1021 q 336 867 336 942 l 336 754 l 544 754 l 544 668 l 336 668 l 336 67 l 493 54 l 493 0 l 76 0 l 76 54 l 214 68 l 214 668 l 63 668 l 63 718 l 214 754 l 214 815 q 257 986 214 911 q 364 1103 300 1061 q 489 1144 428 1144 m 813 1113 q 873 1090 853 1113 q 893 1033 893 1068 q 865 966 893 992 q 797 940 836 940 q 741 962 765 940 q 717 1018 717 983 q 747 1085 717 1057 q 813 1113 776 1113 m 882 757 l 882 68 l 992 54 l 992 0 l 651 0 l 651 54 l 765 68 l 765 636 l 671 681 l 671 721 l 853 771 l 882 757 z "},"ﬂ":{"ha":1043,"x_min":63,"x_max":1006,"o":"m 214 68 l 214 668 l 63 668 l 63 718 l 214 754 l 214 815 q 257 986 214 911 q 364 1103 300 1061 q 489 1144 428 1144 q 588 1132 565 1144 l 588 1025 q 542 1040 575 1033 q 465 1047 508 1047 q 396 1034 424 1047 q 352 981 368 1021 q 336 867 336 942 l 336 754 l 544 754 l 544 668 l 336 668 l 336 67 l 493 54 l 493 0 l 76 0 l 76 54 l 214 68 m 763 68 l 763 997 l 654 1018 l 654 1075 l 858 1101 l 885 1086 l 885 68 l 1006 54 l 1006 0 l 649 0 l 649 54 l 763 68 z "},"ª":{"ha":657,"x_min":57,"x_max":601,"o":"m 318 1081 q 440 1065 392 1081 q 515 1006 488 1050 q 543 878 543 963 l 542 564 l 601 564 l 601 517 q 549 501 582 508 q 493 494 515 494 q 447 510 457 494 q 435 569 436 526 q 225 499 353 499 q 151 517 190 499 q 84 572 111 535 q 57 661 57 608 q 160 813 57 772 q 432 853 263 853 l 432 872 q 414 957 432 929 q 365 994 396 985 q 282 1003 333 1003 q 182 991 229 1003 q 110 960 135 979 l 86 1015 q 185 1061 117 1042 q 318 1081 253 1081 m 432 794 q 244 769 314 794 q 175 681 175 744 q 202 603 175 632 q 272 574 229 574 q 362 588 317 574 q 432 624 407 601 l 432 794 z "},"º":{"ha":679,"x_min":64,"x_max":617,"o":"m 349 1081 q 544 1003 472 1081 q 617 790 617 925 q 574 626 617 692 q 466 530 531 561 q 333 499 401 499 q 196 532 257 499 q 99 630 135 565 q 64 783 64 694 q 106 949 64 882 q 214 1049 149 1017 q 349 1081 279 1081 m 343 1015 q 228 960 268 1015 q 188 797 188 906 q 228 628 188 692 q 332 564 269 564 q 453 610 414 564 q 493 776 493 657 q 453 950 493 885 q 343 1015 414 1015 z "},"Ω":{"ha":1324,"x_min":96,"x_max":1214,"o":"m 160 246 l 182 114 l 418 114 q 299 221 356 154 q 206 375 242 288 q 172 557 171 463 q 243 831 175 719 q 419 998 311 943 q 654 1053 528 1053 q 889 999 786 1053 q 1049 841 992 944 q 1107 593 1107 738 q 1072 417 1107 508 q 980 245 1036 325 q 864 114 924 165 l 1104 114 l 1151 264 l 1214 260 l 1183 0 l 732 0 l 732 103 q 904 294 839 168 q 969 581 969 421 q 926 811 969 717 q 808 952 882 906 q 644 999 735 999 q 469 949 544 999 q 351 799 393 899 q 308 558 308 700 q 346 363 308 454 q 442 206 383 272 q 561 104 500 139 l 561 0 l 96 0 l 96 242 l 160 246 z "},"μ":{"ha":958,"x_min":108,"x_max":849,"o":"m 178 -258 l 178 669 l 108 689 l 108 736 l 275 772 l 297 760 l 297 294 q 328 124 297 175 q 449 72 360 72 q 565 100 507 72 q 646 153 622 128 l 646 664 l 561 683 l 561 736 l 747 772 l 767 761 l 767 56 l 849 56 l 849 7 q 792 -12 828 -4 q 726 -21 756 -21 q 658 35 658 -21 l 658 92 q 401 -14 536 -14 q 297 3 339 -14 l 297 -258 l 178 -258 z "},"π":{"ha":1079,"x_min":100,"x_max":974,"o":"m 974 832 q 908 690 967 743 q 760 636 849 638 l 736 178 q 771 101 736 101 q 832 124 801 101 q 876 181 863 147 l 946 181 q 906 94 936 140 q 832 17 876 49 q 738 -15 788 -15 q 669 24 688 -15 q 651 131 651 64 q 653 183 651 165 q 682 636 668 442 l 417 636 q 401 288 413 517 q 376 126 393 176 q 313 33 358 76 q 219 -17 278 1 l 129 71 q 172 85 140 72 q 226 114 203 97 q 299 198 279 150 q 324 322 319 246 l 339 636 l 294 636 q 217 617 253 636 q 169 567 182 599 l 104 575 q 117 640 100 610 q 199 728 147 697 q 318 758 251 758 l 771 757 q 854 775 821 757 q 908 832 888 793 l 974 832 z "},"ऄ":{"ha":1124,"x_min":6,"x_max":1122,"o":"m 1119 807 l 967 807 l 967 -43 l 946 -43 l 858 7 l 858 358 l 856 358 q 760 333 808 333 q 596 394 678 333 l 592 392 q 636 244 636 325 q 576 95 636 153 q 419 38 517 38 q 178 134 275 38 q 6 365 81 231 l 51 394 q 198 214 111 292 q 374 136 285 136 q 492 181 446 136 q 539 289 539 225 q 518 376 539 333 q 461 449 497 418 q 293 415 388 425 l 250 494 l 263 524 q 444 567 386 533 q 501 619 481 589 q 522 696 522 650 q 477 783 521 744 q 381 821 433 821 q 182 731 288 821 l 126 836 q 235 892 165 864 q 340 919 304 919 q 459 878 397 919 q 563 774 521 838 q 604 644 604 710 q 583 555 604 599 q 519 476 561 511 q 611 441 560 456 q 708 426 663 426 q 789 440 753 426 q 858 478 825 453 l 858 804 l 667 804 l 629 875 l 629 894 l 872 894 q 883 939 883 914 q 848 1047 883 1003 q 731 1090 813 1090 q 618 1082 704 1090 q 478 1072 508 1072 q 332 1097 400 1072 q 224 1160 264 1122 q 183 1232 183 1197 q 213 1358 183 1289 l 276 1349 q 254 1256 254 1289 q 287 1197 254 1217 q 375 1176 319 1176 q 539 1186 419 1176 q 632 1192 574 1188 q 710 1196 690 1196 q 810 1172 764 1196 q 889 1110 856 1149 q 935 1035 918 1074 q 953 964 953 997 q 944 896 953 938 l 1083 896 l 1122 824 l 1119 807 z "},"ॲ":{"ha":1124,"x_min":8,"x_max":1217,"o":"m 8 0 m 1124 808 l 969 808 l 969 -42 l 949 -42 l 861 8 l 861 360 l 858 360 q 763 335 811 335 q 599 396 681 335 l 594 393 q 639 246 639 326 q 579 97 639 154 q 422 39 519 39 q 181 135 278 39 q 8 367 83 232 l 54 396 q 201 215 114 293 q 376 138 288 138 q 495 182 449 138 q 542 290 542 226 q 521 377 542 335 q 464 450 500 419 q 296 417 390 426 l 253 496 l 265 525 q 447 568 389 535 q 504 621 483 590 q 525 697 525 651 q 480 784 524 746 q 383 822 436 822 q 185 732 290 822 l 129 838 q 238 893 168 865 q 343 921 307 921 q 462 880 400 921 q 565 775 524 839 q 607 646 607 711 q 585 556 607 600 q 522 478 564 513 q 614 442 563 457 q 711 428 665 428 q 792 441 756 428 q 861 479 828 454 l 861 806 l 665 806 l 628 876 l 628 896 l 1085 896 l 1124 824 l 1124 808 m 1217 1181 q 1097 1074 1163 1113 q 939 1036 1032 1036 q 759 1099 838 1036 q 629 1246 681 1161 l 669 1267 q 890 1121 774 1122 q 1038 1161 974 1121 q 1139 1256 1101 1201 l 1217 1181 z "},"अ":{"ha":1124,"x_min":8,"x_max":1124,"o":"m 1124 808 l 969 808 l 969 -42 l 949 -42 l 861 8 l 861 360 l 858 360 q 763 335 811 335 q 599 396 681 335 l 594 393 q 639 246 639 326 q 579 97 639 154 q 422 39 519 39 q 181 135 278 39 q 8 367 83 232 l 54 396 q 201 215 114 293 q 376 138 288 138 q 495 182 449 138 q 542 290 542 226 q 521 377 542 335 q 464 450 500 419 q 296 417 390 426 l 253 496 l 265 525 q 447 568 389 535 q 504 621 483 590 q 525 697 525 651 q 480 784 524 746 q 383 822 436 822 q 185 732 290 822 l 129 838 q 238 893 168 865 q 343 921 307 921 q 462 880 400 921 q 565 775 524 839 q 607 646 607 711 q 585 556 607 600 q 522 478 564 513 q 614 442 563 457 q 711 428 665 428 q 792 441 756 428 q 861 479 828 454 l 861 806 l 665 806 l 628 876 l 628 896 l 1085 896 l 1124 824 l 1124 808 z "},"आ":{"ha":1540,"x_min":8,"x_max":1540,"o":"m 1540 808 l 1386 808 l 1386 -42 l 1365 -42 l 1276 8 l 1276 808 l 969 808 l 969 -42 l 949 -42 l 861 8 l 861 360 l 858 360 q 763 335 811 335 q 599 396 681 335 l 594 393 q 639 246 639 326 q 579 97 639 154 q 422 39 519 39 q 181 135 278 39 q 8 367 83 232 l 54 396 q 201 215 114 293 q 376 138 288 138 q 495 182 449 138 q 542 290 542 226 q 521 377 542 335 q 464 450 500 419 q 296 417 390 426 l 253 496 l 265 525 q 447 568 389 535 q 504 621 483 590 q 525 697 525 651 q 480 784 524 746 q 383 822 436 822 q 185 732 290 822 l 129 838 q 238 893 168 865 q 343 921 307 921 q 462 880 400 921 q 565 775 524 839 q 607 646 607 711 q 585 556 607 600 q 522 478 564 513 q 614 442 563 457 q 711 428 665 428 q 792 441 756 428 q 861 479 828 454 l 861 806 l 665 806 l 628 876 l 628 896 l 1501 896 l 1540 824 l 1540 808 z "},"इ":{"ha":699,"x_min":-43,"x_max":707,"o":"m 269 585 q 206 555 225 585 q 186 486 186 525 q 207 427 186 454 q 249 400 228 400 q 369 422 289 400 q 457 440 432 440 q 530 406 496 440 q 584 318 564 371 q 604 215 604 265 q 566 122 604 167 q 466 49 528 78 q 333 15 404 21 l 457 -175 l 376 -208 l 268 17 q 144 51 201 25 q 88 118 88 76 q 119 188 88 160 q 182 217 150 217 q 203 214 194 217 l 274 107 q 465 149 389 113 q 540 254 540 186 q 528 315 540 286 q 501 351 517 344 q 419 333 479 351 q 358 317 390 325 q 301 310 325 310 q 222 344 268 310 q 144 429 176 379 q 111 522 111 479 q 145 638 111 596 q 239 681 179 681 l 442 681 l 442 806 l -6 806 l -43 876 l -43 896 l 668 896 l 707 824 l 707 806 l 549 806 l 549 586 l 271 586 l 269 585 z "},"ई":{"ha":699,"x_min":-43,"x_max":718,"o":"m 667 894 l 706 822 l 706 804 l 547 804 l 547 585 l 269 585 q 206 555 225 585 q 186 486 186 525 q 207 427 186 454 q 249 400 228 400 q 369 422 289 400 q 457 440 432 440 q 530 406 496 440 q 584 318 564 371 q 604 215 604 265 q 566 122 604 167 q 466 49 528 78 q 333 15 404 21 l 457 -175 l 376 -208 l 268 17 q 144 51 201 25 q 88 118 88 76 q 119 188 88 160 q 182 217 150 217 q 203 214 194 217 l 274 107 q 465 149 389 113 q 540 254 540 186 q 528 315 540 286 q 501 351 517 344 q 419 333 479 351 q 358 317 390 325 q 301 310 325 310 q 222 344 268 310 q 144 429 176 379 q 111 522 111 479 q 145 638 111 596 q 239 681 179 681 l 442 681 l 442 806 l -6 806 l -43 876 l -43 896 l 436 896 l 436 899 q 324 1023 367 956 q 281 1158 281 1090 q 312 1259 281 1215 q 394 1327 343 1303 q 504 1351 446 1351 q 617 1325 561 1351 q 718 1254 674 1299 l 683 1200 q 608 1240 651 1222 q 524 1258 564 1258 q 431 1224 468 1258 q 393 1126 393 1189 q 432 1004 393 1067 q 524 896 471 942 l 667 894 z "},"उ":{"ha":815,"x_min":-43,"x_max":819,"o":"m 819 806 l 542 806 q 621 701 590 754 q 651 606 651 649 q 568 460 651 517 q 729 215 729 339 q 702 113 729 163 q 624 31 675 63 q 508 -1 574 -1 q 237 114 357 -1 q 38 365 117 229 l 83 399 q 185 260 121 331 q 325 144 250 190 q 467 97 400 97 q 554 119 517 97 q 613 175 592 140 q 633 249 633 210 q 503 428 633 338 q 407 411 457 411 q 296 428 346 411 l 256 514 l 265 535 q 374 524 343 524 q 512 558 461 524 q 563 649 563 592 q 528 731 563 689 q 446 806 493 772 l -6 806 l -43 876 l -43 896 l 778 896 l 817 824 l 819 806 z "},"ऊ":{"ha":1165,"x_min":-43,"x_max":1168,"o":"m 1168 806 l 542 806 q 621 701 590 754 q 651 606 651 649 q 568 460 651 517 q 636 401 607 431 q 776 501 711 463 q 901 539 842 539 q 990 508 946 539 q 1062 424 1033 478 q 1090 308 1090 371 q 1067 178 1090 256 q 1011 46 1043 101 l 897 106 q 985 228 949 168 q 1022 343 1022 288 q 994 419 1022 393 q 921 446 965 446 q 819 411 871 446 q 703 314 767 376 q 729 213 729 264 q 701 112 729 161 q 624 31 674 63 q 508 -1 574 -1 q 237 114 357 -1 q 38 365 117 229 l 83 399 q 185 260 121 331 q 325 144 250 190 q 467 97 400 97 q 554 119 517 97 q 613 175 592 140 q 633 249 633 210 q 503 428 633 338 q 407 411 457 411 q 296 428 346 411 l 256 514 l 265 535 q 374 524 343 524 q 512 558 461 524 q 563 649 563 592 q 528 731 563 689 q 446 806 493 772 l -6 806 l -43 876 l -43 896 l 1126 896 l 1165 824 l 1168 806 z "},"ऋ":{"ha":1188,"x_min":-43,"x_max":1189,"o":"m 1189 824 l 1189 806 l 657 806 l 657 463 q 842 507 771 456 l 796 613 q 828 632 804 622 q 872 642 851 642 q 947 616 917 642 q 976 549 976 590 q 940 468 976 504 l 1047 231 q 935 158 971 192 q 900 85 900 124 q 926 33 901 56 q 996 10 951 10 q 1062 19 1024 10 q 1128 46 1100 29 l 1189 -44 q 1123 -71 1160 -60 q 1057 -82 1086 -82 q 947 -53 1003 -82 q 856 23 892 -24 q 819 121 819 69 q 851 206 819 164 q 944 286 883 249 l 882 425 q 793 389 842 401 q 699 376 744 376 q 657 379 671 376 l 657 -44 l 636 -44 l 547 7 l 550 319 l 549 324 l 186 49 l 111 131 l 547 431 q 421 513 482 490 q 296 536 360 536 q 206 523 251 536 q 107 489 161 510 l 49 593 q 149 624 85 607 q 254 640 213 640 q 396 604 324 639 q 549 507 468 569 l 549 806 l -6 806 l -43 876 l -43 896 l 1150 896 l 1189 824 z "},"ॠ":{"ha":1188,"x_min":-43,"x_max":1281,"o":"m 1189 824 l 1189 806 l 657 806 l 657 463 q 842 508 769 456 l 796 613 q 828 632 804 622 q 872 642 851 642 q 944 616 915 642 q 974 549 974 590 q 940 469 974 503 l 1047 231 q 935 158 971 192 q 900 85 900 124 q 982 21 903 21 q 1050 31 1013 21 q 1114 57 1088 40 l 1176 -33 q 1110 -59 1147 -49 q 1042 -71 1072 -69 q 1006 -113 1018 -89 q 996 -162 994 -137 q 1019 -214 996 -190 q 1086 -237 1042 -237 q 1153 -227 1115 -237 q 1219 -199 1190 -217 l 1281 -290 q 1214 -316 1251 -306 q 1149 -326 1176 -326 q 1040 -299 1093 -326 q 953 -228 988 -272 q 919 -135 919 -183 q 942 -44 919 -81 q 853 24 886 -19 q 819 121 819 68 q 851 206 819 164 q 944 286 883 249 l 882 425 q 793 389 842 401 q 697 376 744 376 q 657 379 682 376 l 657 -44 l 636 -44 l 547 7 l 550 319 l 549 324 l 186 49 l 111 131 l 547 431 q 421 513 482 490 q 296 536 360 536 q 206 523 251 536 q 107 489 161 510 l 49 593 q 149 624 85 607 q 254 640 213 640 q 396 604 324 639 q 549 507 468 569 l 549 806 l -6 806 l -43 876 l -43 896 l 1150 896 l 1189 824 z "},"ऌ":{"ha":1026,"x_min":-43,"x_max":1046,"o":"m 1026 824 l 1026 806 l 761 806 l 761 590 q 890 510 833 567 q 944 383 946 453 q 909 267 944 319 q 807 144 874 215 q 733 60 756 90 q 711 0 711 31 q 735 -54 711 -33 q 800 -75 760 -75 q 886 -46 844 -75 q 971 32 928 -17 l 1046 -42 q 938 -117 989 -93 q 833 -142 888 -142 q 738 -117 792 -142 q 648 -49 685 -92 q 611 43 611 -7 q 635 108 611 76 q 707 189 658 140 q 809 308 774 256 q 844 426 844 360 q 826 484 844 460 q 781 520 807 508 q 735 532 754 532 q 592 438 646 532 q 514 226 539 343 l 407 278 q 472 444 429 372 q 392 504 438 481 q 308 528 346 528 q 206 485 246 528 q 167 371 167 442 q 208 180 167 265 q 313 6 249 94 l 265 -22 q 68 417 68 231 q 94 523 68 475 q 164 598 119 571 q 263 625 208 625 q 391 588 326 625 q 506 493 456 550 q 653 597 568 578 l 653 806 l -6 806 l -43 876 l -43 896 l 989 896 l 1026 824 z "},"ॡ":{"ha":1026,"x_min":-43,"x_max":1218,"o":"m 1026 824 l 1026 806 l 761 806 l 761 590 q 890 510 833 567 q 944 383 946 453 q 909 267 944 319 q 807 144 874 215 q 733 60 756 90 q 711 0 711 31 q 735 -54 711 -33 q 800 -75 760 -75 q 886 -46 844 -75 q 971 32 928 -17 l 1046 -42 q 925 -124 985 -97 q 883 -199 883 -162 q 908 -254 883 -233 q 974 -275 932 -275 q 1058 -246 1018 -275 q 1143 -167 1099 -217 l 1218 -242 q 1110 -318 1160 -293 q 1007 -343 1061 -343 q 914 -325 964 -343 q 828 -272 864 -307 q 793 -190 793 -237 q 807 -140 793 -167 q 718 -106 764 -132 q 642 -41 672 -81 q 611 43 611 -1 q 635 108 611 76 q 707 189 658 140 q 809 308 774 256 q 844 426 844 360 q 826 484 844 460 q 781 520 807 508 q 735 532 754 532 q 592 438 646 532 q 514 226 539 343 l 407 278 q 472 444 429 372 q 392 504 438 481 q 308 528 346 528 q 206 485 246 528 q 167 371 167 442 q 208 180 167 265 q 313 6 249 94 l 265 -22 q 68 417 68 231 q 94 523 68 475 q 164 598 119 571 q 263 625 208 625 q 390 588 326 625 q 506 494 454 551 q 653 597 571 579 l 653 806 l -6 806 l -43 876 l -43 896 l 989 896 l 1026 824 z "},"ऍ":{"ha":810,"x_min":-43,"x_max":894,"o":"m 0 0 m 735 -18 q 861 -116 828 -81 q 894 -187 894 -151 q 867 -253 894 -229 q 796 -276 839 -276 q 739 -258 763 -276 q 703 -214 715 -239 l 703 -211 l 778 -129 l 278 207 q 186 276 217 247 q 145 328 156 304 q 135 388 135 353 l 135 806 l -6 806 l -43 876 l -43 896 l 771 896 l 810 824 l 810 806 l 668 806 l 668 474 q 627 335 668 383 q 531 268 586 286 l 450 324 l 450 338 q 533 386 504 361 q 561 453 561 411 l 561 806 l 243 806 l 243 372 q 258 318 243 340 q 313 268 272 296 l 735 -18 m 692 1181 q 572 1074 638 1113 q 414 1036 507 1036 q 234 1099 313 1036 q 104 1246 156 1161 l 144 1267 q 365 1121 249 1122 q 513 1161 449 1121 q 614 1256 576 1201 l 692 1181 z "},"ऎ":{"ha":810,"x_min":-110,"x_max":894,"o":"m -15 1350 q -37 1257 -37 1290 q -5 1198 -37 1218 q 82 1178 28 1178 q 249 1188 128 1178 q 340 1193 282 1189 q 418 1197 399 1197 q 517 1174 471 1197 q 596 1111 564 1150 q 663 965 663 1032 q 658 923 663 946 q 651 896 653 900 l 771 896 l 810 824 l 810 806 l 669 806 l 669 474 q 628 335 669 383 q 532 268 588 288 l 451 324 l 451 338 q 533 387 506 363 q 561 453 561 411 l 561 806 l 243 806 l 243 372 q 258 318 243 340 q 313 268 272 296 l 735 -18 q 861 -116 828 -81 q 894 -187 894 -151 q 866 -253 894 -229 q 796 -276 838 -276 q 739 -258 763 -276 q 703 -214 715 -239 l 703 -211 l 776 -129 l 278 207 q 186 276 217 247 q 145 328 156 304 q 135 388 135 353 l 135 806 l -6 806 l -43 876 l -43 896 l 582 896 q 592 940 592 915 q 556 1048 592 1004 q 438 1092 521 1092 q 328 1083 411 1092 q 267 1078 314 1082 q 186 1074 219 1074 q 40 1099 108 1074 q -69 1161 -28 1124 q -110 1233 -110 1199 q -81 1360 -110 1281 l -15 1350 z "},"ए":{"ha":810,"x_min":-43,"x_max":894,"o":"m 735 -18 q 861 -116 828 -81 q 894 -187 894 -151 q 867 -253 894 -229 q 796 -276 839 -276 q 739 -258 763 -276 q 703 -214 715 -239 l 703 -211 l 778 -129 l 278 207 q 186 276 217 247 q 145 328 156 304 q 135 388 135 353 l 135 806 l -6 806 l -43 876 l -43 896 l 771 896 l 810 824 l 810 806 l 668 806 l 668 474 q 627 335 668 383 q 531 268 586 286 l 450 324 l 450 338 q 533 386 504 361 q 561 453 561 411 l 561 806 l 243 806 l 243 372 q 258 318 243 340 q 313 268 272 296 l 735 -18 z "},"ऐ":{"ha":810,"x_min":-43,"x_max":894,"o":"m 0 0 m 735 -18 q 861 -116 828 -81 q 894 -187 894 -151 q 867 -253 894 -229 q 796 -276 839 -276 q 739 -258 763 -276 q 703 -214 715 -239 l 703 -211 l 778 -129 l 278 207 q 186 276 217 247 q 145 328 156 304 q 135 388 135 353 l 135 806 l -6 806 l -43 876 l -43 896 l 771 896 l 810 824 l 810 806 l 668 806 l 668 474 q 627 335 668 383 q 531 268 586 286 l 450 324 l 450 338 q 533 386 504 361 q 561 453 561 411 l 561 806 l 243 806 l 243 372 q 258 318 243 340 q 313 268 272 296 l 735 -18 m 225 1410 q 390 1333 318 1410 q 538 1110 461 1257 q 646 892 611 971 l 571 892 q 533 974 554 932 q 497 1043 513 1017 q 399 1210 438 1150 q 340 1281 361 1269 l 178 1231 q 144 1272 158 1246 q 131 1326 131 1299 q 156 1388 131 1365 q 225 1410 182 1410 z "},"ऑ":{"ha":1540,"x_min":8,"x_max":1621,"o":"m 8 0 m 1540 808 l 1386 808 l 1386 -42 l 1365 -42 l 1276 8 l 1276 808 l 969 808 l 969 -42 l 949 -42 l 861 8 l 861 360 l 858 360 q 763 335 811 335 q 599 396 681 335 l 594 393 q 639 246 639 326 q 579 97 639 154 q 422 39 519 39 q 181 135 278 39 q 8 367 83 232 l 54 396 q 201 215 114 293 q 376 138 288 138 q 495 182 449 138 q 542 290 542 226 q 521 377 542 335 q 464 450 500 419 q 296 417 390 426 l 253 496 l 265 525 q 447 568 389 535 q 504 621 483 590 q 525 697 525 651 q 480 784 524 746 q 383 822 436 822 q 185 732 290 822 l 129 838 q 238 893 168 865 q 343 921 307 921 q 462 880 400 921 q 565 775 524 839 q 607 646 607 711 q 585 556 607 600 q 522 478 564 513 q 614 442 563 457 q 711 428 665 428 q 792 441 756 428 q 861 479 828 454 l 861 806 l 665 806 l 628 876 l 628 896 l 1501 896 l 1540 824 l 1540 808 m 1621 1181 q 1501 1074 1567 1113 q 1343 1036 1436 1036 q 1163 1099 1242 1036 q 1033 1246 1085 1161 l 1074 1267 q 1294 1121 1178 1122 q 1442 1161 1378 1121 q 1543 1256 1506 1201 l 1621 1181 z "},"ऒ":{"ha":1540,"x_min":8,"x_max":1540,"o":"m 696 1350 q 675 1257 675 1288 q 708 1198 675 1218 q 794 1178 740 1178 q 870 1181 814 1178 q 961 1188 926 1185 q 1128 1197 1083 1197 q 1229 1174 1182 1197 q 1308 1111 1276 1150 q 1374 965 1374 1031 q 1363 896 1374 935 l 1503 896 l 1540 824 l 1540 806 l 1386 806 l 1386 -44 l 1367 -44 l 1279 6 l 1279 806 l 969 806 l 969 -44 l 949 -44 l 861 6 l 861 357 l 858 357 q 764 332 811 332 q 599 393 683 332 l 593 389 q 639 243 639 319 q 579 94 639 151 q 422 36 519 36 q 181 133 278 36 q 8 364 83 229 l 54 393 q 201 213 114 290 q 376 135 288 135 q 495 179 449 135 q 542 288 542 224 q 520 374 542 331 q 463 447 499 418 q 294 415 392 425 l 251 494 l 264 524 q 446 567 388 533 q 503 619 482 589 q 524 696 524 650 q 478 783 522 744 q 382 821 435 821 q 183 731 289 821 l 128 836 q 236 892 167 864 q 342 919 306 919 q 460 878 399 919 q 564 774 522 838 q 606 644 606 710 q 582 550 606 596 q 519 476 558 504 q 613 441 561 456 q 711 426 664 426 q 792 440 756 426 q 861 478 828 453 l 861 806 l 667 806 l 629 876 l 629 896 l 1293 896 q 1303 940 1303 915 q 1268 1048 1303 1004 q 1150 1092 1233 1092 q 1039 1083 1125 1092 q 977 1078 1024 1082 q 899 1074 931 1074 q 751 1099 819 1074 q 643 1161 683 1124 q 603 1233 603 1199 q 632 1360 603 1281 l 696 1350 z "},"ओ":{"ha":1540,"x_min":8,"x_max":1540,"o":"m 8 0 m 1540 808 l 1386 808 l 1386 -42 l 1365 -42 l 1276 8 l 1276 808 l 969 808 l 969 -42 l 949 -42 l 861 8 l 861 360 l 858 360 q 763 335 811 335 q 599 396 681 335 l 594 393 q 639 246 639 326 q 579 97 639 154 q 422 39 519 39 q 181 135 278 39 q 8 367 83 232 l 54 396 q 201 215 114 293 q 376 138 288 138 q 495 182 449 138 q 542 290 542 226 q 521 377 542 335 q 464 450 500 419 q 296 417 390 426 l 253 496 l 265 525 q 447 568 389 535 q 504 621 483 590 q 525 697 525 651 q 480 784 524 746 q 383 822 436 822 q 185 732 290 822 l 129 838 q 238 893 168 865 q 343 921 307 921 q 462 880 400 921 q 565 775 524 839 q 607 646 607 711 q 585 556 607 600 q 522 478 564 513 q 614 442 563 457 q 711 428 665 428 q 792 441 756 428 q 861 479 828 454 l 861 806 l 665 806 l 628 876 l 628 896 l 1501 896 l 1540 824 l 1540 808 m 929 1410 q 1094 1333 1022 1410 q 1242 1110 1165 1257 q 1350 892 1315 971 l 1275 892 q 1238 974 1258 932 q 1201 1043 1217 1017 q 1103 1210 1142 1150 q 1044 1281 1065 1269 l 882 1231 q 849 1272 863 1246 q 835 1326 835 1299 q 860 1388 835 1365 q 929 1410 886 1410 z "},"औ":{"ha":1540,"x_min":8,"x_max":1540,"o":"m 8 0 m 1540 808 l 1386 808 l 1386 -42 l 1365 -42 l 1276 8 l 1276 808 l 969 808 l 969 -42 l 949 -42 l 861 8 l 861 360 l 858 360 q 763 335 811 335 q 599 396 681 335 l 594 393 q 639 246 639 326 q 579 97 639 154 q 422 39 519 39 q 181 135 278 39 q 8 367 83 232 l 54 396 q 201 215 114 293 q 376 138 288 138 q 495 182 449 138 q 542 290 542 226 q 521 377 542 335 q 464 450 500 419 q 296 417 390 426 l 253 496 l 265 525 q 447 568 389 535 q 504 621 483 590 q 525 697 525 651 q 480 784 524 746 q 383 822 436 822 q 185 732 290 822 l 129 838 q 238 893 168 865 q 343 921 307 921 q 462 880 400 921 q 565 775 524 839 q 607 646 607 711 q 585 556 607 600 q 522 478 564 513 q 614 442 563 457 q 711 428 665 428 q 792 441 756 428 q 861 479 828 454 l 861 806 l 665 806 l 628 876 l 628 896 l 1501 896 l 1540 824 l 1540 808 m 956 1450 q 1136 1363 1060 1450 q 1282 1122 1213 1275 q 1378 885 1350 964 l 1329 885 q 1256 1051 1274 1018 q 1158 1226 1206 1150 q 1086 1322 1110 1303 l 908 1272 l 906 1272 q 874 1313 888 1288 q 860 1365 860 1339 q 886 1428 860 1406 q 956 1450 913 1450 m 931 1204 q 1113 1115 1022 1204 q 1294 881 1203 1025 l 1247 879 q 1144 1007 1194 947 q 1075 1075 1093 1067 l 882 1049 l 881 1049 q 853 1084 864 1063 q 842 1126 842 1106 q 866 1183 842 1161 q 931 1204 890 1204 z "},"ॳ":{"ha":1124,"x_min":8,"x_max":1124,"o":"m 8 0 m 1124 808 l 969 808 l 969 -42 l 949 -42 l 861 8 l 861 360 l 858 360 q 763 335 811 335 q 599 396 681 335 l 594 393 q 639 246 639 326 q 579 97 639 154 q 422 39 519 39 q 181 135 278 39 q 8 367 83 232 l 54 396 q 201 215 114 293 q 376 138 288 138 q 495 182 449 138 q 542 290 542 226 q 521 377 542 335 q 464 450 500 419 q 296 417 390 426 l 253 496 l 265 525 q 447 568 389 535 q 504 621 483 590 q 525 697 525 651 q 480 784 524 746 q 383 822 436 822 q 185 732 290 822 l 129 838 q 238 893 168 865 q 343 921 307 921 q 462 880 400 921 q 565 775 524 839 q 607 646 607 711 q 585 556 607 600 q 522 478 564 513 q 614 442 563 457 q 711 428 665 428 q 792 441 756 428 q 861 479 828 454 l 861 806 l 665 806 l 628 876 l 628 896 l 1085 896 l 1124 824 l 1124 808 m 968 1261 l 968 875 l 860 875 l 860 1261 l 968 1261 z "},"ॴ":{"ha":1540,"x_min":8,"x_max":1540,"o":"m 8 0 m 1540 808 l 1386 808 l 1386 -42 l 1365 -42 l 1276 8 l 1276 808 l 969 808 l 969 -42 l 949 -42 l 861 8 l 861 360 l 858 360 q 763 335 811 335 q 599 396 681 335 l 594 393 q 639 246 639 326 q 579 97 639 154 q 422 39 519 39 q 181 135 278 39 q 8 367 83 232 l 54 396 q 201 215 114 293 q 376 138 288 138 q 495 182 449 138 q 542 290 542 226 q 521 377 542 335 q 464 450 500 419 q 296 417 390 426 l 253 496 l 265 525 q 447 568 389 535 q 504 621 483 590 q 525 697 525 651 q 480 784 524 746 q 383 822 436 822 q 185 732 290 822 l 129 838 q 238 893 168 865 q 343 921 307 921 q 462 880 400 921 q 565 775 524 839 q 607 646 607 711 q 585 556 607 600 q 522 478 564 513 q 614 442 563 457 q 711 428 665 428 q 792 441 756 428 q 861 479 828 454 l 861 806 l 665 806 l 628 876 l 628 896 l 1501 896 l 1540 824 l 1540 808 m 1386 1261 l 1386 875 l 1278 875 l 1278 1261 l 1386 1261 z "},"ॶ":{"ha":1124,"x_min":8,"x_max":1124,"o":"m 8 0 m 1124 808 l 969 808 l 969 -42 l 949 -42 l 861 8 l 861 360 l 858 360 q 763 335 811 335 q 599 396 681 335 l 594 393 q 639 246 639 326 q 579 97 639 154 q 422 39 519 39 q 181 135 278 39 q 8 367 83 232 l 54 396 q 201 215 114 293 q 376 138 288 138 q 495 182 449 138 q 542 290 542 226 q 521 377 542 335 q 464 450 500 419 q 296 417 390 426 l 253 496 l 265 525 q 447 568 389 535 q 504 621 483 590 q 525 697 525 651 q 480 784 524 746 q 383 822 436 822 q 185 732 290 822 l 129 838 q 238 893 168 865 q 343 921 307 921 q 462 880 400 921 q 565 775 524 839 q 607 646 607 711 q 585 556 607 600 q 522 478 564 513 q 614 442 563 457 q 711 428 665 428 q 792 441 756 428 q 861 479 828 454 l 861 806 l 665 806 l 628 876 l 628 896 l 1085 896 l 1124 824 l 1124 808 m 554 -208 q 804 -85 710 -208 l 854 -126 q 730 -249 811 -200 q 554 -297 649 -297 q 378 -249 460 -297 q 254 -126 297 -200 l 304 -85 q 554 -208 399 -208 z "},"ॷ":{"ha":1124,"x_min":8,"x_max":1124,"o":"m 8 0 m 1124 808 l 969 808 l 969 -42 l 949 -42 l 861 8 l 861 360 l 858 360 q 763 335 811 335 q 599 396 681 335 l 594 393 q 639 246 639 326 q 579 97 639 154 q 422 39 519 39 q 181 135 278 39 q 8 367 83 232 l 54 396 q 201 215 114 293 q 376 138 288 138 q 495 182 449 138 q 542 290 542 226 q 521 377 542 335 q 464 450 500 419 q 296 417 390 426 l 253 496 l 265 525 q 447 568 389 535 q 504 621 483 590 q 525 697 525 651 q 480 784 524 746 q 383 822 436 822 q 185 732 290 822 l 129 838 q 238 893 168 865 q 343 921 307 921 q 462 880 400 921 q 565 775 524 839 q 607 646 607 711 q 585 556 607 600 q 522 478 564 513 q 614 442 563 457 q 711 428 665 428 q 792 441 756 428 q 861 479 828 454 l 861 806 l 665 806 l 628 876 l 628 896 l 1085 896 l 1124 824 l 1124 808 m 554 -208 q 804 -85 710 -208 l 854 -126 q 730 -249 811 -200 q 554 -297 649 -297 q 378 -249 460 -297 q 254 -126 297 -200 l 304 -85 q 554 -208 399 -208 m 554 -439 q 804 -315 710 -439 l 854 -357 q 730 -479 811 -431 q 554 -528 649 -528 q 378 -479 460 -528 q 254 -357 297 -431 l 304 -315 q 554 -439 399 -439 z "},"ा":{"ha":418,"x_min":-43,"x_max":418,"o":"m 418 824 l 418 806 l 264 806 l 264 -44 l 243 -44 l 154 6 l 154 806 l -6 806 l -43 876 l -43 896 l 379 896 l 418 824 z "},"ि":{"ha":418,"x_min":-43,"x_max":997,"o":"m 383 1275 q 227 1229 288 1275 q 167 1097 167 1183 q 188 989 167 1046 q 233 894 210 932 l 379 894 l 418 822 l 418 804 l 264 804 l 264 -46 l 243 -46 l 154 4 l 154 804 l -6 804 l -43 875 l -43 894 l 161 894 q 54 1156 54 1046 q 90 1267 54 1218 q 190 1344 125 1317 q 338 1372 254 1372 q 643 1265 479 1372 q 997 990 807 1158 l 963 946 q 640 1188 779 1101 q 382 1275 501 1275 l 383 1275 z "},"ी":{"ha":417,"x_min":-387,"x_max":417,"o":"m 417 824 l 417 806 l 263 806 l 263 -44 l 242 -44 l 153 6 l 153 806 l -7 806 l -44 876 l -44 896 l 165 896 q 17 1193 92 1074 q -147 1313 -58 1313 q -237 1271 -204 1313 q -269 1176 -269 1229 q -246 1083 -269 1131 q -193 1004 -222 1035 l -193 1001 l -254 971 q -348 1082 -308 1017 q -387 1221 -387 1147 q -361 1314 -387 1271 q -287 1383 -335 1357 q -179 1410 -240 1410 q -1 1331 -79 1410 q 126 1151 76 1251 q 236 896 175 1050 l 379 896 l 417 824 z "},"ॉ":{"ha":418,"x_min":-89,"x_max":499,"o":"m 0 0 m 418 824 l 418 806 l 264 806 l 264 -44 l 243 -44 l 154 6 l 154 806 l -6 806 l -43 876 l -43 896 l 379 896 l 418 824 m 499 1181 q 379 1074 444 1113 q 221 1036 314 1036 q 41 1099 119 1036 q -89 1246 -37 1161 l -49 1267 q 172 1121 56 1122 q 319 1161 256 1121 q 421 1256 383 1201 l 499 1181 z "},"ॊ":{"ha":418,"x_min":-514,"x_max":418,"o":"m -421 1350 q -443 1257 -443 1290 q -410 1198 -443 1218 q -322 1178 -378 1178 q -158 1188 -278 1178 q -65 1193 -124 1189 q 13 1197 -7 1197 q 113 1174 67 1197 q 193 1111 160 1150 q 240 1037 222 1075 q 257 965 257 999 q 246 896 257 935 l 379 896 l 418 824 l 418 806 l 264 806 l 264 -44 l 243 -44 l 154 6 l 156 806 l -6 806 l -43 876 l -43 896 l 176 896 q 188 940 188 918 q 151 1048 188 1004 q 33 1092 115 1092 q -79 1083 7 1092 q -219 1074 -189 1074 q -365 1099 -297 1074 q -474 1161 -433 1124 q -514 1233 -514 1199 q -501 1315 -514 1275 q -486 1360 -487 1354 l -421 1350 z "},"ो":{"ha":418,"x_min":-269,"x_max":418,"o":"m 418 822 l 418 804 l 264 804 l 264 -46 l 243 -46 l 154 4 l 154 804 l -6 804 l -43 875 l -43 894 l 171 894 q 97 1042 117 1010 q -60 1279 -21 1257 l -222 1229 q -256 1271 -242 1244 q -269 1325 -269 1297 q -244 1386 -269 1364 q -174 1408 -218 1408 q -10 1332 -81 1408 q 138 1108 61 1256 q 243 896 199 994 l 379 896 l 418 822 z "},"ौ":{"ha":417,"x_min":-279,"x_max":417,"o":"m 417 824 l 417 806 l 263 806 l 263 -44 l 242 -44 l 153 6 l 153 806 l -7 806 l -44 876 l -44 896 l 113 896 q 15 1015 61 963 q -46 1075 -31 1067 l -239 1049 l -242 1049 q -269 1084 -258 1063 q -279 1126 -279 1106 q -255 1183 -279 1161 q -192 1204 -231 1204 q -13 1119 -101 1204 q 164 896 75 1035 l 204 896 q 136 1051 165 993 q 39 1227 86 1151 q -32 1322 -8 1303 l -210 1272 l -212 1272 q -245 1313 -232 1286 q -258 1365 -258 1339 q -233 1428 -258 1406 q -162 1450 -207 1450 q 15 1364 -58 1450 q 163 1121 89 1278 q 210 1012 183 1076 q 254 896 236 947 l 379 896 l 417 824 z "},"ऻ":{"ha":418,"x_min":-43,"x_max":418,"o":"m 418 824 l 418 806 l 264 806 l 264 -44 l 243 -44 l 154 6 l 154 806 l -6 806 l -43 876 l -43 896 l 154 896 l 154 1261 l 263 1261 l 263 896 l 379 896 l 418 824 z "},"क":{"ha":1168,"x_min":-43,"x_max":1168,"o":"m 668 804 l 668 493 q 871 594 781 594 q 1038 522 978 594 q 1097 329 1097 450 q 1067 186 1097 271 q 1001 49 1036 101 l 917 136 q 992 244 956 181 q 1029 365 1029 308 q 992 463 1029 424 q 903 503 956 503 q 790 468 847 503 q 668 371 732 433 l 668 -46 l 647 -46 l 557 6 l 563 272 l 560 274 q 441 190 493 218 q 318 163 389 163 q 197 191 251 163 q 109 275 142 219 q 76 407 76 331 q 103 519 76 467 q 180 603 131 571 q 293 635 229 635 q 557 471 446 635 l 557 806 l -6 806 l -43 876 l -43 896 l 1129 896 l 1168 824 l 1168 806 l 668 804 m 278 256 q 428 294 356 256 q 560 392 500 332 l 560 393 q 460 487 522 447 q 333 526 397 526 q 244 508 288 526 q 172 456 200 490 q 143 374 143 421 q 184 289 143 321 q 278 257 225 257 l 278 256 z "},"ख":{"ha":1163,"x_min":-43,"x_max":1172,"o":"m 1172 824 l 1172 806 l 1011 806 l 1011 -44 l 990 -44 l 901 7 l 904 101 q 753 33 840 63 q 592 4 667 4 q 185 261 419 4 q 106 360 128 324 q 83 433 83 397 q 104 488 83 461 q 149 526 125 514 l 222 468 q 249 536 239 494 q 260 621 260 578 q 256 713 260 660 q 243 806 251 765 l -6 806 l -43 876 l -43 896 l 1133 896 l 1172 824 m 592 92 q 755 126 667 92 q 906 215 843 161 l 906 349 l 904 349 q 856 310 899 343 q 770 258 814 276 q 688 239 726 239 q 571 268 624 239 q 487 348 518 297 q 456 458 456 399 q 485 574 456 524 q 564 652 514 625 q 675 679 614 679 q 899 564 793 679 l 903 564 l 903 806 l 338 806 q 355 682 349 750 q 361 565 361 614 q 327 417 361 476 q 233 304 293 358 q 393 160 299 228 q 592 92 488 92 m 901 479 q 815 555 868 528 q 710 582 763 582 q 615 560 658 582 q 546 503 571 539 q 521 425 521 467 q 556 358 521 386 q 649 331 592 331 q 782 374 711 331 q 901 479 853 417 z "},"ग":{"ha":849,"x_min":-43,"x_max":849,"o":"m 849 824 l 849 806 l 694 806 l 694 -44 l 674 -44 l 585 6 l 585 806 l 296 806 q 313 404 313 589 q 291 306 313 350 q 208 263 269 263 q 126 289 160 263 q 77 353 93 315 q 61 422 61 390 q 68 472 61 449 l 203 454 l 213 806 l -6 806 l -43 876 l -43 896 l 810 896 l 849 824 z "},"घ":{"ha":904,"x_min":-43,"x_max":929,"o":"m 929 821 l 929 803 l 775 803 l 775 -47 l 754 -47 l 665 4 l 668 258 l 664 261 q 408 143 514 143 q 242 194 308 143 q 169 271 199 228 q 139 358 139 314 q 169 469 139 417 q 249 553 199 521 q 162 599 194 578 q 109 651 129 619 q 89 728 89 682 q 104 806 89 760 l -6 806 l -43 876 l -43 896 l 890 896 l 929 821 m 350 233 q 515 288 424 233 q 665 421 607 343 l 665 803 l 231 803 q 189 701 189 764 q 215 644 189 671 q 276 603 240 618 q 340 589 313 589 l 367 590 q 485 574 446 590 l 507 518 l 497 490 q 406 500 460 500 q 310 472 350 500 q 251 403 271 444 q 231 321 231 361 q 268 255 231 276 q 351 233 306 233 l 350 233 z "},"ङ":{"ha":974,"x_min":-43,"x_max":974,"o":"m 974 824 l 974 806 l 629 806 l 629 554 l 325 554 q 221 447 221 554 q 243 389 221 417 q 289 361 265 361 q 352 369 319 361 q 426 390 385 376 q 503 411 474 404 q 561 418 532 418 q 635 383 599 418 q 696 294 672 347 q 719 193 719 242 q 665 38 719 99 q 511 -22 610 -22 q 282 38 396 -22 q 42 242 168 99 l 88 283 q 285 120 194 168 q 464 72 376 72 q 594 110 540 72 q 647 221 647 149 q 632 283 647 254 q 596 321 617 313 q 530 313 560 321 q 460 292 500 306 q 399 272 424 278 q 344 265 374 265 q 256 299 306 265 q 172 384 207 333 q 138 485 138 435 q 178 606 138 561 q 283 650 219 650 l 521 650 l 521 806 l -6 806 l -43 876 l -43 896 l 936 896 l 974 824 m 951 481 l 850 376 l 749 481 l 849 583 l 951 481 z "},"च":{"ha":913,"x_min":-43,"x_max":911,"o":"m 911 824 l 911 806 l 757 806 l 757 -44 l 738 -44 l 646 6 l 650 236 l 647 239 q 534 169 594 197 q 418 142 474 142 q 323 159 367 142 q 250 207 279 176 q 171 371 171 286 q 186 447 171 411 q 225 511 201 483 l 85 511 l 47 583 l 47 601 l 518 601 l 556 531 l 556 511 l 408 511 q 299 452 339 503 q 257 338 258 401 q 295 251 258 288 q 378 214 332 214 q 522 267 442 214 q 650 382 601 321 l 650 806 l -6 806 l -43 876 l -43 896 l 874 896 l 911 824 z "},"छ":{"ha":1093,"x_min":-43,"x_max":1093,"o":"m 794 806 l 794 651 q 910 568 864 625 q 956 422 956 511 q 910 250 956 335 q 1019 165 981 211 q 1060 49 1058 118 q 1031 -78 1060 -3 q 965 -211 1001 -154 l 878 -126 q 990 69 990 -11 q 959 134 989 106 q 872 192 929 163 q 690 38 801 97 q 464 -22 579 -22 q 329 16 400 -22 q 211 108 258 54 q 164 204 164 161 q 217 328 164 272 q 113 408 146 372 q 79 497 79 444 q 103 574 79 538 q 169 634 128 611 q 260 657 211 657 q 327 651 296 657 q 376 636 358 644 l 418 539 q 285 572 354 569 q 206 544 240 572 q 171 469 171 517 q 208 404 171 432 q 283 372 246 376 q 364 390 324 390 q 475 381 435 390 l 503 319 l 492 290 q 403 301 457 301 q 329 281 360 301 q 283 230 299 261 q 267 168 267 199 q 308 98 267 129 q 406 67 350 67 q 617 113 517 67 q 782 236 717 158 l 753 253 q 604 370 661 303 q 547 524 547 438 q 588 629 547 593 q 689 669 629 665 l 689 806 l -6 806 l -43 876 l -43 896 l 1054 896 l 1093 824 l 1093 806 l 794 806 m 864 463 q 824 558 864 524 q 729 593 783 592 q 663 568 689 592 q 638 496 638 544 q 681 390 638 439 q 794 308 725 342 l 819 296 q 865 461 865 375 l 864 463 z "},"ज":{"ha":1014,"x_min":-43,"x_max":1014,"o":"m 1013 803 l 857 803 l 857 -47 l 838 -47 l 749 3 l 749 513 l 454 513 q 557 397 518 458 q 596 282 596 335 q 549 157 596 207 q 435 107 503 107 q 252 182 331 107 q 126 350 174 257 q 29 569 79 443 l 83 593 q 230 326 150 442 q 408 210 310 210 q 475 240 450 210 q 500 311 500 269 q 433 445 500 376 q 289 558 367 514 l 308 604 l 313 604 l 311 606 l 750 606 l 750 806 l -6 806 l -43 876 l -43 896 l 976 896 l 1014 824 l 1013 803 z "},"झ":{"ha":1074,"x_min":-43,"x_max":1072,"o":"m 1072 822 l 1072 804 l 918 804 l 918 -46 l 899 -46 l 810 3 l 810 308 l 807 308 q 728 293 761 293 q 654 303 688 293 q 579 332 621 313 l 576 332 q 603 215 603 272 q 565 122 603 165 q 466 49 528 78 q 333 15 404 21 l 457 -175 l 376 -208 l 268 17 q 144 51 201 25 q 88 118 88 76 q 119 188 88 160 q 182 217 150 217 q 203 214 194 217 l 274 107 q 465 149 389 113 q 540 254 540 186 q 528 315 540 286 q 501 351 517 344 q 419 333 479 351 q 358 317 390 325 q 301 310 325 310 q 222 344 268 310 q 144 429 176 379 q 111 522 111 479 q 145 638 111 596 q 239 681 179 681 l 442 681 l 442 806 l -6 806 l -43 876 l -43 896 l 1036 896 l 1072 822 m 676 390 q 751 401 717 390 q 811 428 786 411 l 811 804 l 547 804 l 547 585 l 269 585 q 206 555 225 585 q 186 486 186 525 q 207 427 186 454 q 249 400 228 400 q 369 422 289 400 q 457 440 432 440 q 522 413 490 440 q 675 390 606 390 l 676 390 z "},"ञ":{"ha":1031,"x_min":-43,"x_max":1032,"o":"m 1032 806 l 878 806 l 878 -44 l 857 -44 l 769 6 l 769 353 l 767 354 q 718 338 743 338 q 672 349 697 338 q 639 363 647 360 l 636 363 q 569 231 628 285 q 426 176 510 176 q 224 251 324 176 q 15 458 124 325 l 58 496 q 238 332 160 386 q 390 278 317 278 q 506 320 461 279 q 551 417 551 361 q 522 492 551 457 q 451 528 493 528 q 385 511 422 528 q 314 469 349 494 l 242 558 q 321 603 282 586 q 388 621 360 621 q 481 596 429 621 q 575 528 533 571 q 631 433 617 485 l 653 432 q 769 465 722 432 l 769 806 l -6 806 l -43 876 l -43 896 l 993 896 l 1032 824 l 1032 806 z "},"ट":{"ha":747,"x_min":-43,"x_max":757,"o":"m 757 824 l 757 806 l 542 806 l 542 519 q 273 453 382 508 q 164 294 164 397 q 194 203 164 239 q 267 152 224 168 q 354 136 311 136 q 661 229 504 136 l 713 129 q 393 42 557 42 q 240 82 308 42 q 132 190 171 122 q 93 335 93 257 q 433 621 93 576 l 433 806 l -6 806 l -43 876 l -43 896 l 719 896 l 757 824 z "},"ठ":{"ha":821,"x_min":-43,"x_max":824,"o":"m 824 804 l 543 804 q 585 692 585 738 q 550 576 585 643 q 724 303 724 456 q 684 157 724 224 q 569 51 644 90 q 393 13 494 13 q 233 57 304 13 q 122 176 163 101 q 82 333 82 250 q 188 542 82 474 q 456 622 293 610 q 475 713 475 667 q 439 806 475 750 l -6 806 l -43 876 l -43 896 l 783 896 l 822 824 l 824 804 m 635 349 q 597 452 635 404 q 519 517 560 500 q 262 451 369 506 q 154 294 154 396 q 185 190 154 232 q 263 126 217 147 q 356 106 310 106 q 512 140 449 106 q 605 228 575 174 q 635 349 635 283 z "},"ड":{"ha":813,"x_min":-43,"x_max":813,"o":"m 813 824 l 813 806 l 656 806 l 656 554 l 325 554 q 221 447 221 554 q 243 389 221 417 q 289 361 265 361 q 440 390 344 361 q 524 411 492 404 q 588 418 556 418 q 662 383 625 418 q 722 294 699 347 q 746 193 746 242 q 686 38 746 99 q 519 -22 626 -22 q 285 39 400 -22 q 43 242 169 100 l 88 283 q 288 120 193 168 q 472 72 382 72 q 613 110 551 72 q 674 221 674 149 q 658 283 674 254 q 625 321 643 313 q 552 313 585 321 q 472 292 519 306 q 406 272 435 279 q 344 265 378 265 q 257 299 307 265 q 172 384 207 333 q 138 485 138 435 q 179 606 138 561 q 285 650 221 650 l 547 650 l 547 806 l -6 806 l -43 876 l -43 896 l 775 896 l 813 824 z "},"ढ":{"ha":775,"x_min":-43,"x_max":775,"o":"m 371 539 q 202 490 264 539 q 140 350 140 440 q 176 227 140 282 q 265 138 213 172 q 368 89 317 103 q 321 229 321 161 q 372 359 321 317 q 493 401 424 401 q 594 373 547 401 q 667 296 640 344 q 694 186 694 247 q 658 78 694 124 q 565 10 621 33 q 457 -14 510 -14 q 283 34 374 -14 q 132 173 193 82 q 71 386 71 264 q 145 577 71 515 q 343 639 219 639 l 481 639 l 481 806 l -6 806 l -43 876 l -43 896 l 736 896 l 775 824 l 775 806 l 588 806 l 588 539 l 371 539 m 531 321 q 469 304 501 321 q 415 255 436 288 q 393 178 393 222 q 421 81 393 131 q 571 121 508 83 q 633 214 633 158 q 601 291 633 261 q 532 321 569 321 l 531 321 z "},"ण":{"ha":1076,"x_min":-43,"x_max":1076,"o":"m 1076 806 l 919 806 l 919 -44 l 900 -44 l 811 6 l 811 806 l 585 806 l 585 435 q 555 329 585 376 q 474 255 525 282 q 367 228 424 228 q 285 250 324 228 q 199 317 246 272 q 142 385 161 351 q 124 456 124 418 l 124 806 l -6 806 l -43 876 l -43 896 l 1038 896 l 1076 824 l 1076 806 m 478 806 l 232 806 l 232 435 q 265 344 232 365 q 357 324 297 324 q 447 367 417 324 q 478 461 478 410 l 478 806 z "},"त":{"ha":839,"x_min":-43,"x_max":840,"o":"m 840 806 l 685 806 l 685 -44 l 665 -44 l 578 6 l 578 511 l 358 511 q 226 474 268 511 q 183 357 183 436 q 238 194 185 282 q 383 15 292 106 l 347 -24 q 160 185 235 79 q 85 403 86 292 q 139 552 85 499 q 324 606 193 606 l 578 606 l 578 806 l -6 806 l -43 876 l -43 896 l 801 896 l 840 824 l 840 806 z "},"थ":{"ha":933,"x_min":67,"x_max":935,"o":"m 935 821 l 935 803 l 781 803 l 781 -47 l 761 -47 l 669 4 l 674 236 l 669 239 q 453 158 557 158 q 268 222 342 158 q 144 414 194 285 q 296 486 238 436 q 132 604 197 531 q 67 764 67 678 q 110 873 67 835 q 221 911 154 911 q 343 883 283 911 q 442 801 403 856 q 481 668 481 746 q 415 486 481 571 q 250 353 350 401 q 306 285 265 311 q 406 258 347 258 q 551 294 478 258 q 671 378 625 329 l 671 806 l 543 806 l 506 876 l 506 896 l 896 896 l 935 821 m 163 733 q 219 619 163 675 q 346 538 275 564 q 392 696 392 603 q 354 788 392 747 q 256 828 317 828 q 188 804 214 828 q 163 733 163 781 z "},"द":{"ha":783,"x_min":-43,"x_max":785,"o":"m 785 824 l 785 806 l 579 806 l 579 549 l 385 549 q 209 497 265 549 q 153 357 153 446 q 199 238 153 283 q 303 172 244 192 q 406 151 363 151 q 496 158 451 151 l 433 307 q 549 358 482 358 q 642 322 608 358 q 675 231 675 285 q 652 156 675 192 q 586 96 629 121 l 714 -131 l 636 -171 l 533 72 q 406 54 479 54 q 260 94 335 54 q 136 211 186 135 q 86 389 86 288 q 153 585 88 522 q 358 647 219 647 l 471 647 l 471 806 l -6 806 l -43 876 l -43 896 l 746 896 l 785 824 z "},"ध":{"ha":928,"x_min":67,"x_max":928,"o":"m 928 806 l 774 806 l 774 -44 l 751 -44 l 663 7 l 665 264 l 663 265 q 538 189 597 217 q 424 161 479 161 q 326 176 369 161 q 242 226 282 192 q 180 302 206 261 q 154 378 154 343 q 175 463 154 419 q 232 536 196 506 q 113 650 158 583 q 67 792 67 717 q 110 897 67 860 q 219 935 154 935 q 286 922 250 935 q 346 892 322 910 q 401 842 381 868 q 422 781 422 817 q 405 743 421 760 q 354 726 389 726 q 319 733 331 726 l 319 831 q 254 854 299 854 q 185 831 211 854 q 158 761 158 808 q 200 655 158 706 q 297 576 242 604 q 374 592 332 592 q 489 575 454 592 l 513 521 l 501 492 q 413 503 461 503 q 326 478 364 503 q 268 416 289 454 q 247 338 247 378 q 285 273 247 294 q 368 251 322 251 q 525 301 440 251 q 665 417 610 351 l 665 806 l 517 806 l 479 876 l 479 896 l 888 896 l 928 824 l 928 806 z "},"न":{"ha":811,"x_min":-43,"x_max":813,"o":"m 813 824 l 813 806 l 658 806 l 658 -44 l 638 -44 l 550 6 l 550 436 l 244 428 l 264 289 q 213 282 247 282 q 144 298 182 282 q 80 347 107 314 q 53 429 53 381 q 194 532 53 532 q 550 519 338 532 l 550 806 l -6 806 l -43 876 l -43 896 l 774 896 l 813 824 z "},"ऩ":{"ha":811,"x_min":-43,"x_max":813,"o":"m 813 824 l 813 806 l 658 806 l 658 -44 l 638 -44 l 550 6 l 550 436 l 244 428 l 264 289 q 213 282 247 282 q 144 298 182 282 q 80 347 107 314 q 53 429 53 381 q 194 532 53 532 q 550 519 338 532 l 550 806 l -6 806 l -43 876 l -43 896 l 774 896 l 813 824 m 322 185 l 425 82 l 324 -21 l 221 82 l 322 185 z "},"प":{"ha":806,"x_min":-43,"x_max":806,"o":"m 806 824 l 806 806 l 651 806 l 651 -44 l 631 -44 l 543 6 l 543 304 l 540 304 q 458 262 500 278 q 365 246 417 246 q 281 269 322 246 q 194 335 239 292 q 141 403 158 369 q 124 481 124 438 l 124 806 l -6 806 l -43 876 l -43 896 l 768 896 l 806 824 m 349 346 q 454 369 403 346 q 544 425 506 392 l 544 806 l 232 806 l 232 464 q 347 346 232 346 l 349 346 z "},"फ":{"ha":1144,"x_min":-43,"x_max":1144,"o":"m 642 807 l 642 518 q 844 622 756 622 q 1011 549 951 622 q 1071 356 1071 476 q 1040 214 1071 299 q 975 76 1010 129 l 889 163 q 965 271 928 206 q 1001 392 1001 336 q 965 490 1001 450 q 876 529 928 529 q 763 492 817 529 q 643 390 710 456 l 643 -44 l 624 -44 l 532 7 l 536 299 l 532 299 q 452 260 492 274 q 365 246 413 246 q 281 269 322 246 q 194 335 239 292 q 141 403 158 369 q 124 481 124 438 l 124 806 l -6 806 l -43 876 l -43 896 l 1106 896 l 1144 824 l 1144 806 l 642 807 m 346 347 q 533 421 438 347 l 533 807 l 231 807 l 231 465 q 346 347 231 347 z "},"ब":{"ha":908,"x_min":-43,"x_max":910,"o":"m 910 822 l 910 804 l 754 804 l 754 -46 l 735 -46 l 646 4 l 649 267 l 644 269 q 506 172 569 207 q 374 138 442 138 q 240 167 304 138 q 134 253 175 196 q 93 388 93 310 q 131 535 93 472 q 229 630 169 597 q 349 663 289 663 q 514 613 438 663 q 644 492 590 563 l 646 492 l 646 806 l -6 806 l -43 876 l -43 896 l 871 896 l 910 822 m 493 276 q 580 336 539 301 q 649 406 621 371 q 536 510 606 465 q 404 556 467 556 q 318 543 358 556 l 492 276 l 493 276 m 329 226 q 447 254 381 226 l 271 522 q 191 450 221 494 q 161 356 161 406 q 208 263 161 300 q 329 226 256 226 z "},"भ":{"ha":1004,"x_min":67,"x_max":1004,"o":"m 1004 824 l 1004 806 l 850 806 l 850 -44 l 829 -44 l 742 6 l 742 318 l 433 318 q 409 232 429 267 q 343 197 389 197 q 278 223 308 197 q 228 290 247 249 q 208 385 208 336 q 210 408 208 400 l 325 408 l 325 518 q 136 622 206 563 q 67 769 67 681 q 109 874 67 836 q 215 911 151 911 q 367 862 300 911 q 433 697 433 813 l 433 408 l 742 408 l 742 806 l 524 806 l 486 876 l 486 896 l 965 896 l 1004 824 m 161 739 q 332 586 161 642 q 340 721 340 672 q 314 801 340 769 q 249 833 288 833 q 186 809 211 833 q 161 739 161 785 z "},"म":{"ha":868,"x_min":-43,"x_max":869,"o":"m 869 824 l 869 806 l 715 806 l 715 -44 l 694 -44 l 607 6 l 607 342 l 272 342 q 248 257 268 292 q 183 222 228 222 q 119 246 149 222 q 72 308 90 269 q 47 413 47 358 l 49 433 l 164 433 l 164 806 l -6 806 l -43 876 l -43 896 l 829 896 l 869 824 m 607 433 l 607 806 l 274 806 l 274 433 l 607 433 z "},"य":{"ha":865,"x_min":-43,"x_max":865,"o":"m 865 806 l 711 806 l 711 -44 l 690 -44 l 601 7 l 606 236 l 600 239 q 388 161 490 161 q 198 239 278 161 q 74 454 118 317 q 215 528 156 479 q 275 638 275 576 q 248 716 275 678 q 168 806 221 754 l -6 806 l -43 876 l -43 896 l 828 896 l 865 824 l 865 806 m 339 258 q 484 294 411 258 q 603 376 557 329 l 603 806 l 261 806 l 261 803 q 347 700 313 749 q 381 604 381 651 q 316 477 381 535 q 182 390 251 419 q 231 297 185 336 q 339 258 276 258 z "},"र":{"ha":568,"x_min":-43,"x_max":569,"o":"m 568 808 l 344 808 q 362 681 356 750 q 368 567 368 613 q 333 419 368 481 q 239 306 297 357 l 529 -1 l 465 -49 l 175 283 q 109 369 128 338 q 90 435 90 400 q 112 489 90 463 q 157 528 133 515 l 231 469 q 257 538 246 496 q 268 622 268 581 q 264 714 268 661 q 251 806 260 767 l -6 806 l -43 876 l -43 896 l 531 896 l 569 824 l 568 808 z "},"ऱ":{"ha":571,"x_min":-43,"x_max":572,"o":"m 571 808 l 344 808 q 362 681 356 750 q 368 567 368 613 q 333 419 368 481 q 239 306 297 357 l 529 -1 l 465 -49 l 175 283 q 109 369 128 338 q 90 435 90 400 q 112 489 90 463 q 157 528 133 515 l 231 469 q 257 538 246 496 q 268 622 268 581 q 264 714 268 661 q 251 806 260 767 l -6 806 l -43 876 l -43 896 l 535 896 l 572 824 l 571 808 m 165 133 l 268 31 l 167 -72 l 64 31 l 165 133 z "},"ल":{"ha":1018,"x_min":-43,"x_max":1022,"o":"m 1022 806 l 867 806 l 867 -44 l 847 -44 l 758 6 l 758 482 q 689 519 721 519 q 574 433 622 519 q 503 239 526 346 l 407 294 q 461 447 425 379 q 388 506 429 483 q 308 528 347 528 q 207 483 247 528 q 167 368 167 439 q 388 -24 167 175 l 347 -67 q 148 156 226 40 q 69 419 69 272 q 95 524 69 476 q 165 598 121 571 q 264 625 210 625 q 386 590 328 625 q 492 499 444 556 q 653 599 561 597 q 756 544 707 599 l 756 806 l -6 806 l -43 876 l -43 896 l 981 896 l 1019 824 l 1022 806 z "},"ळ":{"ha":1104,"x_min":-43,"x_max":1104,"o":"m 874 808 l 874 636 q 988 534 944 604 q 1032 368 1032 464 q 1002 236 1032 293 q 924 149 972 179 q 819 118 875 118 q 681 162 747 118 q 568 261 614 206 q 474 135 526 176 q 342 93 421 93 q 210 131 271 93 q 112 231 149 168 q 75 368 75 294 q 108 514 75 451 q 192 610 140 576 q 301 643 244 643 q 433 604 374 643 q 557 503 492 565 q 646 617 597 579 q 764 656 694 654 l 764 806 l -6 806 l -43 876 l -43 896 l 1067 896 l 1104 824 l 1104 806 l 874 808 m 958 422 q 919 526 958 482 q 819 569 881 569 q 722 538 761 569 q 658 458 683 506 q 593 317 632 410 q 676 244 628 272 q 778 215 724 215 q 864 245 822 215 q 932 323 906 275 q 958 422 958 371 m 293 186 q 396 219 354 186 q 464 301 438 251 q 531 447 490 350 q 449 519 494 492 q 356 546 404 546 q 247 515 292 546 q 178 433 201 483 q 154 325 154 383 q 191 225 154 265 q 294 185 228 185 l 293 186 z "},"ऴ":{"ha":1104,"x_min":-43,"x_max":1104,"o":"m 874 808 l 874 636 q 988 534 944 604 q 1032 368 1032 464 q 1002 236 1032 293 q 924 149 972 179 q 819 118 875 118 q 681 162 747 118 q 568 261 614 206 q 474 135 526 176 q 342 93 421 93 q 210 131 271 93 q 112 231 149 168 q 75 368 75 294 q 108 514 75 451 q 192 610 140 576 q 301 643 244 643 q 433 604 374 643 q 557 503 492 565 q 646 617 597 579 q 764 656 694 654 l 764 806 l -6 806 l -43 876 l -43 896 l 1067 896 l 1104 824 l 1104 806 l 874 808 m 958 422 q 919 526 958 482 q 819 569 881 569 q 722 538 761 569 q 658 458 683 506 q 593 317 632 410 q 676 244 628 272 q 778 215 724 215 q 864 245 822 215 q 932 323 906 275 q 958 422 958 371 m 293 186 q 396 219 354 186 q 464 301 438 251 q 531 447 490 350 q 449 519 494 492 q 356 546 404 546 q 247 515 292 546 q 178 433 201 483 q 154 325 154 383 q 191 225 154 265 q 294 185 228 185 l 293 186 m 574 86 l 676 -15 l 575 -118 l 472 -15 l 574 86 z "},"व":{"ha":903,"x_min":-43,"x_max":903,"o":"m 903 824 l 903 806 l 747 806 l 747 -44 l 728 -44 l 639 7 l 642 260 l 639 261 q 369 138 486 138 q 235 167 299 138 q 131 253 171 196 q 92 388 92 310 q 129 535 92 472 q 224 630 167 597 q 342 663 282 663 q 506 611 428 663 q 639 490 583 560 l 640 490 l 640 806 l -6 806 l -43 876 l -43 896 l 864 896 l 903 824 m 321 226 q 490 278 400 226 q 640 401 579 331 l 640 406 q 527 512 596 467 q 399 557 458 557 q 275 527 331 557 q 189 451 219 497 q 158 357 158 406 q 205 265 158 301 q 322 228 251 228 l 321 226 z "},"श":{"ha":1013,"x_min":-43,"x_max":1013,"o":"m 858 806 l 858 -44 l 838 -44 l 750 6 l 750 806 l 497 806 q 549 727 531 772 q 567 631 567 682 q 529 473 567 553 q 430 332 492 393 q 300 247 368 271 l 468 -7 l 382 -61 l 240 233 q 224 232 235 232 q 151 247 190 232 q 86 285 113 261 q 60 333 60 308 q 91 405 60 376 q 156 433 122 433 q 176 431 168 433 l 247 325 q 401 447 340 364 q 223 566 296 489 q 150 735 150 643 q 167 806 150 775 l -6 806 l -43 876 l -43 896 l 974 896 l 1013 824 l 1013 806 l 858 806 m 476 661 q 438 760 476 717 q 339 804 400 804 q 272 778 299 804 q 246 706 246 753 q 305 588 246 644 q 438 507 364 532 q 476 661 476 585 z "},"ष":{"ha":832,"x_min":-43,"x_max":832,"o":"m 832 824 l 832 806 l 678 806 l 678 -44 l 657 -44 l 569 6 l 569 265 l 567 265 q 472 215 517 235 q 378 196 426 196 q 194 293 297 196 q 140 362 157 331 q 124 436 124 393 l 124 806 l -6 806 l -43 876 l -43 896 l 793 896 l 832 824 m 232 806 l 232 804 l 569 446 l 569 806 l 232 806 m 358 296 q 462 321 407 296 q 563 383 517 346 l 232 735 l 232 419 q 269 325 232 354 q 358 296 306 296 z "},"स":{"ha":944,"x_min":-43,"x_max":943,"o":"m 943 824 l 943 806 l 789 806 l 789 -44 l 767 -44 l 681 6 l 681 324 l 676 324 q 538 294 610 294 q 317 388 433 294 l 314 388 q 239 304 283 344 l 519 -3 l 456 -50 l 175 282 q 108 370 125 343 q 90 433 90 397 q 112 488 90 461 q 157 526 133 514 l 231 468 q 257 537 246 494 q 268 621 268 579 q 264 714 268 660 q 251 806 260 768 l -6 806 l -43 876 l -43 896 l 906 896 l 943 824 m 508 393 q 681 442 610 393 l 681 806 l 344 806 q 361 683 354 750 q 368 565 368 615 q 346 446 368 501 q 508 393 428 393 z "},"ह":{"ha":783,"x_min":-43,"x_max":783,"o":"m 253 568 q 190 548 210 568 q 171 497 171 528 q 188 440 171 471 q 233 379 204 408 q 407 433 306 433 q 542 397 476 433 q 648 308 607 361 q 689 210 689 256 q 647 100 689 153 q 547 13 606 47 l 463 89 l 463 92 q 559 169 524 129 q 594 256 594 208 q 575 306 594 281 q 521 347 556 331 q 442 363 486 363 q 352 338 396 361 q 280 272 308 314 q 251 179 251 231 q 286 64 251 117 q 388 -39 321 11 q 569 -154 454 -89 l 540 -197 q 253 -8 361 -104 q 144 213 144 89 q 188 336 144 281 q 119 437 147 382 q 90 538 90 492 q 124 635 90 606 q 222 665 157 665 l 499 665 l 499 806 l -6 806 l -43 876 l -43 896 l 744 896 l 783 824 l 783 806 l 607 806 l 607 571 l 253 571 l 253 568 z "},"क़":{"ha":1168,"x_min":-43,"x_max":1168,"o":"m 0 0 m 668 804 l 668 493 q 871 594 781 594 q 1038 522 978 594 q 1097 329 1097 450 q 1067 186 1097 271 q 1001 49 1036 101 l 917 136 q 992 244 956 181 q 1029 365 1029 308 q 992 463 1029 424 q 903 503 956 503 q 790 468 847 503 q 668 371 732 433 l 668 -46 l 647 -46 l 557 6 l 563 272 l 560 274 q 441 190 493 218 q 318 163 389 163 q 197 191 251 163 q 109 275 142 219 q 76 407 76 331 q 103 519 76 467 q 180 603 131 571 q 293 635 229 635 q 557 471 446 635 l 557 806 l -6 806 l -43 876 l -43 896 l 1129 896 l 1168 824 l 1168 806 l 668 804 m 278 256 q 428 294 356 256 q 560 392 500 332 l 560 393 q 460 487 522 447 q 333 526 397 526 q 244 508 288 526 q 172 456 200 490 q 143 374 143 421 q 184 289 143 321 q 278 257 225 257 l 278 256 m 414 0 l 313 -104 l 210 -1 l 311 101 l 414 0 z "},"ख़":{"ha":1163,"x_min":-43,"x_max":1172,"o":"m 0 0 m 1172 824 l 1172 806 l 1011 806 l 1011 -44 l 990 -44 l 901 7 l 904 101 q 753 33 840 63 q 592 4 667 4 q 185 261 419 4 q 106 360 128 324 q 83 433 83 397 q 104 488 83 461 q 149 526 125 514 l 222 468 q 249 536 239 494 q 260 621 260 578 q 256 713 260 660 q 243 806 251 765 l -6 806 l -43 876 l -43 896 l 1133 896 l 1172 824 m 592 92 q 755 126 667 92 q 906 215 843 161 l 906 349 l 904 349 q 856 310 899 343 q 770 258 814 276 q 688 239 726 239 q 571 268 624 239 q 487 348 518 297 q 456 458 456 399 q 485 574 456 524 q 564 652 514 625 q 675 679 614 679 q 899 564 793 679 l 903 564 l 903 806 l 338 806 q 355 682 349 750 q 361 565 361 614 q 327 417 361 476 q 233 304 293 358 q 393 160 299 228 q 592 92 488 92 m 901 479 q 815 555 868 528 q 710 582 763 582 q 615 560 658 582 q 546 503 571 539 q 521 425 521 467 q 556 358 521 386 q 649 331 592 331 q 782 374 711 331 q 901 479 853 417 m 279 1 l 178 -103 l 75 0 l 176 103 l 279 1 z "},"ग़":{"ha":849,"x_min":-43,"x_max":849,"o":"m 0 0 m 849 824 l 849 806 l 694 806 l 694 -44 l 674 -44 l 585 6 l 585 806 l 296 806 q 313 404 313 589 q 291 306 313 350 q 208 263 269 263 q 126 289 160 263 q 77 353 93 315 q 61 422 61 390 q 68 472 61 449 l 203 454 l 213 806 l -6 806 l -43 876 l -43 896 l 810 896 l 849 824 m 318 78 l 217 -26 l 114 76 l 215 179 l 318 78 z "},"ज़":{"ha":1014,"x_min":-43,"x_max":1014,"o":"m 0 0 m 1013 803 l 857 803 l 857 -47 l 838 -47 l 749 3 l 749 513 l 454 513 q 557 397 518 458 q 596 282 596 335 q 549 157 596 207 q 435 107 503 107 q 252 182 331 107 q 126 350 174 257 q 29 569 79 443 l 83 593 q 230 326 150 442 q 408 210 310 210 q 475 240 450 210 q 500 311 500 269 q 433 445 500 376 q 289 558 367 514 l 308 604 l 313 604 l 311 606 l 750 606 l 750 806 l -6 806 l -43 876 l -43 896 l 976 896 l 1014 824 l 1013 803 m 243 11 l 142 -93 l 39 10 l 140 113 l 243 11 z "},"ड़":{"ha":813,"x_min":-43,"x_max":813,"o":"m 0 0 m 813 824 l 813 806 l 656 806 l 656 554 l 325 554 q 221 447 221 554 q 243 389 221 417 q 289 361 265 361 q 440 390 344 361 q 524 411 492 404 q 588 418 556 418 q 662 383 625 418 q 722 294 699 347 q 746 193 746 242 q 686 38 746 99 q 519 -22 626 -22 q 285 39 400 -22 q 43 242 169 100 l 88 283 q 288 120 193 168 q 472 72 382 72 q 613 110 551 72 q 674 221 674 149 q 658 283 674 254 q 625 321 643 313 q 552 313 585 321 q 472 292 519 306 q 406 272 435 279 q 344 265 378 265 q 257 299 307 265 q 172 384 207 333 q 138 485 138 435 q 179 606 138 561 q 285 650 221 650 l 547 650 l 547 806 l -6 806 l -43 876 l -43 896 l 775 896 l 813 824 m 607 -200 l 506 -304 l 403 -201 l 504 -99 l 607 -200 z "},"ढ़":{"ha":775,"x_min":-43,"x_max":775,"o":"m 0 0 m 371 539 q 202 490 264 539 q 140 350 140 440 q 176 227 140 282 q 265 138 213 172 q 368 89 317 103 q 321 229 321 161 q 372 359 321 317 q 493 401 424 401 q 594 373 547 401 q 667 296 640 344 q 694 186 694 247 q 658 78 694 124 q 565 10 621 33 q 457 -14 510 -14 q 283 34 374 -14 q 132 173 193 82 q 71 386 71 264 q 145 577 71 515 q 343 639 219 639 l 481 639 l 481 806 l -6 806 l -43 876 l -43 896 l 736 896 l 775 824 l 775 806 l 588 806 l 588 539 l 371 539 m 531 321 q 469 304 501 321 q 415 255 436 288 q 393 178 393 222 q 421 81 393 131 q 571 121 508 83 q 633 214 633 158 q 601 291 633 261 q 532 321 569 321 l 531 321 m 553 -187 l 451 -292 l 349 -189 l 450 -86 l 553 -187 z "},"फ़":{"ha":1144,"x_min":-43,"x_max":1144,"o":"m 0 0 m 642 807 l 642 518 q 844 622 756 622 q 1011 549 951 622 q 1071 356 1071 476 q 1040 214 1071 299 q 975 76 1010 129 l 889 163 q 965 271 928 206 q 1001 392 1001 336 q 965 490 1001 450 q 876 529 928 529 q 763 492 817 529 q 643 390 710 456 l 643 -44 l 624 -44 l 532 7 l 536 299 l 532 299 q 452 260 492 274 q 365 246 413 246 q 281 269 322 246 q 194 335 239 292 q 141 403 158 369 q 124 481 124 438 l 124 806 l -6 806 l -43 876 l -43 896 l 1106 896 l 1144 824 l 1144 806 l 642 807 m 346 347 q 533 421 438 347 l 533 807 l 231 807 l 231 465 q 346 347 231 347 m 274 108 l 172 4 l 69 107 l 171 210 l 274 108 z "},"य़":{"ha":865,"x_min":-43,"x_max":865,"o":"m 0 0 m 865 806 l 711 806 l 711 -44 l 690 -44 l 601 7 l 606 236 l 600 239 q 388 161 490 161 q 198 239 278 161 q 74 454 118 317 q 215 528 156 479 q 275 638 275 576 q 248 716 275 678 q 168 806 221 754 l -6 806 l -43 876 l -43 896 l 828 896 l 865 824 l 865 806 m 339 258 q 484 294 411 258 q 603 376 557 329 l 603 806 l 261 806 l 261 803 q 347 700 313 749 q 381 604 381 651 q 316 477 381 535 q 182 390 251 419 q 231 297 185 336 q 339 258 276 258 m 204 86 l 103 -18 l 0 85 l 101 188 l 204 86 z "},"ॹ":{"ha":1014,"x_min":-43,"x_max":1014,"o":"m 1013 803 l 857 803 l 857 -47 l 838 -47 l 749 3 l 749 513 l 454 513 q 557 397 518 458 q 596 282 596 335 q 549 157 596 207 q 435 107 503 107 q 252 182 331 107 q 126 350 174 257 q 29 569 79 443 l 83 593 q 230 326 150 442 q 408 210 310 210 q 475 240 450 210 q 500 311 500 269 q 433 445 500 376 q 289 558 367 514 l 308 604 l 313 604 l 311 606 l 750 606 l 750 806 l -6 806 l -43 876 l -43 896 l 976 896 l 1014 824 l 1013 803 m 369 -46 l 268 -150 l 167 -47 l 268 54 l 369 -46 m 557 54 l 658 -46 l 557 -150 l 456 -47 l 557 54 m 414 -94 l 515 -194 l 414 -299 l 313 -196 l 414 -94 z "},"ॺ":{"ha":865,"x_min":-43,"x_max":865,"o":"m 865 824 l 865 806 l 711 806 l 711 -44 l 690 -44 l 601 7 l 606 236 l 600 239 q 388 161 490 161 q 198 239 278 161 q 74 454 118 317 q 215 528 156 479 q 275 638 275 576 q 248 716 275 678 q 168 806 221 754 l -6 806 l -43 876 l -43 896 l 828 896 l 865 824 m 263 803 q 317 742 300 763 l 603 411 l 603 806 l 261 806 l 263 803 m 340 258 q 472 287 406 258 q 585 357 538 315 l 381 593 q 312 472 375 526 q 183 390 249 418 q 232 297 186 336 q 340 258 278 258 z "},"ॻ":{"ha":849,"x_min":-43,"x_max":849,"o":"m 849 824 l 849 806 l 694 806 l 694 -54 l 76 -54 l 44 6 l 44 24 l 585 24 l 585 806 l 297 806 q 318 406 318 561 q 295 307 318 351 q 210 263 272 263 q 127 289 161 263 q 77 353 93 315 q 61 422 61 390 q 68 472 61 449 l 203 454 l 203 806 l -6 806 l -43 876 l -43 896 l 810 896 l 849 824 z "},"ॼ":{"ha":1014,"x_min":-43,"x_max":1014,"o":"m 1014 824 l 1014 806 l 858 806 l 858 -57 l 76 -57 l 44 3 l 44 22 l 751 22 l 751 515 l 457 515 q 559 399 519 460 q 599 283 599 339 q 552 158 599 208 q 438 108 506 108 q 255 183 333 108 q 129 351 176 258 q 32 571 82 444 l 85 594 q 233 325 154 439 q 411 211 311 211 q 478 241 453 211 q 503 313 503 271 q 436 447 503 378 q 292 560 369 515 l 311 606 l 751 606 l 751 806 l -6 806 l -43 876 l -43 896 l 976 896 l 1014 824 z "},"ॾ":{"ha":813,"x_min":-43,"x_max":813,"o":"m 813 824 l 813 806 l 656 806 l 656 554 l 325 554 q 221 447 221 554 q 243 389 221 417 q 289 361 265 361 q 440 390 344 361 q 524 411 492 404 q 588 418 556 418 q 662 383 625 418 q 722 294 699 347 q 746 193 746 242 q 686 38 746 99 q 519 -22 626 -22 q 285 39 400 -22 q 43 242 169 100 l 88 283 q 288 120 193 168 q 472 72 382 72 q 613 110 551 72 q 674 221 674 149 q 658 283 674 254 q 625 321 643 313 q 552 313 585 321 q 472 292 519 306 q 406 272 435 279 q 344 265 378 265 q 257 299 307 265 q 172 384 207 333 q 138 485 138 435 q 179 606 138 561 q 285 650 221 650 l 547 650 l 547 806 l -6 806 l -43 876 l -43 896 l 775 896 l 813 824 m 768 -203 l 768 -224 l 76 -224 l 44 -164 l 44 -146 l 736 -146 l 768 -203 z "},"ॿ":{"ha":908,"x_min":-43,"x_max":908,"o":"m 908 824 l 908 806 l 753 806 l 753 -54 l 76 -54 l 44 6 l 44 24 l 644 24 l 647 268 l 643 271 q 503 172 567 207 q 372 138 440 138 q 238 167 303 138 q 133 253 174 196 q 92 388 92 310 q 130 535 92 472 q 227 630 168 597 q 346 663 286 663 q 519 608 442 663 q 643 492 597 554 l 646 492 l 646 806 l -6 806 l -43 876 l -43 896 l 871 896 l 908 824 m 403 557 q 315 543 360 557 l 490 278 q 577 335 536 301 q 646 404 618 369 l 646 407 q 538 509 610 461 q 403 557 467 557 m 267 524 q 186 450 215 496 q 157 357 157 404 q 205 265 157 301 q 325 228 253 228 q 444 256 378 228 l 267 524 z "},"⁄":{"ha":603,"x_min":-6,"x_max":592,"o":"m 592 1253 l 78 -232 l -6 -212 l 510 1275 l 592 1253 z "},"½":{"ha":1782,"x_min":154,"x_max":1644,"o":"m 1138 1253 l 624 -232 l 540 -212 l 1056 1275 l 1138 1253 m 356 560 l 356 1019 q 167 974 269 996 l 154 1038 q 319 1103 217 1057 q 444 1169 421 1149 l 479 1158 l 478 558 l 657 542 l 657 488 l 168 488 l 168 542 l 356 560 m 990 72 q 1174 178 1074 114 q 1349 318 1274 243 q 1425 456 1425 393 q 1381 557 1425 524 q 1271 590 1338 590 q 1143 558 1210 590 q 1035 475 1076 526 l 989 529 q 1060 601 1013 565 q 1169 660 1107 638 q 1299 683 1232 683 q 1455 653 1396 683 q 1538 581 1514 624 q 1563 496 1563 539 q 1509 343 1563 414 q 1365 210 1456 272 q 1136 75 1275 149 l 1501 99 l 1579 201 l 1644 175 l 1604 -1 l 1018 -1 l 990 72 z "},"¼":{"ha":1782,"x_min":154,"x_max":1651,"o":"m 1140 1249 l 626 -232 l 543 -206 l 1058 1275 l 1140 1249 m 356 560 l 356 1019 q 167 974 269 996 l 154 1038 q 319 1103 217 1057 q 444 1169 421 1149 l 479 1158 l 478 558 l 657 542 l 657 488 l 168 488 l 168 542 l 356 560 m 1382 756 l 1451 692 l 1103 250 l 1060 192 l 1350 213 l 1353 392 l 1463 404 l 1463 221 l 1649 233 l 1651 126 l 1463 126 l 1463 -121 l 1349 -121 l 1350 126 l 985 126 l 951 186 l 1339 754 l 1382 756 z "},"¾":{"ha":1796,"x_min":129,"x_max":1651,"o":"m 1142 1253 l 628 -232 l 544 -212 l 1060 1275 l 1142 1253 m 154 531 q 247 504 194 514 q 344 494 300 494 q 496 538 443 496 q 549 646 549 581 q 508 733 549 703 q 400 765 468 764 q 357 758 389 764 l 263 739 l 263 815 q 433 881 371 835 q 494 994 494 926 q 458 1061 494 1040 q 365 1082 421 1082 q 256 1063 317 1082 q 161 1018 194 1043 l 129 1075 q 256 1138 176 1111 q 407 1164 336 1164 q 520 1141 472 1164 q 594 1081 568 1118 q 619 999 619 1043 q 463 818 619 874 q 586 794 539 822 q 653 723 633 765 q 672 640 672 681 q 634 526 672 576 q 525 446 596 475 q 358 417 454 417 q 257 428 314 417 q 154 460 200 439 l 154 531 m 1382 756 l 1451 692 l 1103 250 l 1058 192 l 1350 213 l 1353 392 l 1463 404 l 1463 221 l 1649 233 l 1651 126 l 1463 126 l 1463 -121 l 1349 -121 l 1350 126 l 985 126 l 951 186 l 1339 754 l 1382 756 z "},"¹":{"ha":736,"x_min":132,"x_max":635,"o":"m 333 560 l 333 1019 q 144 974 247 996 l 132 1038 q 297 1103 194 1057 q 422 1169 399 1149 l 457 1158 l 456 558 l 635 542 l 635 488 l 146 488 l 146 542 l 333 560 z "},"²":{"ha":851,"x_min":97,"x_max":751,"o":"m 97 561 q 280 667 179 603 q 456 808 381 732 q 532 946 532 883 q 489 1047 532 1014 q 379 1079 446 1079 q 250 1047 317 1079 q 143 964 183 1015 l 97 1019 q 168 1091 121 1056 q 277 1149 215 1126 q 406 1172 339 1172 q 560 1143 501 1172 q 644 1072 619 1114 q 669 988 669 1031 q 616 834 669 906 q 472 700 563 763 q 243 564 382 638 l 610 589 l 688 690 l 751 664 l 713 489 l 125 489 l 97 561 z "},"³":{"ha":776,"x_min":128,"x_max":671,"o":"m 153 531 q 246 504 193 514 q 343 494 299 494 q 494 538 442 496 q 547 646 547 581 q 507 733 547 703 q 399 765 467 764 q 356 758 388 764 l 261 739 l 261 815 q 431 881 369 835 q 493 994 493 926 q 456 1061 493 1040 q 364 1082 419 1082 q 254 1063 315 1082 q 160 1018 193 1043 l 128 1075 q 255 1138 175 1111 q 406 1164 335 1164 q 519 1141 471 1164 q 592 1081 567 1118 q 618 999 618 1043 q 461 818 618 874 q 585 794 538 822 q 651 723 632 765 q 671 640 671 681 q 633 526 671 576 q 524 446 594 475 q 357 417 453 417 q 256 428 313 417 q 153 460 199 439 l 153 531 z "},"०":{"ha":876,"x_min":149,"x_max":729,"o":"m 149 383 q 194 532 149 460 q 310 650 240 604 q 449 696 381 696 q 587 657 522 696 q 690 549 651 618 q 729 393 729 479 q 682 237 729 311 q 564 117 635 163 q 428 72 493 72 q 285 114 349 72 q 185 226 221 156 q 149 383 149 297 m 253 435 q 288 290 253 351 q 372 197 322 229 q 463 165 421 165 q 540 188 503 165 q 600 248 578 210 q 622 333 622 286 q 592 467 622 404 q 514 566 563 529 q 414 603 465 603 q 335 581 372 603 q 275 521 297 560 q 253 435 253 482 z "},"१":{"ha":876,"x_min":201,"x_max":714,"o":"m 417 936 q 533 903 474 936 q 632 814 593 869 q 671 693 671 758 q 617 538 671 621 q 489 368 564 454 l 386 251 l 579 50 l 603 24 q 688 -78 663 -43 q 714 -146 714 -114 q 686 -212 714 -187 q 619 -236 658 -236 q 556 -213 583 -236 q 515 -158 529 -190 l 515 -156 l 596 -87 q 476 52 546 -18 q 289 233 407 122 l 250 269 l 250 271 q 301 326 275 299 q 354 383 326 354 q 433 471 354 383 q 312 549 357 517 q 234 628 267 582 q 201 729 201 674 q 231 835 201 788 q 309 909 260 882 q 417 936 358 936 m 449 860 q 352 813 392 860 q 313 701 313 765 q 363 604 313 656 q 476 526 414 553 q 540 635 517 582 q 564 731 564 689 q 531 822 564 783 q 449 860 497 860 z "},"२":{"ha":876,"x_min":132,"x_max":725,"o":"m 431 929 q 572 877 504 929 q 683 746 640 825 q 725 593 725 667 q 680 436 725 513 q 559 308 635 360 q 397 249 483 257 l 656 -144 l 554 -207 l 326 250 q 203 283 256 257 q 150 347 150 310 q 181 419 150 390 q 244 447 213 447 q 267 444 258 447 l 336 338 q 543 448 461 367 q 625 643 625 529 q 587 770 625 718 q 478 822 549 822 q 349 794 422 822 q 211 729 275 767 l 132 846 q 297 908 228 888 q 431 929 365 929 z "},"३":{"ha":876,"x_min":94,"x_max":794,"o":"m 794 314 q 742 185 794 251 q 603 76 689 119 q 424 32 517 32 l 486 -21 l 557 -175 l 464 -110 l 403 33 q 281 63 339 39 q 224 128 224 88 q 255 198 224 169 q 319 226 286 226 q 340 224 332 226 l 411 117 q 610 214 528 144 q 693 364 693 283 q 652 449 693 418 q 551 481 611 481 q 519 479 529 481 q 396 437 463 451 q 275 422 329 422 q 229 448 249 422 q 210 513 210 474 q 246 541 210 526 q 344 567 282 556 q 485 581 407 578 q 542 632 522 603 q 563 703 563 661 q 526 788 563 756 q 429 821 490 821 q 193 778 353 821 l 157 769 l 94 890 q 381 922 249 922 q 510 877 444 922 q 619 768 576 832 q 663 654 663 704 q 608 538 663 589 q 749 423 706 481 q 793 314 793 365 l 794 314 z "},"४":{"ha":876,"x_min":19,"x_max":842,"o":"m 508 517 q 670 342 619 411 q 721 219 721 274 q 681 120 721 163 q 581 56 642 78 q 457 33 519 33 q 340 60 399 33 q 242 138 281 88 q 203 251 203 188 q 243 377 203 314 q 385 543 283 440 q 263 643 326 596 q 110 754 200 690 l 19 819 l 79 892 l 167 817 q 431 589 360 653 l 550 706 q 792 944 689 842 l 842 826 l 708 704 q 508 518 578 586 l 508 517 m 413 114 q 498 138 457 114 q 564 199 539 161 q 589 282 589 238 q 478 451 589 340 l 460 469 q 333 319 367 372 q 300 214 300 265 q 333 142 300 171 q 414 113 367 113 l 413 114 z "},"५":{"ha":876,"x_min":161,"x_max":897,"o":"m 817 -212 l 610 222 q 528 176 572 193 q 444 158 485 158 q 315 189 382 158 q 205 274 249 219 q 161 400 161 329 q 203 635 161 492 q 304 908 246 779 l 410 825 q 256 364 256 508 q 290 277 256 317 q 371 238 325 238 q 459 263 407 238 q 561 329 511 289 l 500 454 q 582 481 536 481 q 673 453 635 481 q 711 381 711 425 q 654 265 711 326 l 897 -171 l 817 -212 z "},"६":{"ha":876,"x_min":61,"x_max":869,"o":"m 372 924 q 432 922 417 924 l 493 810 q 422 817 454 817 q 227 783 293 817 q 161 656 161 750 q 196 569 161 610 q 272 510 231 528 q 406 567 332 546 q 539 588 481 588 q 585 562 565 588 q 604 497 604 536 q 567 469 604 485 q 472 442 531 454 q 349 429 413 431 q 283 369 307 403 q 258 289 258 336 q 284 212 258 250 q 351 149 310 174 q 435 125 392 125 q 607 163 508 125 l 560 251 q 649 279 600 279 q 720 258 690 279 q 750 200 750 238 q 697 99 750 147 l 869 -158 l 796 -196 l 656 69 q 574 36 619 49 q 482 24 529 24 q 340 77 417 24 q 211 206 264 131 q 158 339 158 281 q 222 471 158 411 q 108 581 154 515 q 61 706 61 646 q 140 865 61 807 q 372 924 219 924 z "},"७":{"ha":876,"x_min":47,"x_max":835,"o":"m 108 922 q 202 457 138 636 q 348 200 267 278 q 514 122 429 122 q 697 205 639 122 q 760 422 754 288 q 697 388 726 399 q 632 376 667 376 q 532 397 581 376 q 447 451 483 417 q 374 553 397 499 q 350 683 350 608 q 378 781 350 735 q 451 855 407 826 q 542 883 496 883 q 650 860 606 883 q 732 782 694 836 q 808 615 782 719 q 835 410 835 511 q 791 198 835 286 q 678 65 747 110 q 536 19 610 19 q 305 124 407 19 q 137 428 203 229 q 47 903 71 626 l 108 922 m 600 789 q 489 739 533 789 q 444 624 444 689 q 480 514 444 556 q 590 472 515 472 q 673 492 628 472 q 753 546 718 511 q 695 721 738 653 q 600 789 653 789 z "},"८":{"ha":876,"x_min":103,"x_max":799,"o":"m 689 888 l 390 550 q 242 349 279 424 q 204 207 204 274 q 226 134 204 174 q 288 67 247 94 q 386 39 329 39 q 537 94 460 39 q 713 247 614 149 l 799 165 q 609 14 694 56 q 421 -28 524 -28 q 267 13 340 -28 q 148 117 193 53 q 103 251 103 182 q 133 380 103 310 q 247 544 164 450 l 653 1006 l 689 888 z "},"९":{"ha":876,"x_min":61,"x_max":842,"o":"m 304 960 q 423 922 360 960 q 529 821 486 883 q 572 692 572 758 q 536 582 572 632 q 441 499 500 532 q 317 456 382 465 q 706 86 508 282 q 842 -111 840 -43 q 814 -176 842 -153 q 746 -200 786 -200 q 683 -177 710 -200 q 642 -122 656 -154 l 642 -119 l 724 -51 q 525 165 663 33 q 207 458 388 297 q 91 591 121 536 q 61 725 61 646 q 92 840 61 786 q 177 927 122 894 q 304 960 232 960 m 356 861 q 251 834 296 861 q 181 765 206 807 q 157 681 157 724 q 217 533 157 603 q 342 574 285 542 q 432 648 399 606 q 465 729 465 690 q 435 823 465 785 q 356 861 404 861 z "},"*":{"ha":876,"x_min":104,"x_max":774,"o":"m 415 836 l 371 789 l 168 632 l 106 721 l 336 844 l 399 867 l 338 889 l 104 1010 l 167 1100 l 367 946 l 415 899 l 399 976 l 378 1211 l 493 1211 l 474 976 l 453 899 l 514 953 l 703 1099 l 774 1008 l 539 893 l 469 867 l 538 843 l 774 719 l 701 633 l 504 789 l 454 836 l 471 764 l 493 521 l 378 521 l 399 764 l 415 836 z "},"\\":{"ha":553,"x_min":21,"x_max":518,"o":"m 518 -246 l 403 -246 l 21 1085 l 135 1085 l 518 -246 z "},"·":{"ha":467,"x_min":151,"x_max":319,"o":"m 243 657 q 300 636 281 657 q 319 582 319 615 q 292 518 319 543 q 231 493 265 493 q 175 513 199 493 q 151 565 151 533 q 180 631 151 604 q 243 657 208 657 z "},"•":{"ha":572,"x_min":156,"x_max":418,"o":"m 281 358 q 192 397 229 358 q 156 489 156 435 q 197 590 156 547 q 293 632 238 632 q 381 596 344 632 q 418 506 418 560 q 377 402 418 446 q 281 358 336 358 z "},":":{"ha":481,"x_min":151,"x_max":319,"o":"m 246 701 q 301 678 282 700 q 319 626 319 657 q 292 561 319 586 q 228 536 264 536 q 174 556 196 536 q 151 608 151 576 q 181 675 151 649 q 246 701 210 701 m 243 153 q 301 132 282 153 q 319 78 319 111 q 292 13 319 38 q 228 -12 264 -12 q 174 8 196 -12 q 151 60 151 28 q 180 126 151 99 q 243 153 208 153 z "},",":{"ha":469,"x_min":113,"x_max":357,"o":"m 211 189 q 319 107 282 172 q 356 -26 356 42 q 293 -217 357 -135 q 142 -333 229 -299 l 113 -296 l 113 -279 q 201 -202 163 -262 q 240 -75 240 -142 q 210 22 240 -21 q 142 69 181 65 l 142 99 l 211 189 z "},"…":{"ha":1440,"x_min":146,"x_max":1282,"o":"m 242 156 q 302 133 282 156 q 322 76 322 111 q 293 10 322 36 q 226 -15 264 -15 q 170 6 194 -15 q 146 63 146 28 q 176 128 146 101 q 242 156 206 156 m 721 156 q 781 133 761 156 q 801 76 801 111 q 772 10 801 36 q 706 -15 743 -15 q 650 6 674 -15 q 626 63 626 28 q 656 128 626 101 q 721 156 685 156 m 1201 156 q 1262 133 1242 156 q 1282 76 1282 111 q 1253 10 1282 36 q 1186 -15 1224 -15 q 1130 6 1154 -15 q 1106 63 1106 28 q 1135 128 1106 101 q 1201 156 1165 156 z "},"!":{"ha":481,"x_min":151,"x_max":328,"o":"m 268 325 l 193 325 l 153 1207 l 314 1207 l 268 325 m 247 156 q 308 133 288 156 q 328 76 328 111 q 299 10 328 36 q 232 -15 269 -15 q 176 6 200 -15 q 151 63 151 28 q 181 128 151 101 q 247 156 211 156 z "},"¡":{"ha":485,"x_min":153,"x_max":328,"o":"m 251 972 q 308 951 289 972 q 328 897 328 931 q 299 832 328 857 q 232 807 271 807 q 180 830 201 810 q 158 883 158 850 q 188 947 158 921 q 251 972 217 972 m 314 -275 l 153 -275 l 199 631 l 274 631 l 314 -275 z "},"#":{"ha":972,"x_min":101,"x_max":869,"o":"m 101 247 l 101 329 l 256 329 l 281 614 l 117 614 l 117 694 l 285 694 l 303 919 l 408 919 l 390 694 l 617 694 l 636 919 l 740 919 l 722 694 l 869 694 l 869 614 l 718 614 l 693 329 l 846 329 l 847 247 l 690 247 l 668 0 l 567 0 l 585 247 l 358 247 l 336 0 l 232 0 l 253 247 l 101 247 m 611 614 l 385 614 l 361 329 l 588 329 l 611 614 z "},".":{"ha":481,"x_min":150,"x_max":319,"o":"m 243 153 q 300 131 281 153 q 319 78 319 110 q 292 13 319 38 q 226 -12 264 -12 q 173 8 196 -12 q 150 61 150 29 q 179 126 150 99 q 243 153 208 153 z "},"?":{"ha":686,"x_min":86,"x_max":629,"o":"m 215 1244 q 450 1186 357 1244 q 586 1040 543 1128 q 629 857 629 951 q 624 795 629 817 q 603 756 619 774 q 551 717 588 738 q 457 668 526 701 q 349 608 383 632 q 315 550 315 583 q 328 470 315 511 q 367 371 342 429 l 383 332 l 315 332 q 237 440 278 361 q 196 567 196 518 q 247 638 197 607 q 390 710 296 669 q 490 757 469 744 q 525 782 515 771 q 533 808 535 793 q 490 969 535 894 q 367 1089 444 1044 q 200 1133 289 1133 q 138 1129 171 1133 q 86 1117 104 1125 l 86 1214 q 135 1235 96 1226 q 215 1244 174 1244 m 379 153 q 436 131 417 153 q 456 78 456 110 q 428 13 456 38 q 363 -12 400 -12 q 309 8 332 -12 q 286 61 286 29 q 315 126 286 99 q 379 153 344 153 z "},"¿":{"ha":686,"x_min":60,"x_max":603,"o":"m 319 974 q 376 952 357 974 q 396 899 396 931 q 368 833 396 858 q 303 808 340 808 q 249 829 272 808 q 226 882 226 850 q 256 947 226 919 q 319 974 285 974 m 375 628 q 452 522 411 600 q 493 394 493 443 q 442 322 492 354 q 300 251 393 290 q 256 232 290 247 q 199 203 221 217 q 165 178 174 189 q 156 149 156 167 q 201 -11 156 63 q 324 -128 247 -85 q 490 -172 401 -172 q 603 -156 568 -172 l 603 -253 q 554 -274 593 -265 q 474 -283 515 -283 q 240 -226 332 -283 q 104 -79 147 -168 q 60 104 61 10 q 65 166 60 144 q 85 206 69 188 q 138 244 101 224 q 231 293 167 263 q 339 353 304 329 q 374 411 374 378 q 360 490 374 450 q 321 592 347 531 l 306 628 l 375 628 z "},"\"":{"ha":854,"x_min":206,"x_max":647,"o":"m 347 1208 l 317 656 l 236 656 l 206 1208 l 347 1208 m 647 1208 l 617 656 l 536 656 l 506 1208 l 647 1208 z "},"'":{"ha":554,"x_min":206,"x_max":347,"o":"m 347 1208 l 317 656 l 236 656 l 206 1208 l 347 1208 z "},";":{"ha":481,"x_min":129,"x_max":374,"o":"m 242 701 q 299 681 279 701 q 318 628 318 660 q 290 562 318 588 q 225 536 263 536 q 172 557 194 536 q 149 611 149 578 q 178 675 149 649 q 242 701 207 701 m 228 189 q 336 107 299 172 q 374 -26 374 42 q 310 -217 374 -135 q 158 -333 246 -299 l 129 -296 l 129 -279 q 218 -202 179 -262 q 257 -75 257 -142 q 227 22 257 -21 q 158 69 197 65 l 158 99 l 228 189 z "},"/":{"ha":553,"x_min":21,"x_max":518,"o":"m 518 1085 l 135 -246 l 21 -246 l 403 1085 l 518 1085 z "},"_":{"ha":960,"x_min":-14,"x_max":974,"o":"m 974 -224 l -14 -224 l -14 -131 l 974 -131 l 974 -224 z "},"{":{"ha":699,"x_min":57,"x_max":529,"o":"m 226 392 q 173 444 226 417 q 57 488 119 472 l 57 567 q 176 607 125 583 q 226 656 226 631 l 226 1010 q 237 1112 226 1078 q 274 1159 247 1146 q 351 1172 300 1172 q 429 1167 396 1172 q 492 1154 463 1161 q 529 1144 521 1147 l 529 1090 l 331 1090 l 331 658 q 312 605 331 626 q 265 569 293 583 q 178 526 238 554 q 292 463 254 492 q 331 390 331 433 l 331 -44 l 529 -44 l 529 -100 q 484 -111 519 -103 q 416 -124 449 -119 q 349 -128 383 -128 q 273 -114 299 -128 q 237 -65 247 -100 q 226 36 226 -31 l 226 392 z "},"}":{"ha":653,"x_min":124,"x_max":596,"o":"m 322 390 q 361 463 322 433 q 474 526 400 493 q 385 572 411 557 q 340 607 358 586 q 322 658 322 628 l 322 1090 l 125 1090 l 124 1144 q 221 1166 188 1160 q 301 1172 254 1172 q 381 1159 354 1172 q 417 1112 407 1146 q 426 1010 426 1078 l 426 656 q 477 607 426 631 q 596 567 528 583 l 596 488 q 481 444 535 472 q 426 392 426 417 l 426 36 q 417 -66 426 -32 q 381 -114 407 -100 q 304 -128 356 -128 q 226 -122 260 -128 q 163 -110 192 -117 q 124 -100 133 -103 l 125 -44 l 322 -44 l 322 390 z "},"[":{"ha":582,"x_min":138,"x_max":439,"o":"m 138 1010 q 147 1112 138 1078 q 183 1159 157 1146 q 261 1172 210 1172 q 344 1166 308 1172 q 439 1144 381 1160 l 439 1090 l 240 1090 l 240 -43 l 439 -44 l 439 -99 q 345 -119 385 -112 q 257 -126 306 -126 q 182 -112 207 -126 q 147 -65 157 -99 q 138 33 138 -32 l 138 1010 z "},"]":{"ha":583,"x_min":144,"x_max":446,"o":"m 343 1090 l 144 1090 l 144 1144 q 239 1165 201 1158 q 321 1172 276 1172 q 400 1159 374 1172 q 436 1112 426 1146 q 446 1010 446 1078 l 446 33 q 436 -65 446 -32 q 401 -112 426 -99 q 325 -126 376 -126 q 238 -119 278 -126 q 144 -99 197 -112 l 144 -44 l 343 -43 l 343 1090 z "},"(":{"ha":554,"x_min":78,"x_max":468,"o":"m 404 -211 q 275 -94 350 -179 q 139 140 200 -10 q 78 494 78 290 q 140 819 78 672 q 281 1060 203 967 q 406 1179 358 1153 l 460 1144 q 356 1031 418 1117 q 244 807 293 946 q 194 494 194 668 q 244 176 194 318 q 358 -53 294 35 q 468 -172 422 -140 l 404 -211 z "},")":{"ha":554,"x_min":86,"x_max":476,"o":"m 93 -174 q 198 -60 135 -146 q 310 167 261 26 q 360 482 360 307 q 310 796 360 656 q 196 1023 260 936 q 86 1143 132 1110 l 150 1182 q 278 1065 204 1150 q 415 831 353 981 q 476 478 476 681 q 414 153 476 300 q 274 -87 351 6 q 149 -208 196 -181 l 93 -174 z "},"—":{"ha":1628,"x_min":119,"x_max":1508,"o":"m 1508 589 l 1508 497 l 119 497 l 119 589 l 1508 589 z "},"–":{"ha":943,"x_min":119,"x_max":824,"o":"m 824 589 l 824 497 l 119 497 l 119 589 l 824 589 z "},"-":{"ha":840,"x_min":119,"x_max":721,"o":"m 721 589 l 721 497 l 119 497 l 119 589 l 721 589 z "},"­":{"ha":835,"x_min":119,"x_max":721,"o":"m 119 497 m 721 589 l 721 497 l 119 497 l 119 589 l 721 589 z "},"«":{"ha":1289,"x_min":167,"x_max":1121,"o":"m 607 731 l 640 675 l 283 417 l 640 168 l 607 110 l 167 363 l 167 467 l 607 731 m 1089 731 l 1121 675 l 765 417 l 1121 168 l 1089 110 l 647 363 l 647 467 l 1089 731 z "},"»":{"ha":1289,"x_min":168,"x_max":1125,"o":"m 522 422 l 168 671 l 201 731 l 642 478 l 642 372 l 201 110 l 168 164 l 522 422 m 651 671 l 685 731 l 1125 478 l 1125 372 l 685 110 l 651 164 l 1006 422 l 651 671 z "},"‹":{"ha":808,"x_min":167,"x_max":640,"o":"m 607 731 l 640 675 l 283 417 l 640 168 l 607 110 l 167 363 l 167 467 l 607 731 z "},"›":{"ha":808,"x_min":168,"x_max":642,"o":"m 522 422 l 168 671 l 201 731 l 642 478 l 642 372 l 201 110 l 168 164 l 522 422 z "},"„":{"ha":897,"x_min":150,"x_max":771,"o":"m 249 179 q 357 95 319 161 q 394 -37 394 29 q 332 -228 396 -146 q 181 -346 268 -310 l 150 -308 l 150 -290 q 238 -214 199 -274 q 276 -87 276 -154 q 247 10 276 -33 q 179 58 218 54 l 179 88 l 249 179 m 624 179 q 733 96 696 161 q 769 -37 769 31 q 706 -227 771 -144 q 556 -346 642 -310 l 525 -308 l 525 -290 q 613 -215 575 -275 q 651 -87 651 -154 q 622 10 651 -33 q 554 58 593 54 l 554 88 l 624 179 z "},"“":{"ha":886,"x_min":138,"x_max":742,"o":"m 283 638 q 175 722 213 656 q 138 854 138 788 q 201 1045 138 963 q 353 1163 265 1128 l 383 1125 l 383 1107 q 294 1031 333 1090 q 256 904 256 971 q 285 807 256 850 q 353 758 314 764 l 353 729 l 283 638 m 642 638 q 534 722 571 656 q 497 857 497 789 q 560 1047 497 965 q 711 1163 624 1128 l 742 1125 l 742 1107 q 653 1032 692 1092 q 615 904 615 972 q 644 807 615 850 q 713 758 674 764 l 713 729 l 642 638 z "},"”":{"ha":901,"x_min":143,"x_max":764,"o":"m 143 706 q 231 781 193 721 q 269 908 269 840 q 240 1006 269 963 q 172 1054 211 1049 l 172 1083 l 242 1174 q 351 1092 314 1157 q 388 958 388 1026 q 325 767 389 850 q 174 650 261 685 l 143 688 l 143 706 m 518 706 q 606 781 568 721 q 644 908 644 840 q 615 1006 644 963 q 547 1054 586 1049 l 547 1083 l 617 1174 q 726 1092 689 1157 q 763 958 763 1026 q 700 767 764 850 q 549 650 636 685 l 518 688 l 518 706 z "},"‘":{"ha":526,"x_min":138,"x_max":382,"o":"m 283 638 q 175 722 213 657 q 138 854 138 788 q 201 1045 138 963 q 353 1163 265 1128 l 382 1126 l 382 1107 q 293 1031 332 1090 q 254 904 254 971 q 284 807 254 850 q 353 758 314 764 l 353 729 l 283 638 z "},"’":{"ha":526,"x_min":135,"x_max":381,"o":"m 135 706 q 223 781 185 721 q 261 908 261 840 q 232 1006 261 963 q 164 1054 203 1049 l 164 1083 l 233 1174 q 342 1092 304 1157 q 379 958 379 1026 q 317 767 381 850 q 165 650 253 685 l 135 688 l 135 706 z "},"‚":{"ha":522,"x_min":135,"x_max":381,"o":"m 233 178 q 342 93 304 158 q 379 -39 379 28 q 317 -229 381 -147 q 165 -347 253 -311 l 135 -310 l 135 -293 q 223 -216 185 -276 q 261 -89 261 -156 q 232 9 261 -35 q 164 57 203 53 l 164 86 l 233 178 z "},"ॽ":{"ha":761,"x_min":138,"x_max":642,"o":"m 350 919 q 480 870 411 919 q 595 744 549 821 q 642 589 642 667 q 603 474 642 524 q 510 394 565 424 q 365 349 458 368 l 365 -44 l 346 -44 l 257 6 l 258 433 l 269 454 q 458 500 397 464 q 531 558 501 525 q 560 638 560 590 q 533 724 560 682 q 467 794 507 767 q 392 821 428 821 q 193 731 299 821 l 138 836 q 246 892 176 864 q 350 919 315 919 z "},"।":{"ha":696,"x_min":371,"x_max":479,"o":"m 479 876 l 479 -44 l 460 -44 l 371 6 l 371 925 l 392 925 l 479 876 z "},"॥":{"ha":1063,"x_min":371,"x_max":846,"o":"m 479 876 l 479 -44 l 460 -44 l 371 6 l 371 925 l 392 925 l 479 876 m 846 876 l 846 -44 l 825 -44 l 738 6 l 738 925 l 758 925 l 846 876 z "},"॰":{"ha":621,"x_min":96,"x_max":525,"o":"m 96 382 q 133 492 96 440 q 222 575 169 544 q 317 606 275 606 q 417 580 369 606 q 495 506 465 554 q 525 390 525 457 q 488 274 525 326 q 397 192 450 222 q 304 163 344 163 q 202 190 250 163 q 125 268 154 218 q 96 382 96 318 m 189 418 q 213 328 189 367 q 269 268 236 289 q 328 247 301 247 q 401 276 367 247 q 435 353 435 306 q 413 435 435 396 q 360 498 392 474 q 297 522 328 522 q 223 493 257 522 q 189 418 189 464 z "},"ॱ":{"ha":418,"x_min":94,"x_max":299,"o":"m 299 847 l 197 744 l 94 846 l 196 950 l 299 847 z "}," ":{"ha":1389,"x_min":0,"x_max":0,"o":""}," ":{"ha":1389,"x_min":0,"x_max":0,"o":""}," ":{"ha":694,"x_min":0,"x_max":0,"o":""}," ":{"ha":694,"x_min":0,"x_max":0,"o":""}," ":{"ha":874,"x_min":0,"x_max":0,"o":""}," ":{"ha":347,"x_min":0,"x_max":0,"o":""}," ":{"ha":139,"x_min":0,"x_max":0,"o":""}," ":{"ha":490,"x_min":0,"x_max":0,"o":""}," ":{"ha":232,"x_min":0,"x_max":0,"o":""}," ":{"ha":321,"x_min":0,"x_max":0,"o":""}," ":{"ha":278,"x_min":0,"x_max":0,"o":""}," ":{"ha":463,"x_min":0,"x_max":0,"o":""},"‍":{"ha":15,"x_min":0,"x_max":0,"o":""},"‌":{"ha":15,"x_min":0,"x_max":0,"o":""},"":{"ha":0,"x_min":0,"x_max":0,"o":""},"¢":{"ha":758,"x_min":85,"x_max":675,"o":"m 349 -8 q 153 115 222 13 q 85 368 85 217 q 127 567 85 479 q 244 708 169 656 q 411 775 318 761 l 422 924 l 500 924 l 492 779 q 585 769 540 778 q 651 746 631 760 l 651 588 l 592 588 l 558 674 q 506 698 538 690 q 443 706 474 706 q 322 672 376 706 q 235 573 268 639 q 203 414 203 507 q 240 222 203 299 q 334 108 276 144 q 456 72 392 72 q 565 85 507 72 q 653 117 622 99 l 675 60 q 572 8 639 28 q 429 -14 504 -11 l 421 -146 l 342 -146 l 349 -8 z "},"¤":{"ha":975,"x_min":154,"x_max":821,"o":"m 331 676 q 482 725 401 725 q 643 669 572 725 l 767 792 l 821 736 l 696 611 q 740 468 740 544 q 690 315 740 381 l 813 193 l 757 139 l 635 261 q 482 211 567 211 q 333 257 401 211 l 211 135 l 157 189 l 276 310 q 224 468 224 378 q 275 622 224 556 l 154 744 l 208 800 l 331 676 m 482 643 q 399 619 438 643 q 338 556 360 596 q 315 468 315 515 q 338 381 315 421 q 399 317 360 340 q 482 293 438 293 q 601 344 551 293 q 650 468 650 396 q 601 592 650 540 q 482 643 551 643 z "},"$":{"ha":863,"x_min":118,"x_max":779,"o":"m 175 256 l 215 119 q 314 65 253 81 q 444 49 375 49 q 598 95 533 49 q 663 235 663 142 q 628 334 663 290 q 544 411 594 378 q 410 490 494 444 q 261 577 319 538 q 164 672 203 617 q 125 800 125 728 q 208 981 125 915 q 403 1058 290 1046 l 406 1174 l 506 1174 l 501 1061 q 631 1043 576 1057 q 717 1010 686 1029 l 717 824 l 661 824 l 613 956 q 542 989 588 978 q 443 1000 497 1000 q 351 982 397 1000 q 272 924 304 964 q 239 821 239 883 q 299 697 239 749 q 474 586 360 644 q 634 494 574 533 q 737 399 694 456 q 779 269 779 343 q 691 64 779 135 q 463 -14 603 -7 l 457 -157 l 358 -157 l 363 -12 q 216 9 286 -7 q 118 42 146 25 l 118 256 l 175 256 z "},"€":{"ha":947,"x_min":-25,"x_max":864,"o":"m 582 1061 q 701 1051 649 1061 q 822 1024 754 1042 l 864 1013 l 853 822 l 799 822 l 765 935 q 543 988 692 988 q 352 913 426 988 q 250 694 278 838 l 646 694 l 646 614 l 240 614 q 236 531 236 575 q 239 464 236 486 l 626 464 l 626 383 l 244 383 q 549 49 286 49 q 681 64 629 49 q 778 114 733 79 q 787 146 783 131 q 793 174 790 161 q 807 232 796 188 l 864 232 l 864 43 q 824 35 847 42 q 790 25 800 28 q 669 -7 731 6 q 521 -19 607 -19 q 241 88 344 -19 q 114 383 138 196 l -25 383 l -25 464 l 108 464 q 107 492 107 472 q 117 614 107 546 l -4 614 l -4 694 l 131 694 q 294 965 176 869 q 582 1061 411 1061 z "},"ƒ":{"ha":719,"x_min":119,"x_max":679,"o":"m 119 668 l 124 718 l 276 754 l 282 815 q 338 986 289 911 q 455 1103 388 1061 q 583 1144 522 1144 q 679 1132 660 1144 l 672 1025 q 628 1040 660 1033 q 551 1047 596 1047 q 481 1034 510 1047 q 432 981 451 1021 q 407 867 413 942 l 397 754 l 608 754 l 601 668 l 392 668 l 322 -242 l 201 -242 l 269 668 l 119 668 z "},"₹":{"ha":876,"x_min":183,"x_max":804,"o":"m 764 808 l 497 808 q 565 690 551 754 l 803 690 l 803 669 l 764 599 l 565 599 q 317 372 538 447 l 665 19 l 575 -49 l 279 288 q 234 353 249 322 q 217 407 219 385 l 224 413 q 307 444 257 419 q 401 507 357 468 q 456 596 444 546 l 183 596 l 183 615 l 221 688 l 447 688 q 357 806 424 746 l 185 806 l 185 825 l 222 896 l 804 896 l 804 876 l 764 808 z "},"£":{"ha":979,"x_min":58,"x_max":915,"o":"m 621 1061 q 724 1050 681 1063 q 806 1006 768 1038 l 744 890 q 713 925 738 903 q 649 965 689 947 q 564 983 610 983 q 407 671 407 983 l 407 593 l 635 593 l 635 501 l 408 501 l 408 467 q 389 263 408 333 q 322 117 369 192 q 438 85 360 115 q 501 63 468 74 q 561 49 533 53 q 628 43 594 43 q 758 88 718 43 q 797 197 797 132 q 784 256 797 228 q 744 304 771 285 l 801 414 q 885 338 856 392 q 915 215 915 285 q 858 54 915 125 q 657 -24 801 -17 q 613 -25 642 -25 q 474 -8 535 -25 q 347 38 413 10 q 292 59 311 53 q 258 63 272 65 q 196 2 231 25 q 122 -21 161 -21 q 78 -8 97 -21 q 58 38 58 4 q 83 85 58 61 q 151 124 107 110 q 247 136 194 139 q 276 221 265 165 q 286 329 286 276 l 286 501 l 160 501 l 160 593 l 286 593 l 286 668 q 328 863 286 774 q 447 1007 371 953 q 621 1061 524 1061 z "},"¥":{"ha":956,"x_min":21,"x_max":929,"o":"m 415 74 l 415 263 l 125 263 l 125 343 l 415 343 l 415 504 l 125 504 l 125 585 l 374 585 l 111 979 l 21 990 l 21 1053 l 356 1053 l 356 990 l 251 979 l 450 663 l 486 585 l 503 585 l 546 668 l 728 979 l 625 990 l 625 1053 l 929 1053 l 929 990 l 833 972 l 585 585 l 822 585 l 822 504 l 540 504 l 540 343 l 822 343 l 822 263 l 540 263 l 540 75 l 681 56 l 681 0 l 281 0 l 281 56 l 415 74 z "},"≈":{"ha":869,"x_min":103,"x_max":761,"o":"m 103 667 q 197 757 135 719 q 331 794 260 794 q 398 777 368 794 q 461 729 428 760 q 514 690 493 703 q 558 678 535 678 q 637 699 601 678 q 706 751 672 719 l 751 694 q 657 604 719 642 q 524 567 594 567 q 458 583 486 567 q 393 632 429 600 q 342 672 361 660 q 296 685 322 685 q 217 664 253 685 q 149 611 182 643 l 103 667 m 113 400 q 206 490 143 453 q 340 526 269 526 q 407 510 378 526 q 471 463 436 493 q 524 424 503 436 q 568 411 544 411 q 647 431 611 411 q 715 483 682 451 l 761 428 q 667 337 729 375 q 533 299 604 299 q 466 316 496 299 q 403 364 436 333 q 352 403 374 390 q 306 417 331 417 q 226 396 261 417 q 158 343 190 375 l 113 400 z "},"~":{"ha":854,"x_min":103,"x_max":751,"o":"m 103 588 q 197 678 135 642 q 331 715 260 715 q 396 699 368 715 q 461 651 424 683 q 512 612 490 625 q 558 599 533 599 q 704 672 631 599 l 751 615 q 657 525 719 563 q 524 488 594 488 q 456 504 485 488 q 392 553 428 521 q 341 592 363 579 q 294 606 319 606 q 217 585 251 606 q 149 531 182 564 l 103 588 z "},"÷":{"ha":867,"x_min":119,"x_max":749,"o":"m 443 892 q 503 869 483 892 q 524 813 524 847 q 494 747 524 772 q 428 721 465 721 q 372 742 394 721 q 349 799 349 764 q 378 864 349 836 q 443 892 408 892 m 749 497 l 119 497 l 119 589 l 749 589 l 749 497 m 443 360 q 501 339 482 360 q 519 285 519 318 q 492 219 519 244 q 428 194 465 194 q 374 215 396 194 q 351 269 351 236 q 381 333 351 307 q 443 360 410 360 z "},"=":{"ha":840,"x_min":119,"x_max":721,"o":"m 721 719 l 721 626 l 119 626 l 119 719 l 721 719 m 721 450 l 721 357 l 119 357 l 119 450 l 721 450 z "},">":{"ha":896,"x_min":149,"x_max":806,"o":"m 696 510 l 149 775 l 149 892 l 806 553 l 806 468 l 149 128 l 149 244 l 696 510 z "},"≥":{"ha":896,"x_min":119,"x_max":776,"o":"m 625 663 l 119 871 l 119 979 l 776 690 l 776 638 l 119 344 l 119 453 l 625 663 m 776 213 l 776 118 l 119 118 l 119 213 l 776 213 z "},"∆":{"ha":1200,"x_min":100,"x_max":1088,"o":"m 588 1021 l 1088 38 l 1086 0 l 128 0 l 100 15 l 557 1001 l 588 1021 m 556 831 l 210 78 l 929 78 l 556 831 z "},"∞":{"ha":1207,"x_min":78,"x_max":1124,"o":"m 883 671 q 1015 638 961 671 q 1097 550 1069 604 q 1124 432 1124 496 q 1088 297 1124 358 q 992 201 1051 236 q 863 165 932 165 q 719 214 782 165 q 585 349 656 263 q 459 211 514 257 q 331 165 404 165 q 194 199 251 165 q 107 288 136 232 q 78 406 78 343 q 114 540 78 479 q 210 635 150 600 q 339 671 271 671 q 483 622 419 671 q 618 489 547 574 q 749 624 689 576 q 883 671 810 671 m 321 593 q 224 546 257 593 q 190 429 190 499 q 211 337 190 381 q 268 267 232 293 q 350 240 304 240 q 450 282 403 240 q 550 397 497 324 q 539 411 546 403 q 524 432 532 419 q 419 551 464 510 q 321 593 374 593 m 865 590 q 654 439 769 590 q 780 291 725 344 q 894 238 835 238 q 985 285 957 238 q 1013 408 1013 333 q 972 537 1013 483 q 865 590 932 590 z "},"∫":{"ha":724,"x_min":0,"x_max":704,"o":"m 525 1157 q 629 1137 576 1157 q 704 1064 682 1117 l 622 1006 q 581 1058 615 1035 q 507 1081 546 1081 q 413 1056 446 1081 q 367 982 379 1031 q 356 853 356 933 q 369 669 356 763 q 408 438 382 575 q 447 204 435 292 q 460 29 460 117 q 426 -142 460 -64 q 328 -267 392 -221 q 179 -314 264 -314 q 74 -294 126 -314 q 0 -221 22 -274 l 82 -162 q 124 -215 89 -192 q 197 -239 158 -239 q 292 -214 260 -239 q 337 -140 325 -189 q 349 -8 349 -90 q 335 169 349 79 q 296 397 322 260 q 256 630 269 538 q 243 813 243 722 q 278 984 243 906 q 376 1110 313 1063 q 525 1157 440 1157 z "},"<":{"ha":896,"x_min":90,"x_max":747,"o":"m 747 892 l 747 776 l 200 510 l 747 244 l 747 129 l 90 468 l 90 551 l 747 892 z "},"≤":{"ha":896,"x_min":119,"x_max":776,"o":"m 776 979 l 776 871 l 269 663 l 776 453 l 776 344 l 119 638 l 119 690 l 776 979 m 776 213 l 776 118 l 119 118 l 119 213 l 776 213 z "},"¬":{"ha":835,"x_min":119,"x_max":715,"o":"m 715 589 l 715 228 l 611 228 l 611 507 l 119 507 l 119 589 l 715 589 z "},"−":{"ha":840,"x_min":119,"x_max":721,"o":"m 721 589 l 721 497 l 119 497 l 119 589 l 721 589 z "}}}
